<svg width="64" height="65" viewBox="0 0 64 65" fill="none" xmlns="http://www.w3.org/2000/svg">
<circle cx="32" cy="32.8115" r="32" fill="#DEF7EF"/>
<g clip-path="url(#clip0_387_393)">
<path d="M32.0001 27.4804C29.0641 27.4804 26.6681 29.8764 26.6681 32.8124C26.6681 35.7484 29.0641 38.1444 32.0001 38.1444C34.9361 38.1444 37.3321 35.7484 37.3321 32.8124C37.3321 29.8764 34.9361 27.4804 32.0001 27.4804ZM47.9921 32.8124C47.9921 30.6044 48.0121 28.4164 47.8881 26.2124C47.7641 23.6524 47.1801 21.3804 45.3081 19.5084C43.4321 17.6324 41.1641 17.0524 38.6041 16.9284C36.3961 16.8044 34.2081 16.8244 32.0041 16.8244C29.7961 16.8244 27.6081 16.8044 25.4041 16.9284C22.8441 17.0524 20.5721 17.6364 18.7001 19.5084C16.8241 21.3844 16.2441 23.6524 16.1201 26.2124C15.9961 28.4204 16.0161 30.6084 16.0161 32.8124C16.0161 35.0164 15.9961 37.2084 16.1201 39.4124C16.2441 41.9724 16.8281 44.2444 18.7001 46.1164C20.5761 47.9924 22.8441 48.5724 25.4041 48.6964C27.6121 48.8204 29.8001 48.8004 32.0041 48.8004C34.2121 48.8004 36.4001 48.8204 38.6041 48.6964C41.1641 48.5724 43.4361 47.9884 45.3081 46.1164C47.1841 44.2404 47.7641 41.9724 47.8881 39.4124C48.0161 37.2084 47.9921 35.0204 47.9921 32.8124V32.8124ZM32.0001 41.0164C27.4601 41.0164 23.7961 37.3524 23.7961 32.8124C23.7961 28.2724 27.4601 24.6084 32.0001 24.6084C36.5401 24.6084 40.2041 28.2724 40.2041 32.8124C40.2041 37.3524 36.5401 41.0164 32.0001 41.0164ZM40.5401 26.1884C39.4801 26.1884 38.6241 25.3324 38.6241 24.2724C38.6241 23.2124 39.4801 22.3564 40.5401 22.3564C41.6001 22.3564 42.4561 23.2124 42.4561 24.2724C42.4564 24.5241 42.4071 24.7734 42.3109 25.006C42.2147 25.2386 42.0736 25.45 41.8956 25.628C41.7176 25.8059 41.5063 25.9471 41.2737 26.0432C41.0411 26.1394 40.7918 26.1887 40.5401 26.1884V26.1884Z" fill="#59C3AC"/>
</g>
<defs>
<clipPath id="clip0_387_393">
<rect width="32" height="32" fill="white" transform="translate(16 16.8115)"/>
</clipPath>
</defs>
</svg>
