<svg width="64" height="65" viewBox="0 0 64 65" fill="none" xmlns="http://www.w3.org/2000/svg">
<circle cx="32" cy="32.8115" r="32" fill="#DEF7EF"/>
<path d="M41.7614 24.2275C41.5588 24.1228 41.3617 24.008 41.1707 23.8835C40.6156 23.5165 40.1066 23.0841 39.6547 22.5955C38.5227 21.3009 38.1 19.9875 37.9453 19.0689H37.9507C37.8213 18.3049 37.8747 17.8115 37.884 17.8115H32.7307V37.7355C32.7307 38.0022 32.7307 38.2675 32.72 38.5289C32.72 38.5609 32.716 38.5902 32.7147 38.6262C32.7147 38.6395 32.7147 38.6555 32.7107 38.6702V38.6822C32.6566 39.3969 32.4276 40.0873 32.044 40.6928C31.6604 41.2982 31.1338 41.8001 30.5107 42.1542C29.8606 42.524 29.1253 42.718 28.3774 42.7169C25.9774 42.7169 24.0307 40.7595 24.0307 38.3422C24.0307 35.9235 25.9774 33.9662 28.3774 33.9662C28.832 33.9662 29.284 34.0382 29.716 34.1795L29.7227 28.9315C28.4107 28.7623 27.0779 28.8668 25.8083 29.2386C24.5388 29.6104 23.3601 30.2413 22.3467 31.0915C21.4585 31.8629 20.7117 32.7834 20.14 33.8115C19.9227 34.1862 19.1014 35.6942 19.0027 38.1395C18.94 39.5262 19.3574 40.9662 19.556 41.5595V41.5729C19.68 41.9222 20.1654 43.1169 20.9547 44.1235C21.5912 44.9315 22.3433 45.6414 23.1867 46.2302V46.2169L23.1987 46.2302C25.692 47.9235 28.4587 47.8129 28.4587 47.8129C28.9374 47.7929 30.5414 47.8129 32.3627 46.9502C34.3827 45.9929 35.532 44.5675 35.532 44.5675C36.2668 43.7157 36.8512 42.7449 37.26 41.6969C37.7267 40.4702 37.8813 39.0009 37.8813 38.4142V27.8422C37.944 27.8795 38.7774 28.4302 38.7774 28.4302C38.7774 28.4302 39.9774 29.1995 41.848 29.6995C43.1894 30.0555 44.9987 30.1315 44.9987 30.1315V25.0155C44.3654 25.0849 43.0787 24.8849 41.76 24.2289L41.7614 24.2275Z" fill="#59C3AC"/>
</svg>
