<svg width="64" height="65" viewBox="0 0 64 65" fill="none" xmlns="http://www.w3.org/2000/svg">
<circle cx="32" cy="32.8115" r="32" fill="#DEF7EF"/>
<g clipPath="url(#clip0_387_421)">
<path d="M47.3332 25.488C47.152 24.8416 46.799 24.2564 46.3118 23.7946C45.8109 23.3186 45.1969 22.9781 44.5278 22.8053C42.0238 22.1453 31.9918 22.1453 31.9918 22.1453C27.8096 22.0977 23.6284 22.307 19.4718 22.772C18.8028 22.9576 18.1899 23.3057 17.6878 23.7853C17.1945 24.26 16.8372 24.8453 16.6505 25.4866C16.2021 27.9023 15.9842 30.3551 15.9998 32.812C15.9838 35.2666 16.2012 37.7186 16.6505 40.1373C16.8332 40.776 17.1892 41.3586 17.6838 41.8293C18.1785 42.3 18.7945 42.64 19.4718 42.82C22.0092 43.4786 31.9918 43.4786 31.9918 43.4786C36.1794 43.5263 40.3659 43.317 44.5278 42.852C45.1969 42.6791 45.8109 42.3386 46.3118 41.8626C46.7989 41.4009 47.1514 40.8157 47.3318 40.1693C47.792 37.7546 48.0157 35.3007 47.9998 32.8426C48.0345 30.3741 47.811 27.9087 47.3332 25.4866V25.488ZM28.8025 37.3773V28.248L37.1492 32.8133L28.8025 37.3773Z" fill="#59C3AC"/>
</g>
<defs>
<clipPath id="clip0_387_421">
<rect width="32" height="32" fill="white" transform="translate(16 16.8115)"/>
</clipPath>
</defs>
</svg>
