<svg width="49" height="29" viewBox="0 0 49 29" fill="none" xmlns="http://www.w3.org/2000/svg">
<path d="M0.5 1.2311C0.611563 0.464227 1.38875 -0.142336 2.16313 0.0292267C2.72469 0.127664 3.18594 0.595477 3.28906 1.15423C3.42875 1.86673 3.56188 2.58204 3.69219 3.29641C3.73344 3.39391 3.69688 3.58048 3.84781 3.58423C4.91094 3.72016 5.99094 3.8261 7.01188 4.17204C8.59906 4.8011 10.3653 4.86016 12.0359 4.59579C12.8666 4.48235 13.6166 4.08298 14.4275 3.89454C15.5431 3.62173 16.6972 3.52423 17.8428 3.56173C19.0531 3.60485 20.2691 3.79141 21.4025 4.22735C22.3841 4.61548 23.4491 4.73454 24.4981 4.7411C25.445 4.73454 26.4041 4.63891 27.3059 4.33329C29.5138 3.4586 31.985 3.36579 34.2978 3.83079C35.2419 4.00891 36.1016 4.4861 37.0588 4.60985C38.6975 4.85642 40.4225 4.78704 41.9788 4.17767C43.0363 3.81767 44.1547 3.70423 45.2562 3.56266C45.41 2.73673 45.5581 1.90985 45.7278 1.08766C45.8741 0.397664 46.5978 -0.0935861 47.2934 0.0179764C47.9469 0.101414 48.4663 0.691102 48.5 1.34454V1.59016C46.8697 10.0558 45.2788 18.5289 43.6634 26.9974C43.5594 27.4661 43.5453 27.9939 43.2209 28.3783C42.9397 28.7345 42.4784 28.907 42.0312 28.8911C30.5328 28.8911 19.0334 28.8902 7.535 28.8911C7.00531 28.893 6.40531 28.9511 5.97687 28.5733C5.57469 28.2761 5.46594 27.7652 5.39281 27.3011C4.43563 22.2386 3.47 17.178 2.50906 12.1155C1.835 8.61485 1.19563 5.10766 0.5 1.61173V1.2311Z" fill="#F9E76B"/>
</svg>
