<svg width="45" height="49" viewBox="0 0 45 49" fill="none" xmlns="http://www.w3.org/2000/svg">
<g clipPath="url(#clip0_284_288)">
<path d="M4.88731 0.0500488H40.0901C40.6983 0.0875305 41.3102 0.202787 41.8593 0.478277C43.0446 1.04425 43.9245 2.20899 44.1325 3.50867C44.229 4.13274 44.2028 4.76525 44.2037 5.39494C44.2037 6.84173 44.2047 8.28946 44.2037 9.73626C29.7499 9.73719 15.2969 9.73719 0.843037 9.73626C0.844911 7.91371 0.836478 6.09022 0.846785 4.26768C0.847722 3.24162 1.20848 2.21368 1.90283 1.45093C2.64778 0.591659 3.76005 0.108145 4.88731 0.0500488ZM28.6273 4.94328C28.0173 5.09415 27.5637 5.7051 27.6031 6.33292C27.6115 7.0179 28.2075 7.63072 28.8934 7.65134C29.8323 7.67195 30.7722 7.65696 31.7111 7.65883C32.1777 7.67008 32.6416 7.43582 32.8965 7.04226C33.3031 6.46223 33.1523 5.58984 32.5779 5.17567C32.0644 4.77087 31.3719 4.92173 30.7684 4.89362C30.0553 4.91892 29.3348 4.8374 28.6273 4.94328ZM36.0252 4.93954C35.2128 5.11757 34.7331 6.11459 35.1116 6.8586C35.3309 7.34961 35.8566 7.67383 36.3944 7.6579C37.2968 7.66164 38.2001 7.66258 39.1034 7.6579C39.615 7.67008 40.1201 7.37866 40.3525 6.92044C40.6786 6.32823 40.4799 5.5205 39.9196 5.14475C39.4117 4.78024 38.7577 4.91986 38.1758 4.89362C37.4598 4.91705 36.7365 4.84115 36.0252 4.93954Z" fill="#81CAC0"/>
<path d="M0.843046 12.5071C15.2969 12.5061 29.7499 12.5061 44.2038 12.5071C44.2038 22.9101 44.2066 33.3131 44.2028 43.7162C44.2122 44.7291 43.8936 45.7552 43.2264 46.5292C42.4815 47.4456 41.327 47.9685 40.1567 48.0266H4.90513C4.50126 47.9872 4.09365 47.9394 3.70852 47.8083C2.45944 47.4109 1.43619 46.3783 1.0492 45.1274C0.81025 44.4021 0.843047 43.6281 0.84211 42.8757C0.843047 32.7528 0.841172 22.6299 0.843046 12.5071ZM21.0757 15.589C18.377 15.8823 15.7758 17.0189 13.7386 18.8152C11.6893 20.59 10.2097 23.0094 9.55379 25.6397C8.82103 28.5455 9.10401 31.6986 10.3597 34.4217C11.143 36.1374 12.2928 37.6882 13.7161 38.927C16.0006 40.9528 19.0039 42.1504 22.0577 42.2385C24.286 42.3237 26.5349 41.8337 28.5242 40.8245C31.8601 39.1584 34.4351 36.0381 35.4087 32.4361C36.088 30.0044 36.0477 27.3789 35.3065 24.9669C34.4257 22.0846 32.5376 19.5208 30.0385 17.8341C27.4476 16.0406 24.2045 15.2498 21.0757 15.589Z" fill="#81CAC0"/>
<path d="M15.4948 20.9499C17.2901 19.3429 19.6496 18.3862 22.0569 18.2896C24.2355 18.1884 26.4413 18.7835 28.2695 19.9735C30.6402 21.4934 32.3512 23.9906 32.9181 26.7493C32.3859 26.8964 31.8611 27.081 31.3861 27.3668C30.7292 27.7153 30.1182 28.1951 29.3705 28.3329C28.6462 28.464 27.8778 28.4491 27.1816 28.1932C26.5069 27.9318 25.9409 27.4614 25.2794 27.1728C24.0275 26.5515 22.5647 26.4635 21.2032 26.6968C20.1922 26.8617 19.3001 27.3958 18.438 27.9177C17.6237 28.4172 16.6192 28.5025 15.6944 28.3375C14.8969 28.1904 14.2513 27.6694 13.5476 27.303C13.1053 27.0472 12.618 26.887 12.1289 26.7493C12.5937 24.5219 13.7865 22.4539 15.4948 20.9499Z" fill="#81CAC0"/>
<path d="M21.7353 29.4161C22.4034 29.3158 23.1043 29.3177 23.7518 29.5313C24.4433 29.7665 25.0121 30.2472 25.6727 30.549C27.0474 31.2536 28.6797 31.3286 30.1686 30.9987C31.2472 30.7579 32.1336 30.0701 33.1053 29.5885C32.9601 31.7118 32.1674 33.7893 30.8368 35.4525C29.6542 36.9565 28.0556 38.1268 26.2659 38.8024C24.5201 39.4677 22.5955 39.6477 20.7542 39.3366C18.4959 38.9617 16.3763 37.8204 14.8114 36.1497C13.1304 34.3833 12.1062 32.0211 11.9385 29.5894C12.585 29.8818 13.1529 30.3203 13.8023 30.6071C14.9539 31.1787 16.2873 31.2724 17.5476 31.1168C18.4191 31.0137 19.238 30.6624 19.9877 30.2173C20.5368 29.8865 21.0896 29.5229 21.7353 29.4161Z" fill="#81CAC0"/>
</g>
<defs>
<clipPath id="clip0_284_288">
<rect width="43.4319" height="48" fill="white" transform="translate(0.783936 0.0500488)"/>
</clipPath>
</defs>
</svg>
