<svg width="49" height="48" viewBox="0 0 49 48" fill="none" xmlns="http://www.w3.org/2000/svg">
<g clip-path="url(#clip0_286_611)">
<path d="M4.1975 6.62703C5.92719 5.2564 8.135 4.50546 10.3428 4.54953C13.0916 4.49703 15.8525 4.91796 18.4447 5.84234C19.4019 6.18359 20.3412 6.58672 21.3331 6.82109C23.9619 7.47172 26.7847 7.28234 29.3094 6.3064C30.6753 5.77484 32.0703 5.30703 33.5094 5.01828C35.4434 4.60671 37.4291 4.49515 39.4016 4.5664C41.8166 4.69953 44.1528 5.79546 45.815 7.54953C47.4312 9.22296 48.3847 11.4936 48.5 13.813V25.8223C48.3763 27.388 47.9309 28.9367 47.105 30.2792C45.7447 32.5489 43.4197 34.2186 40.8247 34.7567C39.8356 34.9789 38.8166 34.9845 37.8078 34.9639C35.3966 34.9367 32.99 34.5148 30.7119 33.7245C29.7059 33.3823 28.7319 32.9436 27.695 32.7017C24.9978 32.0258 22.0953 32.2405 19.5172 33.2773C16.9878 34.2889 14.2869 34.8889 11.5597 34.9555C10.43 34.9808 9.28625 35.007 8.17625 34.7567C5.38344 34.1764 2.90562 32.2855 1.59687 29.7523C0.951875 28.542 0.613438 27.192 0.5 25.8308V13.7333C0.550625 13.2786 0.589062 12.822 0.680937 12.373C1.11313 10.1173 2.39375 8.04453 4.1975 6.62703ZM9.64344 11.2142C8.9825 11.4664 8.59437 12.2652 8.83063 12.9373C9.04062 13.662 9.90031 14.112 10.6137 13.8448C11.3506 13.618 11.7837 12.7189 11.4744 12.0064C11.2194 11.2967 10.3363 10.9067 9.64344 11.2142ZM24.1756 15.7189C23.4284 15.8802 22.9166 16.722 23.1472 17.458C23.3328 18.1958 24.1869 18.6748 24.9116 18.4255C25.6306 18.2248 26.0844 17.3839 25.8406 16.6742C25.6466 15.9852 24.8694 15.5352 24.1756 15.7189ZM13.6578 19.3611C12.2338 19.5008 10.9259 20.4289 10.3109 21.718C9.73344 22.8898 9.75219 24.3336 10.3616 25.4895C10.9728 26.6848 12.1859 27.5492 13.5181 27.7273C14.6562 27.8923 15.8563 27.5652 16.7469 26.8367C17.66 26.1064 18.2478 24.9833 18.3125 23.8142C18.3978 22.5711 17.8897 21.3073 16.9719 20.4655C16.0953 19.6405 14.8541 19.228 13.6578 19.3611ZM39.8206 19.3686C39.065 19.5167 38.5381 20.3595 38.7641 21.1011C38.9431 21.8473 39.8075 22.3358 40.5378 22.0798C41.2513 21.8773 41.7022 21.0402 41.4613 20.3352C41.2709 19.6536 40.5097 19.1998 39.8206 19.3686ZM32.7856 23.7702C32.0853 23.9877 31.6484 24.8108 31.8875 25.5102C32.0947 26.2461 32.9675 26.7036 33.6866 26.4261C34.3991 26.1983 34.8266 25.3395 34.5528 24.6373C34.325 23.9342 33.4822 23.5095 32.7856 23.7702Z" fill="#FF8FAF"/>
<path d="M13.8491 22.1718C14.5288 22.0311 15.2619 22.4811 15.4475 23.1496C15.6894 23.8611 15.2281 24.7011 14.5072 24.898C13.7806 25.1408 12.9303 24.6552 12.7494 23.9165C12.5178 23.1571 13.0728 22.3011 13.8491 22.1718Z" fill="#FF8FAF"/>
<path d="M0.5 33.1658C2.64219 35.8151 5.90281 37.528 9.30594 37.7473C12.3247 37.9001 15.3772 37.5767 18.2712 36.688C19.1806 36.4198 20.0656 36.0748 20.9534 35.742C22.8931 35.0417 25.0409 34.933 27.0416 35.4364C27.9462 35.652 28.7919 36.0467 29.6722 36.3383C32.8728 37.483 36.305 37.9226 39.6941 37.7473C41.7762 37.6039 43.8181 36.9242 45.5694 35.7898C46.6766 35.083 47.6478 34.183 48.5 33.1873V34.0086C48.4475 35.8076 47.8953 37.5908 46.8978 39.0908C45.2591 41.6023 42.4025 43.2739 39.4034 43.4323C36.7522 43.5467 34.0728 43.2598 31.5331 42.4742C30.7044 42.2295 29.9 41.9117 29.09 41.6126C26.5841 40.6864 23.7978 40.543 21.2103 41.2086C20.2634 41.442 19.3663 41.8311 18.4494 42.1555C15.5928 43.1764 12.5309 43.5767 9.50562 43.4267C7.36625 43.2851 5.2925 42.3917 3.70438 40.9545C2.39844 39.7761 1.41594 38.2405 0.910625 36.5548C0.684687 35.8395 0.587187 35.0951 0.5 34.3526V33.1658Z" fill="#FF8FAF"/>
</g>
<defs>
<clipPath id="clip0_286_611">
<rect width="48" height="48" fill="white" transform="translate(0.5 -0.00012207)"/>
</clipPath>
</defs>
</svg>
