<svg width="64" height="64" viewBox="0 0 64 64" fill="none" xmlns="http://www.w3.org/2000/svg">
<path d="M4.6153 0H4.95405C5.7553 0.07625 6.17905 0.82125 6.7528 1.28125C8.6653 2.995 11.1253 3.85125 13.4478 4.845C16.0553 5.95125 18.5715 7.4325 20.4765 9.56C21.5078 10.7463 22.2815 12.1562 22.7103 13.6687C23.3628 15.925 23.2465 18.3475 22.6453 20.6012C19.7328 17.6912 16.824 14.7762 13.909 11.8687C13.4078 11.3537 12.604 11.1625 11.9278 11.4175C11.1315 11.6837 10.604 12.5413 10.7065 13.3713C10.7478 13.9363 11.104 14.4075 11.5103 14.775C14.1803 17.4387 16.8478 20.1063 19.5115 22.7763C15.9103 22.735 12.2315 22.1038 9.0328 20.3813C5.6453 18.595 3.0828 15.2938 2.26405 11.545C1.48655 8.04375 2.05655 4.36 3.32655 1.04375C3.5153 0.4825 4.0378 0.09125 4.6153 0Z" fill="#CFE3E0"/>
<path d="M31.7453 0H32.139C32.7327 0.07875 33.2827 0.42125 33.579 0.9475C38.4252 9.06 43.2678 17.1763 48.1128 25.29C49.4315 27.5725 50.939 29.7625 51.939 32.2137C53.6827 36.4225 54.3377 41.1163 53.6102 45.625C52.8677 50.2063 50.599 54.5113 47.2765 57.7463C43.3303 61.6338 37.8715 63.92 32.3315 64H31.5065C30.344 63.96 29.184 63.85 28.039 63.6437C23.3265 62.8087 18.934 60.3513 15.7202 56.81C12.6165 53.4213 10.619 49.035 10.1277 44.4637C9.66025 40.05 10.4465 35.525 12.2752 31.4875C13.1002 29.6437 14.2165 27.9537 15.2365 26.2162C17.5452 26.525 19.8902 26.635 22.2115 26.4025C23.4265 26.2988 24.569 25.5712 25.154 24.4975C26.0752 22.7162 26.5715 20.7412 26.789 18.7537C27.1702 15.6512 26.6202 12.4212 25.1127 9.6725C26.8515 6.755 28.5915 3.8375 30.3365 0.92375C30.6277 0.41125 31.169 0.085 31.7453 0ZM30.4652 27.8275C27.2615 28.1512 24.1877 29.6038 21.8952 31.8638C19.524 34.1725 17.9877 37.3212 17.6552 40.6162C17.3215 43.7262 18.0377 46.9375 19.679 49.6012C21.5127 52.6137 24.4852 54.9137 27.8702 55.905C30.6477 56.7362 33.6765 56.6875 36.429 55.7837C40.284 54.5337 43.5302 51.565 45.134 47.845C46.5165 44.69 46.6977 41.0325 45.6415 37.7537C44.5715 34.3687 42.1877 31.43 39.109 29.665C36.519 28.155 33.444 27.5175 30.4652 27.8275Z" fill="#DFECEA"/>
<path d="M30.4714 31.6036C32.4839 31.3223 34.5777 31.6236 36.4189 32.4873C38.5702 33.4823 40.3652 35.2223 41.4314 37.3386C42.5464 39.5223 42.8564 42.0998 42.3064 44.4886C41.7689 46.8698 40.3727 49.0423 38.4377 50.5311C36.8539 51.7598 34.9177 52.5273 32.9189 52.7023C30.7377 52.9086 28.4977 52.4123 26.6089 51.3023C24.5789 50.1223 22.9564 48.2523 22.0864 46.0711C21.0964 43.6236 21.0739 40.8036 22.0227 38.3398C23.3489 34.7873 26.7089 32.0973 30.4714 31.6036ZM35.6464 37.2261C33.7164 39.1498 31.7902 41.0798 29.8627 43.0073C29.0902 42.2486 28.3402 41.4686 27.5602 40.7186C26.6627 39.8711 25.0089 40.2511 24.5914 41.4186C24.2952 42.1186 24.4914 42.9748 25.0414 43.4936C26.2102 44.6586 27.3739 45.8286 28.5439 46.9936C29.0827 47.5298 29.9564 47.6873 30.6439 47.3573C31.1139 47.1473 31.4277 46.7223 31.7939 46.3786C33.9589 44.2111 36.1302 42.0486 38.2914 39.8761C38.9989 39.1573 38.9552 37.8786 38.2002 37.2098C37.5102 36.5536 36.3289 36.5648 35.6464 37.2261Z" fill="#CFE3E0"/>
</svg>
