<svg width="48" height="64" viewBox="0 0 48 64" fill="none" xmlns="http://www.w3.org/2000/svg">
<g clip-path="url(#clip0_434_2128)">
<path d="M45.7143 25.9174C46.621 24.9351 47.0744 23.6505 47.0744 22.366C47.0744 21.0815 46.621 19.8725 45.7143 18.8146C44.732 17.7568 43.4475 17.1523 42.0874 17.0767C41.0295 17.0012 40.0472 17.2279 39.1405 17.7568C32.7934 7.17828 24.1795 0.680047 23.6505 0.226682C23.1972 -0.0755608 22.5927 -0.0755608 22.2149 0.226682C21.2326 0.90673 0 17.0012 0 40.3495C0 62.8666 19.0413 64 22.8949 64C26.7485 64 45.7898 62.8666 45.7898 40.3495C45.7898 35.9669 45.0342 31.8867 43.8253 28.0331L45.7143 25.9174ZM43.3719 40.3495C43.3719 59.9953 27.7308 61.5821 22.8949 61.5821C18.1346 61.5821 2.49351 60.0708 2.49351 40.3495C2.49351 20.6281 19.1924 5.81818 22.8949 2.79575C25.0862 4.60921 31.9622 10.5785 37.1759 19.4191L22.9705 32.1133C22.8194 32.0378 22.6682 31.8867 22.4416 31.7355C20.6281 30.5266 18.7391 29.3176 16.8501 28.1842C14.6588 26.8996 12.0142 27.2775 10.3518 29.242C8.61393 31.1311 8.53837 33.7757 10.1251 35.8158C11.4852 37.5537 12.8453 39.2161 14.3566 40.954C14.6588 41.3318 14.961 41.7096 15.3388 42.0874C16.6234 43.5986 18.1346 45.3365 19.7214 46.3943C20.8548 47.2255 22.1393 47.6033 23.4239 47.6033C25.1617 47.6033 26.8996 46.9233 28.1842 45.4876L41.8607 30.2243C42.7674 33.3979 43.3719 36.7981 43.3719 40.3495ZM40.8784 27.2019L26.0685 43.6741C24.8595 45.0342 22.7438 45.2609 21.157 44.1275C19.8725 43.2963 18.5124 41.7096 17.379 40.3495C17.0012 39.8961 16.6989 39.5183 16.3967 39.1405C14.961 37.4782 13.6009 35.8158 12.3164 34.1535C11.4097 33.0201 11.7875 31.8111 12.4675 31.1311C12.8453 30.6777 13.5254 30.2999 14.281 30.2999C14.6588 30.2999 15.0366 30.3754 15.49 30.6777C17.379 31.8111 19.1924 32.9445 20.9303 34.1535C21.3837 34.4557 21.8371 34.758 22.366 35.1358C22.8949 35.5136 23.575 35.438 24.0283 34.9847L38.536 21.9126L40.0472 20.5525C40.1983 20.477 40.2739 20.3259 40.425 20.2503C40.8784 19.9481 41.3318 19.8725 41.8607 19.8725C42.5407 19.9481 43.1452 20.1747 43.5986 20.7037C44.4298 21.686 44.4298 23.1216 43.5986 24.1039L42.6919 25.0862L40.8784 27.2019Z" fill="#CFE3E0"/>
</g>
<defs>
<clipPath id="clip0_434_2128">
<rect width="47.0744" height="64" fill="white"/>
</clipPath>
</defs>
</svg>
