<svg width="64" height="64" viewBox="0 0 64 64" fill="none" xmlns="http://www.w3.org/2000/svg">
<g clipPath="url(#clip0_434_375)">
<path d="M63.6799 19.392C63.2959 19.008 62.5919 19.008 62.2079 19.392C59.9679 21.632 56.3199 22.912 52.2239 23.04C48.5119 23.104 45.0559 22.144 43.4559 20.544C41.8559 18.944 40.8959 15.488 40.9599 11.776C41.0879 7.61598 42.3679 3.96798 44.6079 1.79198C44.9919 1.40798 44.9919 0.703982 44.6079 0.319982C44.2239 -0.0640176 43.5199 -0.0640176 43.1359 0.319982C40.5759 2.87998 38.9759 7.03998 38.9119 11.776C38.8479 14.336 39.2319 16.704 39.9999 18.688C38.1439 18.112 35.8399 17.728 33.4719 17.728C28.6079 17.728 24.3199 19.2 21.8239 21.76C17.4079 26.176 16.5759 34.688 18.6239 40.128C16.7679 39.552 14.4639 39.168 12.0959 39.168C7.23191 39.168 2.94391 40.64 0.447912 43.2C0.0639121 43.584 0.0639121 44.288 0.447912 44.672C0.831912 45.056 1.53591 45.056 1.91991 44.672C4.09591 42.496 7.80791 41.28 12.1599 41.28C15.9359 41.216 19.3919 42.176 20.7359 43.52C22.0799 44.864 22.9759 48.384 22.9759 52.096C22.9759 56.448 21.6959 60.16 19.5839 62.336C19.1999 62.72 19.1999 63.424 19.5839 63.808C19.7759 64 20.0319 64.128 20.3519 64.128C20.6719 64.128 20.8639 64 21.1199 63.808C23.6799 61.248 25.0879 57.024 25.1519 52.16C25.1519 49.728 24.8319 47.488 24.1919 45.632C26.0479 46.336 28.2239 46.72 30.5919 46.72C30.7839 46.72 30.9759 46.72 31.1039 46.72C35.7759 46.592 39.9359 45.056 42.5599 42.496C45.1199 39.936 46.5279 35.712 46.5919 30.848C46.5919 28.416 46.2719 26.176 45.6319 24.32C47.4879 25.024 49.6639 25.408 51.9679 25.408C56.3839 25.408 61.0559 24.064 63.9999 21.12C64.1279 20.416 64.1279 19.776 63.6799 19.392ZM44.2239 30.592C44.2239 34.944 42.9439 38.656 40.8319 40.832C38.5919 43.072 34.9439 44.352 30.8479 44.48C27.1359 44.544 23.6799 43.584 22.0799 41.984C18.9439 38.848 18.3039 28.16 23.2319 23.232C25.6639 20.8 29.7599 19.84 33.5359 19.84C37.2479 19.84 40.6399 20.736 41.9839 22.08C43.3279 23.36 44.2239 26.88 44.2239 30.592Z" fill="#CFE3E0"/>
<path d="M43.6479 12.8639C43.2639 13.2479 43.2639 13.9519 43.6479 14.3359L49.6639 20.3519C49.8559 20.5439 50.1119 20.6719 50.4319 20.6719C50.7519 20.6719 50.9439 20.5439 51.1999 20.3519C51.5839 19.9679 51.5839 19.2639 51.1999 18.8799L45.1839 12.8639C44.7359 12.4799 44.0319 12.4799 43.6479 12.8639Z" fill="#CFE3E0"/>
<path d="M57.2799 18.624C57.4719 18.816 57.7279 18.944 58.0479 18.944C58.3039 18.944 58.5599 18.816 58.8159 18.624C59.1999 18.24 59.1999 17.536 58.8159 17.152L46.8479 5.24796C46.4639 4.86396 45.7599 4.86396 45.3759 5.24796C44.9919 5.63196 44.9919 6.33596 45.3759 6.71996L57.2799 18.624Z" fill="#CFE3E0"/>
<path d="M19.6479 51.3919C19.9039 51.3919 20.1599 51.2639 20.4159 51.0719C20.7999 50.6879 20.7999 49.9839 20.4159 49.5999L14.3999 43.5839C14.0159 43.1999 13.3119 43.1999 12.9279 43.5839C12.5439 43.9679 12.5439 44.6719 12.9279 45.0559L18.9439 51.0719C19.1359 51.2639 19.3919 51.3919 19.6479 51.3919Z" fill="#CFE3E0"/>
<path d="M6.78393 45.3119C6.39993 44.9279 5.69593 44.9279 5.31193 45.3119C4.92793 45.6959 4.92793 46.3999 5.31193 46.7839L17.2799 58.7519C17.4719 58.9439 17.7279 59.0719 18.0479 59.0719C18.3039 59.0719 18.5599 58.9439 18.8159 58.7519C19.1999 58.3679 19.1999 57.6639 18.8159 57.2799L6.78393 45.3119Z" fill="#CFE3E0"/>
<path d="M23.552 34.432C23.168 34.048 22.464 34.048 22.08 34.432C21.696 34.816 21.696 35.52 22.08 35.904L28.096 41.92C28.288 42.112 28.544 42.24 28.864 42.24C29.12 42.24 29.376 42.112 29.632 41.92C30.016 41.536 30.016 40.832 29.632 40.448L23.552 34.432Z" fill="#CFE3E0"/>
<path d="M40.448 29.568C40.64 29.76 40.896 29.888 41.216 29.888C41.472 29.888 41.728 29.76 41.984 29.568C42.368 29.184 42.368 28.48 41.984 28.096L35.968 22.08C35.584 21.696 34.88 21.696 34.496 22.08C34.112 22.464 34.112 23.168 34.496 23.552L40.448 29.568Z" fill="#CFE3E0"/>
<path d="M26.7519 25.2799C26.3679 24.8959 25.6639 24.8959 25.2799 25.2799C24.8959 25.6639 24.8959 26.3679 25.2799 26.7519L37.2479 38.7199C37.4399 38.9119 37.6959 39.0399 38.0159 39.0399C38.2719 39.0399 38.5279 38.9119 38.7839 38.7199C39.1679 38.3359 39.1679 37.6319 38.7839 37.2479L26.7519 25.2799Z" fill="#CFE3E0"/>
</g>
<defs>
<clipPath id="clip0_434_375">
<rect width="64" height="64" fill="white"/>
</clipPath>
</defs>
</svg>
