<svg width="64" height="64" viewBox="0 0 64 64" fill="none" xmlns="http://www.w3.org/2000/svg">
<g clip-path="url(#clip0_339_390)">
<path d="M24.9876 0H39.0301C39.5176 0.075 39.9976 0.2925 40.3076 0.6875C40.8751 1.35 40.8726 2.405 40.3038 3.06625C39.9213 3.56125 39.2876 3.75 38.6863 3.77625C38.6888 9.43625 38.6888 15.0963 38.6863 20.7563C38.6713 21.1513 38.9026 21.4875 39.0588 21.8312C40.0926 23.9875 41.1201 26.1475 42.1501 28.305C41.1101 28.1513 40.0426 28.1287 39.0076 28.335C36.6088 28.7825 34.5763 30.2675 32.8126 31.8813C29.4288 30.1213 26.0526 28.3488 22.6738 26.5825C23.5013 24.8538 24.3188 23.1212 25.1526 21.3962C25.3926 20.9687 25.3001 20.465 25.3138 19.9988C25.3126 14.5913 25.3113 9.18375 25.3138 3.77625C24.4251 3.785 23.5376 3.21625 23.3351 2.3225C23.0326 1.24875 23.8876 0.09 24.9876 0Z" fill="#CFE3E0"/>
<path fill-rule="evenodd" clip-rule="evenodd" d="M8.70622 22.5862C11.6762 17.6675 16.2525 13.75 21.5625 11.5562L21.5627 12.9287C21.563 13.8437 21.5633 14.7587 21.5625 15.6737C17.7087 17.5975 14.4087 20.6012 12.1162 24.2462C19.0375 27.8597 25.9576 31.4754 32.8777 35.091C39.7963 38.706 46.715 42.321 53.635 45.9337C55.14 42.3937 55.7575 38.4825 55.4137 34.6512C55.0762 30.8437 53.775 27.1312 51.6862 23.9312C49.4062 20.425 46.1837 17.5362 42.4387 15.6712C42.4362 14.2987 42.4362 12.9262 42.4387 11.5537C46.995 13.4387 51.0175 16.59 53.9375 20.5637C57.5025 25.375 59.41 31.3887 59.245 37.3775C59.1437 42.3137 57.6637 47.2137 55.0012 51.3725C52.6387 55.0937 49.3562 58.2225 45.5312 60.41C41.5587 62.7012 36.995 63.92 32.4125 64H31.6012C28.6212 63.9375 25.6462 63.425 22.8387 62.415C16.8237 60.2937 11.6287 55.9662 8.43247 50.4487C6.12372 46.4975 4.84747 41.9525 4.75372 37.3787C4.61372 32.2037 6.01247 27.005 8.70622 22.5862ZM10.375 27.5675C7.98622 33.1012 7.87122 39.5625 10.06 45.1787C11.575 49.1187 14.1825 52.6275 17.505 55.23C20.215 57.3625 23.3987 58.8912 26.7625 59.6562C31.5325 60.7512 36.6437 60.3162 41.1487 58.3937C45.55 56.5387 49.3425 53.2962 51.89 49.2587C50.845 48.705 49.7962 48.1575 48.745 47.615L31.2312 38.4637C29.9987 37.8175 28.765 37.1737 27.53 36.5325L19.845 32.5125C18.4105 31.7645 16.9767 31.0151 15.543 30.2656C13.8208 29.3654 12.0987 28.4651 10.375 27.5675Z" fill="#CFE3E0"/>
<path d="M23.8712 37.61C25.17 37.6575 26.4375 37.2112 27.53 36.5325L19.845 32.5125C19.6231 32.9791 19.4007 33.4452 19.1784 33.9112L19.1774 33.9133C18.9153 34.4627 18.6533 35.0118 18.3925 35.5612C20.0475 36.6012 21.8762 37.5475 23.8712 37.61Z" fill="#CFE3E0"/>
<path d="M46.5712 50.7062C47.5387 49.8775 48.2787 48.7987 48.745 47.615L31.2312 38.4637C29.2862 40.04 26.9362 41.2762 24.3875 41.3537C21.6562 41.4737 19.0625 40.3512 16.7675 38.97C16.0712 40.56 15.0775 42.065 14.8387 43.8162C14.5637 45.6762 15.0275 47.625 16.0825 49.1787C17.1537 50.7825 18.8475 51.9587 20.735 52.3737C21.6825 52.5975 22.6612 52.5675 23.6275 52.5662C29.585 52.565 35.5425 52.5712 41.5012 52.5637C43.3412 52.5762 45.1812 51.9175 46.5712 50.7062Z" fill="#CFE3E0"/>
<path d="M36.376 33.7498C37.3672 32.9573 38.4797 32.2448 39.7472 32.0148C41.3735 31.7198 43.0247 32.2911 44.4172 33.1011C45.4935 35.2423 46.491 37.4286 47.536 39.5873C43.8185 37.6373 40.096 35.6961 36.376 33.7498Z" fill="#CFE3E0"/>
</g>
<defs>
<clipPath id="clip0_339_390">
<rect width="64" height="64" fill="white"/>
</clipPath>
</defs>
</svg>
