<svg width="63" height="64" viewBox="0 0 63 64" fill="none" xmlns="http://www.w3.org/2000/svg">
<g clipPath="url(#clip0_434_2101)">
<path d="M44.5825 13.2817C44.6601 10.4855 40.2329 10.4855 40.2329 13.2817C40.1553 16.0778 44.5825 16.0778 44.5825 13.2817Z" fill="#CFE3E0"/>
<path d="M32.5437 64.0001C31.2234 64.0001 29.903 63.9224 28.5049 63.8448C16.2331 62.6797 6.29132 56.3108 2.56316 47.3011C-4.58247 29.9807 5.51462 18.2525 5.90297 17.7088C6.21365 17.3982 6.602 17.2428 7.06802 17.2428C7.53404 17.3205 7.92239 17.5535 8.07773 17.9419C11.5729 23.9224 18.4855 28.5826 25.9418 25.7088C21.3593 18.3302 23.3787 12.1943 25.0874 9.16515C28.4272 3.33991 35.4175 -0.388244 42.0971 0.000105378C45.5923 0.233115 51.7282 1.86418 55.3787 9.5535C57.6311 8.07778 59.1845 8.38846 60.0389 8.7768C61.5923 9.47583 62.5243 11.1846 62.602 13.3593C62.6797 16.6215 60.7379 20.8156 56.3107 23.3787C63.8447 37.8254 61.3593 47.1457 57.8641 52.505C53.2039 59.7283 43.4952 64.0001 32.5437 64.0001ZM6.83501 20.971C4.50491 24.4661 -0.155283 33.7088 5.0486 46.2137C8.38841 54.2914 17.4758 59.9613 28.8156 61.0486C40.3884 62.136 50.8738 58.1749 55.6117 50.9516C60.1942 44.0389 59.3399 34.4855 53.2816 23.4564C53.1263 23.1457 53.0486 22.7574 53.2039 22.369C53.2816 21.9807 53.5923 21.7477 53.903 21.5923C58.0971 19.5729 59.9612 16.0778 59.9612 13.437C59.9612 12.3496 59.5729 11.5729 59.0292 11.3399C58.4855 11.1069 57.3204 11.3399 55.767 12.8156C55.4564 13.1263 54.9903 13.204 54.5243 13.1263C54.0583 13.0487 53.7476 12.738 53.5923 12.272C51.3399 6.52438 47.2234 3.1069 41.9418 2.71855C36.2719 2.3302 30.2913 5.51467 27.5729 10.4855C25.0098 15.1457 25.5535 20.4273 29.1263 25.4758C29.3593 25.7865 29.4369 26.1749 29.3593 26.5632C29.2816 26.9516 29.0486 27.2622 28.6603 27.4176C19.8059 32.0778 11.4952 27.4953 6.83501 20.971Z" fill="#CFE3E0"/>
<path d="M35.1068 52.505C26.8738 52.505 18.0194 47.2234 15.767 37.0487C15.6893 36.5827 15.8446 36.039 16.233 35.7283C16.6213 35.4176 17.0874 35.3399 17.5534 35.4953C17.6311 35.4953 24.6213 37.9807 31.8446 35.2623C36.4272 33.4759 41.165 32.0778 44.6602 33.7865C46.3689 34.6409 47.6116 36.1943 48.233 38.3691C49.5534 45.437 45.7476 50.7962 38.6796 52.1943C37.4369 52.4273 36.2718 52.505 35.1068 52.505ZM19.0291 38.6797C22.0582 47.1458 30.9126 50.9516 38.1359 49.5535C40.233 49.1652 47.0679 47.1458 45.5922 38.9904C45.2039 37.67 44.5048 36.738 43.4175 36.1943C40.5437 34.7962 35.3398 36.8157 32.7767 37.7477C27.2621 39.8448 21.9806 39.3011 19.0291 38.6797Z" fill="#CFE3E0"/>
</g>
<defs>
<clipPath id="clip0_434_2101">
<rect width="62.6796" height="64" fill="white"/>
</clipPath>
</defs>
</svg>
