<svg width="64" height="64" viewBox="0 0 64 64" fill="none" xmlns="http://www.w3.org/2000/svg">
<g clip-path="url(#clip0_339_395)">
<path d="M16.7702 0H47.2027C48.119 0.1125 48.884 0.93125 48.8715 1.86375C48.8802 11.2838 48.8727 20.705 48.8752 30.125C37.6252 30.125 26.3752 30.125 15.1252 30.125C15.1265 20.705 15.1215 11.2862 15.1277 1.8675C15.1115 0.94125 15.8677 0.13375 16.7702 0ZM30.2765 6.755C27.8865 11.5312 25.499 16.31 23.1102 21.0875C22.9115 21.4937 22.6552 21.8962 22.6352 22.3625C22.559 23.21 23.139 24.0625 23.9602 24.2938C24.7815 24.5575 25.7465 24.1587 26.144 23.3937C26.619 22.4762 27.0677 21.5462 27.5352 20.6262C30.5115 20.6237 33.489 20.625 36.4665 20.6262C36.919 21.525 37.3627 22.4275 37.8177 23.325C38.0877 23.8788 38.6415 24.28 39.254 24.3563C39.9415 24.4575 40.664 24.13 41.0452 23.55C41.4415 22.9825 41.469 22.1987 41.1427 21.5912C38.714 16.7325 36.2815 11.875 33.8577 7.015C33.5927 6.3775 33.0577 5.82375 32.364 5.685C31.5227 5.49125 30.6477 6.00375 30.2765 6.755Z" fill="#DFECEA"/>
<path d="M29.4102 16.8739C30.2852 15.1614 31.1014 13.4152 32.0152 11.7227C32.8727 13.4402 33.7327 15.1564 34.5902 16.8739C32.8627 16.8752 31.1364 16.8752 29.4102 16.8739Z" fill="#DFECEA"/>
<path d="M33.875 33.8749C43.0413 33.8736 52.2075 33.8761 61.3737 33.8736C61.895 33.8799 62.45 33.8161 62.9325 34.0636C63.515 34.3236 63.8862 34.9099 64 35.5236V62.2886C63.9125 63.1674 63.185 63.8986 62.3088 63.9999H33.875C33.875 53.9586 33.875 43.9174 33.875 33.8749ZM47.5575 39.5924C44.1212 40.0449 41.0787 42.5799 39.995 45.8686C39.2425 48.0699 39.3538 50.5524 40.3063 52.6749C41.0725 54.4099 42.3862 55.8924 44.0037 56.8786C45.715 57.9311 47.7712 58.4024 49.7687 58.2061C51.9462 58.0099 54.0425 57.0124 55.5612 55.4386C56.2675 54.6936 56.1837 53.3836 55.3825 52.7411C54.645 52.1061 53.44 52.1861 52.7875 52.9074C51.4187 54.2711 49.3163 54.8161 47.4538 54.3124C45.725 53.8699 44.2525 52.5511 43.6237 50.8799C42.9925 49.2561 43.18 47.3411 44.1225 45.8749C44.9925 44.4886 46.4913 43.5161 48.115 43.3049C49.5913 43.0999 51.1462 43.5036 52.3162 44.4299C52.7112 44.7324 53.03 45.1549 53.5163 45.3224C54.3588 45.6574 55.4175 45.2724 55.825 44.4574C56.2013 43.7811 56.0862 42.8824 55.5662 42.3136C53.535 40.1924 50.4587 39.1624 47.5575 39.5924Z" fill="#CFE3E0"/>
<path d="M0 35.5465C0.11375 34.6327 0.93125 33.8652 1.86375 33.8777C11.2838 33.8715 20.7037 33.8765 30.125 33.8752C30.125 43.9177 30.125 53.959 30.125 64.0002H1.70875C0.8325 63.9115 0.1025 63.1877 0 62.314V35.5465ZM7.6275 41.3727C7.62375 46.3765 7.62375 51.379 7.6275 56.3827C7.61 57.379 8.5 58.2652 9.495 58.2477C11.9562 58.2527 14.4187 58.249 16.88 58.2502C18.0337 58.264 19.1937 57.934 20.1475 57.279C21.6012 56.309 22.5463 54.629 22.6138 52.8827C22.6963 51.4202 22.135 49.9652 21.1688 48.8752C21.7025 48.249 22.14 47.5327 22.3775 46.7415C22.905 45.0602 22.5587 43.1402 21.4875 41.744C20.45 40.349 18.7363 39.4915 16.9963 39.5027C14.495 39.4977 11.9938 39.499 9.4925 39.5027C8.49625 39.484 7.60625 40.3765 7.6275 41.3727Z" fill="#CFE3E0"/>
<path d="M11.375 43.2502C13.25 43.2514 15.125 43.2477 16.9988 43.2527C17.835 43.2427 18.6225 43.8577 18.815 44.6714C19.1425 45.7977 18.17 47.0277 17.0037 46.9977C15.1275 47.0039 13.2513 46.9989 11.375 47.0002C11.375 45.7502 11.375 44.5002 11.375 43.2502Z" fill="#CFE3E0"/>
<path d="M11.375 50.7502C13.2513 50.7514 15.1263 50.7477 17.0025 50.7527C17.8075 50.7464 18.5725 51.3152 18.7925 52.0914C19.0725 52.9439 18.6113 53.9489 17.7975 54.3139C17.4363 54.4989 17.0225 54.5077 16.625 54.5027C14.875 54.4964 13.125 54.5027 11.375 54.5002C11.375 53.2502 11.375 52.0002 11.375 50.7502Z" fill="#CFE3E0"/>
</g>
<defs>
<clipPath id="clip0_339_395">
<rect width="64" height="64" fill="white"/>
</clipPath>
</defs>
</svg>
