<svg width="64" height="64" viewBox="0 0 64 64" fill="none" xmlns="http://www.w3.org/2000/svg">
<g clip-path="url(#clip0_339_382)">
<path fill-rule="evenodd" clip-rule="evenodd" d="M41.3951 0H22.5951C21.8476 0.06 21.1726 0.5375 20.8563 1.215C20.261 2.40234 19.6667 3.59039 19.0724 4.77858C18.5524 5.81824 18.0323 6.85801 17.5113 7.8975C14.8201 8.96125 12.1288 10.0225 9.43635 11.0838C9.34846 11.1193 9.25971 11.1533 9.1709 11.1872C8.87574 11.3002 8.58002 11.4133 8.31385 11.5863C7.8301 11.9388 7.5201 12.5225 7.50635 13.1225C7.51708 13.4512 7.6001 13.7692 7.68298 14.0867C7.70632 14.1761 7.72965 14.2655 7.75135 14.355C8.26463 16.4014 8.77565 18.4485 9.28666 20.4957C9.91559 23.0152 10.5445 25.5346 11.1776 28.0525C11.2633 28.4227 11.2579 28.8021 11.2526 29.1798C11.2511 29.2868 11.2495 29.3936 11.2501 29.5C11.2501 32.2084 11.25 34.9168 11.2499 37.6252C11.2497 45.7518 11.2495 53.8784 11.2513 62.005L55.2538 11.3562C54.4609 11.0345 53.668 10.7124 52.8751 10.3904C50.7295 9.5189 48.5839 8.64741 46.4363 7.78125C45.8364 6.60136 45.2453 5.41684 44.6543 4.23226C44.1382 3.19804 43.6221 2.16378 43.1001 1.1325C42.7751 0.49125 42.1113 0.055 41.3951 0ZM22.5204 6.31731C22.692 5.97782 22.8636 5.63832 23.0351 5.29875C25.1738 7.86875 27.3113 10.44 29.4488 13.0125C28.9572 13.5083 28.4657 14.0042 27.9741 14.5C26.9911 15.4917 26.008 16.4833 25.0238 17.475C24.0885 15.6068 23.1555 13.738 22.2224 11.8691C21.8075 11.0381 21.3927 10.2072 20.9776 9.37625C21.4905 8.3552 22.0054 7.33625 22.5204 6.31731ZM34.5571 13.017L34.5526 13.0125C36.6888 10.44 38.8263 7.86875 40.9651 5.29875C41.1526 5.6699 41.3401 6.04096 41.5276 6.41201C42.0267 7.39931 42.5256 8.38649 43.0226 9.375C41.6751 12.0763 40.3276 14.7763 38.9763 17.475C37.5016 15.989 36.0293 14.503 34.5571 13.017ZM30.1255 21.8307C30.1263 20.4293 30.1271 19.0278 30.1251 17.6262C30.7488 17 31.3738 16.3763 32.0001 15.7513C32.0895 15.8405 32.1789 15.9297 32.2683 16.0189C32.8051 16.5544 33.3415 17.0896 33.8751 17.6275C33.8731 19.0106 33.8741 20.3937 33.875 21.7767C33.8765 23.8974 33.8779 26.0181 33.8688 28.1388C33.8951 29.1388 33.0001 30.0287 31.9988 29.9937C30.9988 30.0287 30.1038 29.1363 30.1313 28.1363C30.1231 26.0348 30.1243 23.9328 30.1255 21.8307Z" fill="#CFE3E0"/>
<path d="M52.7461 28.2472C52.7486 28.031 52.7686 27.816 52.8186 27.606L52.6298 61.376C52.6461 56.0594 52.6661 50.7425 52.6861 45.4257C52.7077 39.6994 52.7292 33.9731 52.7461 28.2472ZM53.7051 16.1879C53.5737 16.6965 53.4424 17.2052 53.3111 17.7138C52.5026 20.845 51.6944 23.9748 50.8827 27.1037L50.8776 27.1232L50.873 27.1427C50.7799 27.5336 50.7499 27.9027 50.7462 28.2241L50.7461 28.2327L50.7461 28.2413C50.7292 33.9729 50.7077 39.6943 50.6861 45.4167C50.6661 50.7306 50.6461 56.0453 50.6298 61.3698V61.376C50.6298 61.6656 50.5868 61.8408 50.5538 61.9332C50.544 61.9605 50.5345 61.9824 50.526 61.9997H13.9048L53.7051 16.1879Z" stroke="#CFE3E0" stroke-width="4"/>
<path d="M58.7624 19.6099C59.4887 21.7849 60.2124 23.9599 60.9361 26.1361C59.5286 26.6074 58.1212 27.0774 56.7124 27.5449C57.3937 24.8999 58.0762 22.2536 58.7624 19.6099Z" fill="#CFE3E0"/>
<path d="M5.21396 19.6802C5.87021 22.2877 6.51896 24.8977 7.17021 27.5064C5.80146 27.0514 4.43146 26.5939 3.06396 26.1364C3.77896 23.9839 4.49646 21.8327 5.21396 19.6802Z" fill="#CFE3E0"/>
<path d="M1.87625 29.6973C3.75125 30.3173 5.6225 30.9473 7.4975 31.5673C7.50375 34.2035 7.49875 36.8398 7.5 39.4748C5.44875 38.791 3.395 38.111 1.345 37.421C0.61625 37.2073 0.0875 36.541 0 35.791V35.4423C0.55625 33.5073 1.2575 31.6135 1.87625 29.6973Z" fill="#CFE3E0"/>
<path d="M56.5027 31.5675C58.3777 30.9475 60.2489 30.3175 62.1239 29.6963C62.7427 31.6088 63.4352 33.5 64.0002 35.4275V35.78C63.9189 36.4975 63.4377 37.1575 62.7439 37.3875C60.6677 38.0975 58.5814 38.7775 56.5002 39.4763C56.5014 36.84 56.4977 34.2038 56.5027 31.5675Z" fill="#CFE3E0"/>
</g>
<defs>
<clipPath id="clip0_339_382">
<rect width="64" height="64" fill="white"/>
</clipPath>
</defs>
</svg>
