<svg width="78" height="64" viewBox="0 0 78 64" fill="none" xmlns="http://www.w3.org/2000/svg">
<g clipPath="url(#clip0_434_2111)">
<path d="M68.9087 26.8596L76.5035 16.3936C77.0592 15.6527 77.2445 14.7265 77.0592 13.8003C76.874 12.8741 76.3183 12.1331 75.5773 11.5774L59.4616 1.01881C58.5354 0.370478 57.3313 0 56.2199 0H49.0882C47.421 0 46.0318 1.20405 45.8465 2.8712C45.1056 9.26194 39.3632 9.0767 38.437 9.0767C38.1591 9.0767 32.0462 9.44718 31.3053 2.8712C31.12 1.20405 29.7307 0 28.0636 0H21.0245C19.8205 0 18.709 0.370478 17.7828 0.926194L1.48183 11.5774C0.740872 12.0405 0.185156 12.8741 -8.29246e-05 13.8003C-0.185322 14.7265 0.0925365 15.6527 0.555633 16.3936L8.24304 26.8596C9.26186 28.2489 11.2995 28.712 12.7814 27.7858L16.1157 25.7482V60.5731C16.1157 62.5181 17.6902 64.0926 19.6352 64.0926H57.5166C59.4616 64.0926 61.0361 62.5181 61.0361 60.5731V25.6556L64.3704 27.6932C65.8523 28.712 67.8899 28.2489 68.9087 26.8596ZM58.0723 60.4805C58.0723 60.7583 57.7944 61.0362 57.5166 61.0362H19.6352C19.3574 61.0362 19.0795 60.7583 19.0795 60.4805V23.2475C19.0795 23.1549 19.1721 23.0622 19.1721 22.9696V19.0796C19.1721 18.246 18.5238 17.5977 17.6902 17.5977C16.8566 17.5977 16.2083 18.246 16.2083 19.0796V22.136L11.1142 25.1925C10.929 25.2851 10.7438 25.2851 10.6511 25.0999L3.05636 14.6339L3.14898 14.1708L19.3574 3.51954C19.8205 3.24168 20.3762 3.05644 20.9319 3.05644H27.971C28.0636 3.05644 28.2488 3.14906 28.2488 3.24168C29.175 10.7439 35.3805 12.3184 38.437 12.0405C41.6786 12.2258 47.8841 10.6512 48.8103 3.24168C48.8103 3.14906 48.903 3.05644 49.0882 3.05644H56.1273C56.683 3.05644 57.2387 3.24168 57.7018 3.51954L73.9102 14.1708C73.9102 14.1708 74.188 14.4486 74.0028 14.6339L66.408 25.0999C66.3154 25.2851 66.1302 25.2851 65.9449 25.1925L61.0361 22.136V19.0796C61.0361 18.246 60.3878 17.5977 59.5542 17.5977C58.7206 17.5977 58.0723 18.246 58.0723 19.0796V22.9696V60.4805V60.4805Z" fill="#CFE3E0"/>
<path d="M46.4023 21.6728C47.2359 21.6728 47.8842 21.0245 47.8842 20.1909V17.4123C47.8842 16.5788 47.2359 15.9304 46.4023 15.9304C45.5687 15.9304 44.9204 16.5788 44.9204 17.4123V20.1909C44.9204 20.9319 45.5687 21.6728 46.4023 21.6728Z" fill="#CFE3E0"/>
<path d="M46.4023 24.3589C45.5687 24.3589 44.9204 25.0072 44.9204 25.8408V28.6194C44.9204 29.453 45.5687 30.1013 46.4023 30.1013C47.2359 30.1013 47.8842 29.453 47.8842 28.6194V25.8408C47.8842 25.0072 47.2359 24.3589 46.4023 24.3589Z" fill="#CFE3E0"/>
<path d="M52.052 21.395H49.2734C48.4398 21.395 47.7915 22.0434 47.7915 22.8769C47.7915 23.7105 48.4398 24.3588 49.2734 24.3588H52.052C52.8856 24.3588 53.5339 23.7105 53.5339 22.8769C53.5339 22.0434 52.8856 21.395 52.052 21.395Z" fill="#CFE3E0"/>
<path d="M43.4384 21.395H40.7524C39.9188 21.395 39.2705 22.0434 39.2705 22.8769C39.2705 23.7105 39.9188 24.3588 40.7524 24.3588H43.4384C44.272 24.3588 44.9203 23.7105 44.9203 22.8769C44.9203 22.0434 44.272 21.395 43.4384 21.395Z" fill="#CFE3E0"/>
<path d="M70.0202 31.5833C69.1867 31.5833 68.5383 32.2316 68.5383 33.0652V35.8437C68.5383 36.6773 69.1867 37.3257 70.0202 37.3257C70.8538 37.3257 71.5021 36.6773 71.5021 35.8437V33.0652C71.5021 32.3242 70.8538 31.5833 70.0202 31.5833Z" fill="#CFE3E0"/>
<path d="M70.0202 40.3821C69.1867 40.3821 68.5383 41.0304 68.5383 41.864V44.3647C68.5383 45.1983 69.1867 45.8466 70.0202 45.8466C70.8538 45.8466 71.5021 45.1983 71.5021 44.3647V41.864C71.5021 41.0304 70.8538 40.3821 70.0202 40.3821Z" fill="#CFE3E0"/>
<path d="M75.5775 37.2329H72.9841C72.1505 37.2329 71.5022 37.8812 71.5022 38.7148C71.5022 39.5484 72.1505 40.1967 72.9841 40.1967H75.5775C76.411 40.1967 77.0594 39.5484 77.0594 38.7148C77.0594 37.8812 76.411 37.2329 75.5775 37.2329Z" fill="#CFE3E0"/>
<path d="M66.7784 37.2329H64.3703C63.5368 37.2329 62.8884 37.8812 62.8884 38.7148C62.8884 39.5484 63.5368 40.1967 64.3703 40.1967H66.7784C67.612 40.1967 68.2603 39.5484 68.2603 38.7148C68.2603 37.8812 67.612 37.2329 66.7784 37.2329Z" fill="#CFE3E0"/>
</g>
<defs>
<clipPath id="clip0_434_2111">
<rect width="77.152" height="64" fill="white"/>
</clipPath>
</defs>
</svg>
