<svg width="64" height="64" viewBox="0 0 64 64" fill="none" xmlns="http://www.w3.org/2000/svg">
<path d="M47.1763 5.56465C49.4088 4.46965 51.89 3.8909 54.375 3.8759C55.6688 3.8734 56.9625 3.8734 58.2563 3.8759C58.99 3.87465 59.6988 4.34465 59.9738 5.0259C60.2013 5.5334 60.1063 6.1009 60.0975 6.63715C59.9163 10.3746 58.4263 14.0246 55.9588 16.8346C53.335 19.8584 49.6063 21.9034 45.6363 22.4521C44.2263 22.6684 42.7963 22.6196 41.3763 22.6246C41.375 23.9184 41.3738 25.2109 41.3763 26.5034C44.905 26.8934 48.3038 28.4171 50.91 30.8346C52.3313 32.1334 53.5075 33.6896 54.4113 35.3884C52.5713 37.3709 50.7225 39.3471 48.8788 41.3271C48.8538 39.2609 47.9488 37.2209 46.4125 35.8384C45.0563 34.5884 43.225 33.8772 41.3825 33.8759C40.205 33.8734 39.0275 33.8747 37.8513 33.8759C35.4238 31.8972 32.5575 30.4847 29.5375 29.6722C31.895 27.9334 34.72 26.8672 37.6238 26.5272C37.6263 25.2259 37.625 23.9259 37.625 22.6246C36.3713 22.6121 35.1113 22.6784 33.8675 22.4859C31.0013 22.0784 28.2913 20.6784 26.2925 18.5859C23.9288 16.1496 22.5688 12.7621 22.6325 9.36465C22.6813 8.41715 23.545 7.61215 24.4925 7.6259C26.1238 7.6434 27.7588 7.57465 29.3888 7.6784C33.37 7.99215 37.0925 10.2909 39.25 13.6359C40.88 10.1521 43.7163 7.24715 47.1763 5.56465Z" fill="#CFE3E0"/>
<path d="M15.4213 34.5323C18.145 33.1698 21.2025 32.4798 24.2488 32.571C28.44 32.6785 32.5775 34.2673 35.7475 37.0148C36.1575 37.391 36.6787 37.6835 37.2525 37.6635C38.5037 37.5873 39.7563 37.641 41.0088 37.6235C41.6875 37.6035 42.3812 37.691 42.995 37.9998C44.3475 38.636 45.2313 40.1348 45.1138 41.6298C45.045 43.086 44.0137 44.426 42.6325 44.8835C41.87 45.166 41.0475 45.091 40.2513 45.0998C36.2088 45.1135 32.165 45.1148 28.1213 45.1073C27.135 45.051 26.24 45.8973 26.1912 46.8748C26.0962 47.9373 27.05 48.9348 28.1175 48.8823C33.495 48.886 38.8725 48.8798 44.2487 48.8848C45.7962 48.8773 47.3987 48.381 48.4875 47.2373C51.6987 43.861 54.885 40.4598 58.095 37.0798C59.0588 36.0823 60.6475 35.791 61.9125 36.3498C63.07 36.8323 63.8662 37.9935 64 39.2285V39.8898C63.9062 40.996 63.5138 42.0773 62.8363 42.961C58.8525 48.226 54.8625 53.4873 50.8763 58.751C50.6213 59.0773 50.3988 59.436 50.0838 59.7098C49.68 60.046 49.1362 60.131 48.6275 60.1173C41.6687 60.111 34.7113 60.1248 27.7525 60.111C24.37 60.1035 20.9938 59.4223 17.87 58.121C15.3125 57.0148 12.5413 56.3923 9.75125 56.3698C7.1225 56.3585 4.4925 56.3748 1.86375 56.3623C0.955 56.3735 0.13875 55.6635 0 54.7698V39.3435C0.10875 38.4235 0.92125 37.6273 1.86375 37.6423C4.16125 37.6423 6.4575 37.6398 8.755 37.6435C9.1025 37.6723 9.39875 37.4623 9.7 37.3235C11.6025 36.386 13.5163 35.4673 15.4213 34.5323Z" fill="#DFECEA"/>
</svg>
