<svg width="79" height="64" viewBox="0 0 79 64" fill="none" xmlns="http://www.w3.org/2000/svg">
<g clipPath="url(#clip0_434_2124)">
<path d="M77.3112 3.17362C76.6942 2.90916 61.6198 -2.55641 48.3085 1.41053C39.0523 4.23147 35.2616 9.69704 33.6749 13.8403C31.6473 19.394 32.2644 25.8293 35.438 30.8541C35.5261 31.0304 35.7024 31.1185 35.7906 31.2948C33.8512 34.9092 32.1762 39.0524 31.1184 43.7246C30.5013 42.1378 29.7079 40.551 28.7382 39.1406C30.5013 37.3775 31.5592 34.9092 31.5592 32.0001C31.5592 27.7687 29.6198 23.5373 26.1818 20.4519C16.7493 11.9009 1.93933 14.1929 1.32225 14.2811C0.617018 14.3692 0.088092 14.9863 -6.22212e-05 15.6915C-6.22212e-05 16.3086 -0.617142 31.0304 8.99167 39.4932C12.1652 42.3141 15.4269 43.7246 18.6886 43.7246C21.2451 43.7246 23.8016 42.843 26.3581 41.08C28.033 43.9009 29.2672 47.0744 29.8842 50.5125C29.8842 50.6006 29.9724 50.6006 29.9724 50.6888C29.6198 54.3913 29.5316 58.27 29.7961 62.5896C29.8842 63.383 30.5013 64.0001 31.2947 64.0001H31.3829C32.2644 63.9119 32.8815 63.2067 32.7933 62.3251C31.9118 50.0717 34.2038 40.6392 37.9063 33.4987C40.2864 35.4381 43.6363 36.7604 47.2506 37.113C47.8677 37.2012 48.5729 37.2012 49.3663 37.2012C54.0385 37.2012 61.3553 35.7025 68.6721 28.2094C77.8402 18.9532 78.2809 5.28932 78.3691 4.67224C78.3691 4.05516 77.9283 3.43808 77.3112 3.17362ZM11.0192 37.113C4.05503 30.9422 3.17349 20.6282 3.08534 17.0138C6.69966 16.6612 17.19 16.3968 24.0661 22.5676C26.7988 25.0359 28.4738 28.562 28.3856 31.8238C28.3856 33.675 27.7685 35.2618 26.7988 36.4959C25.3002 34.6447 23.6253 32.8816 21.5977 31.2948C20.8925 30.7659 19.9228 30.8541 19.3939 31.5593C18.865 32.2645 18.9531 33.2342 19.6583 33.7632C21.5096 35.1736 23.0964 36.7604 24.4187 38.5235C21.3333 40.8155 16.7492 42.1378 11.0192 37.113ZM66.5564 26.0056C58.887 33.8513 51.3939 34.3802 47.6032 34.0276C44.0771 33.675 41.2561 32.2645 39.493 30.7659C48.3966 16.0441 63.1184 11.9009 63.9999 11.6364C64.7933 11.372 65.3223 10.5786 65.0578 9.78519C64.8815 8.9918 63.9999 8.46288 63.2065 8.72734C62.9421 8.81549 47.4269 13.1351 37.5537 28.2976C35.438 24.3306 34.9972 19.2177 36.584 14.9863C38.4352 10.0497 42.7548 6.34717 49.19 4.49593C52.3636 3.52624 55.6253 3.17362 58.7988 3.17362C66.0275 3.17362 72.6391 5.02486 75.1074 5.81825C74.8429 9.07996 73.3443 19.1295 66.5564 26.0056Z" fill="#CFE3E0"/>
</g>
<defs>
<clipPath id="clip0_434_2124">
<rect width="78.3691" height="64" fill="white"/>
</clipPath>
</defs>
</svg>
