<?xml version="1.0" encoding="UTF-8" ?>
<!DOCTYPE svg PUBLIC "-//W3C//DTD SVG 1.1//EN" "http://www.w3.org/Graphics/SVG/1.1/DTD/svg11.dtd">
<svg width="512pt" height="512pt" viewBox="0 0 512 512" version="1.1" xmlns="http://www.w3.org/2000/svg">
<g id="#da9c61ff">
<path fill="#da9c61" opacity="1.00" d=" M 220.96 16.01 C 232.60 14.10 244.14 11.47 255.92 10.49 C 274.63 8.76 293.58 10.22 311.87 14.46 C 339.99 21.02 366.38 33.01 393.30 43.16 C 387.42 44.94 383.34 50.19 382.30 56.14 C 380.69 60.92 381.86 65.84 382.64 70.63 C 367.37 63.44 349.57 61.15 333.14 65.39 C 328.86 66.33 325.71 70.68 326.18 75.04 C 326.46 80.64 332.56 84.84 337.91 83.07 C 354.25 79.22 372.17 83.47 385.39 93.71 C 388.66 96.19 391.47 100.12 395.99 100.07 C 402.27 100.47 406.97 93.49 404.84 87.69 C 409.62 89.12 414.61 90.30 419.63 89.58 C 424.94 88.82 430.23 87.80 435.41 86.38 C 440.38 85.05 444.27 81.14 446.36 76.53 C 448.21 78.88 449.70 81.48 450.84 84.25 C 466.96 119.09 472.49 157.47 479.00 194.97 C 481.08 207.73 483.60 220.45 484.56 233.36 C 485.83 250.92 485.25 268.59 482.86 286.02 C 473.94 283.03 463.61 279.90 454.69 284.60 C 447.16 288.69 439.92 293.79 434.48 300.48 C 427.85 308.76 427.99 320.05 429.03 330.06 C 429.46 335.50 434.08 339.49 439.12 340.81 C 444.64 342.33 450.24 344.47 456.05 344.00 C 459.59 343.56 463.00 342.39 466.27 341.00 C 455.99 363.47 440.45 383.71 420.84 398.82 C 416.45 401.94 412.28 405.52 407.20 407.49 C 402.29 404.11 396.73 401.73 391.12 399.80 C 386.22 398.15 380.70 398.57 376.22 401.18 C 370.45 404.44 364.71 408.60 361.71 414.69 C 358.85 420.81 359.61 427.80 360.78 434.24 L 360.91 434.92 C 352.27 439.12 344.10 444.19 335.61 448.67 C 318.01 457.73 300.16 466.80 280.87 471.72 C 270.15 474.62 259.08 475.77 248.04 476.68 C 227.55 478.16 206.74 474.75 187.74 466.99 C 194.25 459.23 195.92 448.50 194.44 438.71 C 193.17 430.88 192.53 422.58 188.36 415.63 C 186.39 412.11 182.60 410.35 179.01 408.94 C 173.23 406.64 167.47 403.33 161.03 403.78 C 155.33 404.26 149.46 405.40 144.64 408.66 C 140.11 411.69 135.36 414.56 131.68 418.63 C 127.66 423.09 126.09 429.19 125.93 435.07 C 125.31 435.71 124.69 436.36 124.08 437.01 C 103.27 425.88 82.41 414.63 63.32 400.67 C 60.90 398.79 58.45 396.79 55.34 396.23 C 44.91 384.91 35.55 372.52 28.39 358.86 C 18.60 340.53 12.79 320.30 9.76 299.81 C 15.73 306.17 24.13 309.03 32.09 311.97 C 37.10 313.76 42.89 313.29 47.45 310.49 C 51.71 308.12 54.22 303.76 56.81 299.80 C 59.20 295.99 61.47 291.62 60.81 286.97 C 60.25 284.11 59.03 281.43 57.91 278.75 C 72.88 291.58 91.54 300.14 111.18 302.32 C 133.97 305.03 157.66 299.47 176.74 286.70 C 196.72 273.53 211.58 252.81 217.54 229.62 C 223.33 207.49 221.09 183.34 211.18 162.71 C 201.29 141.85 183.79 124.70 162.69 115.31 C 141.96 105.98 117.94 104.26 96.07 110.43 C 73.33 116.73 53.16 131.64 40.34 151.42 C 28.32 169.73 22.84 192.16 24.92 213.95 C 26.25 229.27 31.46 244.12 39.50 257.19 C 32.56 255.70 26.29 251.38 19.01 251.58 C 14.29 251.68 10.33 254.62 6.94 257.62 C 6.96 236.40 7.48 215.11 10.44 194.06 C 13.08 175.29 17.98 156.64 26.75 139.75 C 34.58 124.44 45.55 110.86 58.24 99.32 C 60.59 99.96 63.14 100.45 65.48 99.48 C 68.41 98.25 70.42 95.66 72.90 93.77 C 82.81 85.97 95.39 81.77 107.97 81.57 C 108.96 84.23 109.66 87.17 111.80 89.19 C 114.77 92.13 118.97 93.13 122.86 94.23 C 127.46 95.44 132.23 96.89 137.02 95.93 C 145.85 94.35 153.34 88.81 159.58 82.63 C 164.43 77.78 169.70 73.00 172.62 66.68 C 174.38 63.07 173.23 59.02 172.63 55.30 C 171.88 51.45 171.38 47.29 168.84 44.14 C 165.61 40.20 161.13 37.26 156.15 36.12 C 161.88 33.07 167.75 30.27 173.80 27.91 C 188.92 21.88 205.01 18.95 220.96 16.01 M 240.37 35.42 C 232.24 41.89 224.32 48.65 216.28 55.24 C 214.22 56.65 213.63 59.72 215.29 61.67 C 216.84 63.80 220.14 63.86 221.97 62.05 C 229.65 55.74 237.32 49.41 244.97 43.07 C 246.51 41.89 247.76 39.97 247.13 37.96 C 246.52 35.11 242.71 33.52 240.37 35.42 M 321.55 107.81 C 302.03 110.63 283.48 119.57 269.06 133.01 C 253.23 147.64 242.42 167.62 239.01 188.91 C 235.32 211.13 239.52 234.58 250.90 254.04 C 264.17 277.07 287.19 294.32 313.12 300.31 C 335.27 305.66 359.28 302.92 379.63 292.67 C 400.11 282.51 416.75 264.91 425.81 243.93 C 434.97 222.98 436.40 198.80 429.85 176.90 C 422.53 151.95 404.77 130.29 381.76 118.19 C 363.49 108.40 342.04 104.82 321.55 107.81 M 466.39 223.53 C 460.68 231.22 455.97 239.65 450.60 247.59 C 449.31 249.82 446.91 252.22 448.17 254.99 C 449.30 258.09 454.06 258.70 455.82 255.84 C 461.18 247.85 466.20 239.64 471.49 231.62 C 472.51 229.88 474.09 227.97 473.36 225.82 C 472.67 222.90 468.67 221.53 466.39 223.53 M 175.48 315.63 C 171.83 316.68 169.02 320.18 168.93 323.99 C 168.73 332.01 170.96 340.07 175.24 346.86 C 182.08 357.82 193.79 364.82 205.94 368.44 C 224.21 373.72 244.48 372.77 261.82 364.77 C 273.17 359.50 283.28 350.31 287.30 338.21 C 288.89 333.34 289.79 328.15 289.38 323.02 C 288.77 318.21 283.85 314.57 279.07 315.35 C 274.41 315.86 270.89 320.33 271.09 324.96 C 270.98 331.02 268.53 336.96 264.23 341.24 C 257.60 347.97 248.25 351.17 239.10 352.60 C 227.05 354.31 214.30 353.11 203.28 347.73 C 196.43 344.37 190.26 338.66 188.22 331.11 C 187.19 327.86 187.66 324.36 186.64 321.12 C 185.07 316.76 179.89 314.23 175.48 315.63 M 86.15 357.05 C 83.70 358.34 83.07 361.94 85.06 363.92 C 91.41 371.21 97.95 378.34 104.30 385.64 C 105.72 387.25 107.52 389.25 109.94 388.61 C 113.11 388.10 114.71 383.78 112.44 381.43 C 105.83 373.74 98.97 366.27 92.27 358.68 C 90.88 356.81 88.29 355.78 86.15 357.05 M 421.14 360.23 C 412.43 361.92 403.67 363.37 394.97 365.10 C 391.47 365.38 389.95 370.20 392.49 372.54 C 394.16 374.45 396.82 373.73 398.99 373.37 C 408.31 371.53 417.69 370.03 426.99 368.13 C 430.44 367.76 431.88 362.93 429.31 360.66 C 427.09 358.40 423.80 359.93 421.14 360.23 Z" />
</g>
<g id="#ae794dff">
<path fill="#ae794d" opacity="1.00" d=" M 139.80 34.78 C 145.27 33.50 150.79 35.04 156.15 36.12 C 161.13 37.26 165.61 40.20 168.84 44.14 C 171.38 47.29 171.88 51.45 172.63 55.30 C 173.23 59.02 174.38 63.07 172.62 66.68 C 169.70 73.00 164.43 77.78 159.58 82.63 C 153.34 88.81 145.85 94.35 137.02 95.93 C 132.23 96.89 127.46 95.44 122.86 94.23 C 118.97 93.13 114.77 92.13 111.80 89.19 C 109.66 87.17 108.96 84.23 107.97 81.57 C 112.74 81.45 117.43 82.41 122.09 83.29 C 126.65 84.01 131.27 80.52 132.06 76.01 C 133.08 71.48 130.06 66.54 125.55 65.42 C 120.10 63.94 114.45 63.36 108.82 63.23 C 110.60 56.20 115.13 50.22 120.76 45.78 C 126.52 41.26 132.53 36.50 139.80 34.78 Z" />
<path fill="#ae794d" opacity="1.00" d=" M 393.30 43.16 C 400.89 40.97 408.73 38.93 416.69 39.91 C 419.41 47.83 425.27 54.07 430.76 60.18 C 436.05 65.25 440.78 70.96 446.68 75.36 C 446.60 75.65 446.44 76.24 446.36 76.53 C 444.27 81.14 440.38 85.05 435.41 86.38 C 430.23 87.80 424.94 88.82 419.63 89.58 C 414.61 90.30 409.62 89.12 404.84 87.69 C 399.60 79.78 390.92 74.86 382.64 70.63 C 381.86 65.84 380.69 60.92 382.30 56.14 C 383.34 50.19 387.42 44.94 393.30 43.16 Z" />
<path fill="#ae794d" opacity="1.00" d=" M 6.94 257.62 C 10.33 254.62 14.29 251.68 19.01 251.58 C 26.29 251.38 32.56 255.70 39.50 257.19 C 44.65 265.15 50.91 272.36 57.91 278.75 C 59.03 281.43 60.25 284.11 60.81 286.97 C 61.47 291.62 59.20 295.99 56.81 299.80 C 54.22 303.76 51.71 308.12 47.45 310.49 C 42.89 313.29 37.10 313.76 32.09 311.97 C 24.13 309.03 15.73 306.17 9.76 299.81 C 5.03 291.77 1.39 282.88 0.00 273.62 L 0.00 269.81 C 0.66 265.00 3.48 260.88 6.94 257.62 Z" />
<path fill="#ae794d" opacity="1.00" d=" M 454.69 284.60 C 463.61 279.90 473.94 283.03 482.86 286.02 C 483.05 286.16 483.43 286.42 483.62 286.55 C 482.36 287.66 481.04 288.76 480.31 290.31 C 476.11 298.27 472.54 306.62 470.40 315.39 C 468.37 323.60 466.56 332.02 467.02 340.53 C 466.83 340.65 466.46 340.88 466.27 341.00 C 463.00 342.39 459.59 343.56 456.05 344.00 C 450.24 344.47 444.64 342.33 439.12 340.81 C 434.08 339.49 429.46 335.50 429.03 330.06 C 427.99 320.05 427.85 308.76 434.48 300.48 C 439.92 293.79 447.16 288.69 454.69 284.60 Z" />
<path fill="#ae794d" opacity="1.00" d=" M 376.22 401.18 C 380.70 398.57 386.22 398.15 391.12 399.80 C 396.73 401.73 402.29 404.11 407.20 407.49 L 407.93 408.02 C 402.80 411.28 396.46 411.38 391.08 414.10 C 379.66 418.63 370.18 426.56 360.78 434.24 C 359.61 427.80 358.85 420.81 361.71 414.69 C 364.71 408.60 370.45 404.44 376.22 401.18 Z" />
<path fill="#ae794d" opacity="1.00" d=" M 144.64 408.66 C 149.46 405.40 155.33 404.26 161.03 403.78 C 167.47 403.33 173.23 406.64 179.01 408.94 C 182.60 410.35 186.39 412.11 188.36 415.63 C 192.53 422.58 193.17 430.88 194.44 438.71 C 195.92 448.50 194.25 459.23 187.74 466.99 L 187.32 467.38 C 170.31 451.77 148.45 441.87 125.78 437.95 C 125.82 437.23 125.89 435.79 125.93 435.07 C 126.09 429.19 127.66 423.09 131.68 418.63 C 135.36 414.56 140.11 411.69 144.64 408.66 Z" />
</g>
<g id="#feef9eff">
<path fill="#feef9e" opacity="1.00" d=" M 240.37 35.42 C 242.71 33.52 246.52 35.11 247.13 37.96 C 247.76 39.97 246.51 41.89 244.97 43.07 C 237.32 49.41 229.65 55.74 221.97 62.05 C 220.14 63.86 216.84 63.80 215.29 61.67 C 213.63 59.72 214.22 56.65 216.28 55.24 C 224.32 48.65 232.24 41.89 240.37 35.42 Z" />
<path fill="#feef9e" opacity="1.00" d=" M 466.39 223.53 C 468.67 221.53 472.67 222.90 473.36 225.82 C 474.09 227.97 472.51 229.88 471.49 231.62 C 466.20 239.64 461.18 247.85 455.82 255.84 C 454.06 258.70 449.30 258.09 448.17 254.99 C 446.91 252.22 449.31 249.82 450.60 247.59 C 455.97 239.65 460.68 231.22 466.39 223.53 Z" />
<path fill="#feef9e" opacity="1.00" d=" M 86.15 357.05 C 88.29 355.78 90.88 356.81 92.27 358.68 C 98.97 366.27 105.83 373.74 112.44 381.43 C 114.71 383.78 113.11 388.10 109.94 388.61 C 107.52 389.25 105.72 387.25 104.30 385.64 C 97.95 378.34 91.41 371.21 85.06 363.92 C 83.07 361.94 83.70 358.34 86.15 357.05 Z" />
<path fill="#feef9e" opacity="1.00" d=" M 421.14 360.23 C 423.80 359.93 427.09 358.40 429.31 360.66 C 431.88 362.93 430.44 367.76 426.99 368.13 C 417.69 370.03 408.31 371.53 398.99 373.37 C 396.82 373.73 394.16 374.45 392.49 372.54 C 389.95 370.20 391.47 365.38 394.97 365.10 C 403.67 363.37 412.43 361.92 421.14 360.23 Z" />
</g>
<g id="#986842ff">
<path fill="#986842" opacity="1.00" d=" M 416.69 39.91 C 423.06 39.85 428.87 42.77 434.34 45.70 C 438.49 47.93 443.57 49.68 445.63 54.31 C 448.03 58.90 447.18 64.24 448.34 69.11 C 447.75 71.18 447.20 73.26 446.68 75.36 C 440.78 70.96 436.05 65.25 430.76 60.18 C 425.27 54.07 419.41 47.83 416.69 39.91 Z" />
<path fill="#986842" opacity="1.00" d=" M 480.31 290.31 C 481.04 288.76 482.36 287.66 483.62 286.55 C 486.83 289.26 490.51 292.03 491.69 296.27 C 492.85 300.42 493.56 304.69 494.06 308.97 C 494.60 314.35 490.93 318.87 487.67 322.73 C 481.46 329.38 475.12 336.17 467.02 340.53 C 466.56 332.02 468.37 323.60 470.40 315.39 C 472.54 306.62 476.11 298.27 480.31 290.31 Z" />
<path fill="#986842" opacity="1.00" d=" M 407.93 408.02 C 411.88 411.07 415.54 414.66 417.94 419.08 C 420.93 425.41 423.00 432.17 424.68 438.96 C 424.15 446.36 418.72 451.86 414.07 457.11 C 410.08 461.77 404.67 465.39 398.53 466.37 C 393.03 467.59 387.58 465.37 382.82 462.81 C 377.37 459.96 371.29 457.63 367.39 452.62 C 363.19 447.68 362.24 441.04 360.91 434.92 L 360.78 434.24 C 370.18 426.56 379.66 418.63 391.08 414.10 C 396.46 411.38 402.80 411.28 407.93 408.02 Z" />
<path fill="#986842" opacity="1.00" d=" M 125.78 437.95 C 148.45 441.87 170.31 451.77 187.32 467.38 C 183.68 470.41 179.62 472.88 175.70 475.52 C 171.05 478.64 165.63 481.13 159.92 480.78 C 154.59 480.21 149.94 477.28 145.43 474.62 C 139.53 471.00 133.49 467.01 129.82 460.99 C 127.43 457.28 126.37 452.94 125.63 448.65 C 125.48 445.08 125.63 441.51 125.78 437.95 Z" />
</g>
<g id="#000000ff">
<path fill="#000000" opacity="1.00" d=" M 56.56 83.59 C 70.49 70.38 89.70 63.23 108.82 63.23 C 114.45 63.36 120.10 63.94 125.55 65.42 C 130.06 66.54 133.08 71.48 132.06 76.01 C 131.27 80.52 126.65 84.01 122.09 83.29 C 117.43 82.41 112.74 81.45 107.97 81.57 C 95.39 81.77 82.81 85.97 72.90 93.77 C 70.42 95.66 68.41 98.25 65.48 99.48 C 63.14 100.45 60.59 99.96 58.24 99.32 C 52.39 96.36 51.24 87.63 56.56 83.59 Z" />
<path fill="#000000" opacity="1.00" d=" M 333.14 65.39 C 349.57 61.15 367.37 63.44 382.64 70.63 C 390.92 74.86 399.60 79.78 404.84 87.69 C 406.97 93.49 402.27 100.47 395.99 100.07 C 391.47 100.12 388.66 96.19 385.39 93.71 C 372.17 83.47 354.25 79.22 337.91 83.07 C 332.56 84.84 326.46 80.64 326.18 75.04 C 325.71 70.68 328.86 66.33 333.14 65.39 Z" />
<path fill="#000000" opacity="1.00" d=" M 117.55 132.82 C 132.74 129.79 148.88 131.60 162.93 138.16 C 178.21 145.16 190.88 157.65 198.20 172.77 C 205.08 186.83 207.20 203.10 204.31 218.47 C 201.12 235.79 191.40 251.78 177.54 262.63 C 155.85 280.14 123.92 283.36 99.15 270.59 C 84.14 263.11 71.87 250.30 65.02 235.00 C 56.92 217.15 56.45 196.01 63.73 177.81 C 72.58 155.02 93.55 137.48 117.55 132.82 M 112.11 142.21 C 94.25 147.81 79.20 161.88 71.90 179.05 C 69.91 184.08 73.54 190.22 78.85 191.03 C 82.84 191.92 87.14 189.65 88.83 185.97 C 94.45 173.75 105.11 163.72 117.96 159.54 C 121.81 158.16 124.30 153.92 123.71 149.89 C 123.22 144.49 117.28 140.54 112.11 142.21 Z" />
<path fill="#000000" opacity="1.00" d=" M 312.51 132.68 C 327.59 129.83 343.59 131.73 357.49 138.31 C 373.05 145.54 385.86 158.46 393.03 174.04 C 399.25 187.39 401.24 202.64 398.78 217.16 C 395.95 234.29 386.74 250.25 373.38 261.32 C 361.78 271.09 347.06 277.05 331.94 278.16 C 315.54 279.47 298.74 275.03 285.14 265.76 C 273.00 257.56 263.38 245.65 257.99 232.02 C 251.01 214.59 251.09 194.45 258.26 177.09 C 267.34 154.41 288.47 137.09 312.51 132.68 M 306.07 142.29 C 290.57 147.12 277.55 158.56 269.34 172.41 C 267.03 176.49 264.05 181.45 266.58 186.13 C 269.41 192.51 279.54 192.90 282.71 186.62 C 288.19 174.57 298.40 164.37 311.01 159.99 C 315.05 158.97 318.18 155.14 318.04 150.92 C 318.17 145.00 311.68 140.26 306.07 142.29 Z" />
<path fill="#000000" opacity="1.00" d=" M 175.48 315.63 C 179.89 314.23 185.07 316.76 186.64 321.12 C 187.66 324.36 187.19 327.86 188.22 331.11 C 190.26 338.66 196.43 344.37 203.28 347.73 C 214.30 353.11 227.05 354.31 239.10 352.60 C 248.25 351.17 257.60 347.97 264.23 341.24 C 268.53 336.96 270.98 331.02 271.09 324.96 C 270.89 320.33 274.41 315.86 279.07 315.35 C 283.85 314.57 288.77 318.21 289.38 323.02 C 289.79 328.15 288.89 333.34 287.30 338.21 C 283.28 350.31 273.17 359.50 261.82 364.77 C 244.48 372.77 224.21 373.72 205.94 368.44 C 193.79 364.82 182.08 357.82 175.24 346.86 C 170.96 340.07 168.73 332.01 168.93 323.99 C 169.02 320.18 171.83 316.68 175.48 315.63 Z" />
</g>
<g id="#c48b56ff">
<path fill="#c48b56" opacity="1.00" d=" M 446.68 75.36 C 447.20 73.26 447.75 71.18 448.34 69.11 C 469.06 86.93 480.82 112.65 488.67 138.31 C 496.45 163.95 500.82 190.44 505.32 216.81 C 508.06 232.63 510.90 248.46 512.00 264.51 L 512.00 288.55 C 509.97 323.74 500.49 359.11 480.68 388.59 C 470.55 403.79 457.71 417.21 442.77 427.74 C 437.00 431.90 430.79 435.35 424.68 438.96 C 423.00 432.17 420.93 425.41 417.94 419.08 C 415.54 414.66 411.88 411.07 407.93 408.02 L 407.20 407.49 C 412.28 405.52 416.45 401.94 420.84 398.82 C 440.45 383.71 455.99 363.47 466.27 341.00 C 466.46 340.88 466.83 340.65 467.02 340.53 C 475.12 336.17 481.46 329.38 487.67 322.73 C 490.93 318.87 494.60 314.35 494.06 308.97 C 493.56 304.69 492.85 300.42 491.69 296.27 C 490.51 292.03 486.83 289.26 483.62 286.55 C 483.43 286.42 483.05 286.16 482.86 286.02 C 485.25 268.59 485.83 250.92 484.56 233.36 C 483.60 220.45 481.08 207.73 479.00 194.97 C 472.49 157.47 466.96 119.09 450.84 84.25 C 449.70 81.48 448.21 78.88 446.36 76.53 C 446.44 76.24 446.60 75.65 446.68 75.36 Z" />
<path fill="#c48b56" opacity="1.00" d=" M 55.34 396.23 C 58.45 396.79 60.90 398.79 63.32 400.67 C 82.41 414.63 103.27 425.88 124.08 437.01 C 124.69 436.36 125.31 435.71 125.93 435.07 C 125.89 435.79 125.82 437.23 125.78 437.95 C 125.63 441.51 125.48 445.08 125.63 448.65 C 100.16 434.23 75.50 417.63 55.34 396.23 Z" />
<path fill="#c48b56" opacity="1.00" d=" M 335.61 448.67 C 344.10 444.19 352.27 439.12 360.91 434.92 C 362.24 441.04 363.19 447.68 367.39 452.62 C 371.29 457.63 377.37 459.96 382.82 462.81 C 355.32 477.94 327.44 494.19 296.09 499.61 C 276.25 502.78 255.68 503.81 235.99 499.14 C 214.85 494.24 195.13 484.91 175.70 475.52 C 179.62 472.88 183.68 470.41 187.32 467.38 L 187.74 466.99 C 206.74 474.75 227.55 478.16 248.04 476.68 C 259.08 475.77 270.15 474.62 280.87 471.72 C 300.16 466.80 318.01 457.73 335.61 448.67 Z" />
</g>
<g id="#ffffffff">
<path fill="#ffffff" opacity="1.00" d=" M 96.07 110.43 C 117.94 104.26 141.96 105.98 162.69 115.31 C 183.79 124.70 201.29 141.85 211.18 162.71 C 221.09 183.34 223.33 207.49 217.54 229.62 C 211.58 252.81 196.72 273.53 176.74 286.70 C 157.66 299.47 133.97 305.03 111.18 302.32 C 91.54 300.14 72.88 291.58 57.91 278.75 C 50.91 272.36 44.65 265.15 39.50 257.19 C 31.46 244.12 26.25 229.27 24.92 213.95 C 22.84 192.16 28.32 169.73 40.34 151.42 C 53.16 131.64 73.33 116.73 96.07 110.43 M 117.55 132.82 C 93.55 137.48 72.58 155.02 63.73 177.81 C 56.45 196.01 56.92 217.15 65.02 235.00 C 71.87 250.30 84.14 263.11 99.15 270.59 C 123.92 283.36 155.85 280.14 177.54 262.63 C 191.40 251.78 201.12 235.79 204.31 218.47 C 207.20 203.10 205.08 186.83 198.20 172.77 C 190.88 157.65 178.21 145.16 162.93 138.16 C 148.88 131.60 132.74 129.79 117.55 132.82 Z" />
<path fill="#ffffff" opacity="1.00" d=" M 321.55 107.81 C 342.04 104.82 363.49 108.40 381.76 118.19 C 404.77 130.29 422.53 151.95 429.85 176.90 C 436.40 198.80 434.97 222.98 425.81 243.93 C 416.75 264.91 400.11 282.51 379.63 292.67 C 359.28 302.92 335.27 305.66 313.12 300.31 C 287.19 294.32 264.17 277.07 250.90 254.04 C 239.52 234.58 235.32 211.13 239.01 188.91 C 242.42 167.62 253.23 147.64 269.06 133.01 C 283.48 119.57 302.03 110.63 321.55 107.81 M 312.51 132.68 C 288.47 137.09 267.34 154.41 258.26 177.09 C 251.09 194.45 251.01 214.59 257.99 232.02 C 263.38 245.65 273.00 257.56 285.14 265.76 C 298.74 275.03 315.54 279.47 331.94 278.16 C 347.06 277.05 361.78 271.09 373.38 261.32 C 386.74 250.25 395.95 234.29 398.78 217.16 C 401.24 202.64 399.25 187.39 393.03 174.04 C 385.86 158.46 373.05 145.54 357.49 138.31 C 343.59 131.73 327.59 129.83 312.51 132.68 Z" />
<path fill="#ffffff" opacity="1.00" d=" M 112.11 142.21 C 117.28 140.54 123.22 144.49 123.71 149.89 C 124.30 153.92 121.81 158.16 117.96 159.54 C 105.11 163.72 94.45 173.75 88.83 185.97 C 87.14 189.65 82.84 191.92 78.85 191.03 C 73.54 190.22 69.91 184.08 71.90 179.05 C 79.20 161.88 94.25 147.81 112.11 142.21 Z" />
<path fill="#ffffff" opacity="1.00" d=" M 306.07 142.29 C 311.68 140.26 318.17 145.00 318.04 150.92 C 318.18 155.14 315.05 158.97 311.01 159.99 C 298.40 164.37 288.19 174.57 282.71 186.62 C 279.54 192.90 269.41 192.51 266.58 186.13 C 264.05 181.45 267.03 176.49 269.34 172.41 C 277.55 158.56 290.57 147.12 306.07 142.29 Z" />
</g>
</svg>
