<?xml version="1.0" encoding="UTF-8" ?>
<!DOCTYPE svg PUBLIC "-//W3C//DTD SVG 1.1//EN" "http://www.w3.org/Graphics/SVG/1.1/DTD/svg11.dtd">
<svg width="512pt" height="512pt" viewBox="0 0 512 512" version="1.1" xmlns="http://www.w3.org/2000/svg">
<g id="#da9c61ff">
<path fill="#da9c61" opacity="1.00" d=" M 239.50 12.70 C 262.82 8.43 286.97 8.87 310.11 14.05 C 338.88 20.51 365.83 32.80 393.31 43.16 C 390.15 44.40 387.00 46.17 385.13 49.12 C 382.39 53.16 382.35 58.23 380.56 62.66 C 368.01 58.59 354.33 57.73 341.47 60.80 C 336.85 61.66 333.44 66.42 334.21 71.08 C 334.77 76.13 340.07 80.02 345.06 78.84 C 363.53 74.60 383.87 80.42 397.46 93.59 C 402.04 98.04 410.27 95.80 412.35 89.85 C 419.05 90.00 425.65 88.73 432.15 87.24 C 438.34 86.33 443.91 82.36 446.38 76.54 C 448.69 79.48 450.34 82.85 451.78 86.30 C 466.73 119.58 472.24 155.96 478.44 191.62 C 480.10 201.97 482.09 212.27 483.45 222.66 C 486.14 243.69 485.63 265.03 482.88 286.03 C 474.15 283.14 464.14 279.98 455.33 284.31 C 448.07 287.98 441.36 292.90 435.81 298.85 C 430.32 304.79 428.29 313.07 428.53 320.99 C 428.72 326.35 428.10 332.64 432.16 336.82 C 436.54 341.12 442.99 341.78 448.64 343.40 C 454.60 345.14 460.77 343.33 466.29 341.01 C 455.88 363.70 440.12 384.10 420.25 399.27 C 416.08 402.26 412.05 405.58 407.24 407.49 C 401.67 403.77 395.41 400.98 388.94 399.24 C 382.58 397.58 376.27 400.55 371.26 404.28 C 367.03 407.32 362.97 411.08 361.14 416.09 C 358.96 421.93 359.71 428.30 360.79 434.29 L 360.91 434.92 C 337.34 447.44 314.20 461.32 288.64 469.51 C 274.85 473.90 260.44 475.94 246.03 476.78 C 226.20 477.89 206.10 474.54 187.73 467.00 C 194.27 459.21 195.92 448.46 194.43 438.64 C 193.18 430.83 192.51 422.58 188.38 415.65 C 186.52 412.37 183.10 410.55 179.72 409.23 C 173.71 406.87 167.77 403.36 161.09 403.77 C 155.11 404.26 148.97 405.56 143.99 409.09 C 138.73 412.67 132.92 416.03 129.50 421.61 C 127.01 425.58 126.20 430.29 125.85 434.90 C 125.57 435.43 125.01 436.49 124.73 437.02 C 118.92 434.98 113.90 431.31 108.45 428.52 C 91.61 419.47 75.15 409.62 59.86 398.11 C 58.54 397.11 56.91 396.71 55.36 396.26 C 45.08 385.08 35.81 372.88 28.70 359.43 C 18.73 340.96 12.81 320.53 9.77 299.83 C 15.74 306.16 24.13 309.03 32.08 311.97 C 37.10 313.77 42.90 313.29 47.47 310.51 C 52.08 307.81 54.76 302.98 57.54 298.61 C 60.35 294.14 62.29 288.33 59.73 283.31 C 57.33 278.47 54.97 273.58 52.03 269.03 C 44.95 259.36 33.42 254.09 21.96 251.73 C 16.23 250.60 10.96 253.89 6.94 257.63 C 7.00 232.30 7.63 206.80 12.50 181.87 C 15.60 166.08 20.68 150.59 28.49 136.48 C 37.30 120.46 49.49 106.41 63.52 94.74 C 67.26 96.67 72.10 96.23 75.06 93.09 C 83.95 84.56 95.75 79.35 107.93 77.83 C 108.32 82.03 108.78 86.83 112.33 89.69 C 116.64 93.24 122.43 93.95 127.64 95.44 C 137.27 98.17 147.02 93.30 154.36 87.34 C 159.51 82.85 164.48 78.09 168.82 72.79 C 171.70 69.20 174.39 64.73 173.40 59.93 C 172.45 55.02 172.20 49.77 169.69 45.34 C 166.53 40.73 161.56 37.36 156.11 36.13 C 163.74 32.09 171.62 28.49 179.80 25.69 C 199.15 19.15 219.50 16.49 239.50 12.70 M 240.38 35.41 C 232.24 41.88 224.33 48.65 216.28 55.24 C 214.23 56.63 213.63 59.68 215.26 61.62 C 216.80 63.82 220.18 63.86 222.02 62.01 C 229.68 55.71 237.34 49.40 244.98 43.07 C 246.52 41.89 247.76 39.97 247.13 37.96 C 246.52 35.12 242.71 33.52 240.38 35.41 M 118.17 103.29 C 99.20 105.33 80.87 113.07 66.20 125.28 C 48.88 139.50 36.66 159.81 32.34 181.82 C 27.77 204.51 31.46 228.80 42.80 249.01 C 54.28 269.77 73.52 286.11 95.92 293.99 C 118.09 302.00 143.15 301.52 165.06 292.87 C 187.96 283.92 207.17 265.99 217.76 243.80 C 228.62 221.36 230.39 194.74 222.71 171.03 C 215.02 146.81 197.49 125.93 174.99 114.11 C 157.71 104.89 137.63 101.16 118.17 103.29 M 328.50 103.77 C 311.09 106.32 294.44 113.69 280.81 124.81 C 262.64 139.55 249.97 160.93 246.00 184.00 C 241.97 206.58 246.08 230.54 257.63 250.37 C 270.70 273.25 293.35 290.35 318.91 296.73 C 341.87 302.53 366.93 299.77 387.97 288.86 C 407.22 279.00 423.03 262.63 432.18 243.04 C 443.18 219.83 444.48 192.26 435.78 168.10 C 427.56 144.82 410.19 124.98 388.25 113.69 C 370.04 104.18 348.80 100.76 328.50 103.77 M 466.43 223.48 C 463.71 226.52 461.94 230.27 459.61 233.60 C 455.81 239.77 451.52 245.68 448.01 252.02 C 446.33 256.51 453.26 259.97 455.80 255.87 C 461.16 247.86 466.21 239.63 471.51 231.57 C 472.55 229.84 474.11 227.91 473.34 225.76 C 472.61 222.89 468.72 221.57 466.43 223.48 M 175.49 329.68 C 169.42 332.24 168.33 341.45 173.71 345.28 C 182.06 350.54 191.67 353.40 201.20 355.65 C 226.15 360.89 252.40 360.60 277.08 354.07 C 284.39 351.92 291.76 349.46 298.20 345.31 C 303.95 341.27 302.29 331.30 295.54 329.32 C 290.23 327.36 285.77 331.66 281.07 333.28 C 264.35 339.85 246.06 341.35 228.25 340.66 C 213.32 339.78 198.02 337.41 184.66 330.34 C 181.91 328.74 178.41 328.26 175.49 329.68 M 86.13 357.08 C 83.68 358.36 83.08 361.98 85.07 363.94 C 91.95 371.70 98.81 379.49 105.77 387.17 C 107.95 390.02 112.97 388.54 113.42 385.05 C 113.97 382.98 112.42 381.32 111.20 379.89 C 104.70 372.69 98.32 365.39 91.82 358.21 C 90.48 356.53 88.00 355.94 86.13 357.08 M 421.29 363.40 C 412.62 365.12 403.89 366.57 395.25 368.39 C 391.83 369.13 390.99 374.22 393.86 376.14 C 395.53 377.56 397.79 376.84 399.73 376.56 C 409.14 374.69 418.62 373.09 428.02 371.15 C 431.46 370.74 432.89 365.89 430.29 363.64 C 427.79 361.23 424.21 363.11 421.29 363.40 Z" />
</g>
<g id="#ae794dff">
<path fill="#ae794d" opacity="1.00" d=" M 140.44 34.65 C 145.71 33.59 150.97 35.09 156.11 36.13 C 161.56 37.36 166.53 40.73 169.69 45.34 C 172.20 49.77 172.45 55.02 173.40 59.93 C 174.39 64.73 171.70 69.20 168.82 72.79 C 164.48 78.09 159.51 82.85 154.36 87.34 C 147.02 93.30 137.27 98.17 127.64 95.44 C 122.43 93.95 116.64 93.24 112.33 89.69 C 108.78 86.83 108.32 82.03 107.93 77.83 C 114.37 76.95 120.88 77.55 127.22 78.84 C 133.77 80.21 139.75 72.90 137.27 66.73 C 135.93 62.31 131.27 60.48 127.07 60.03 C 121.50 59.05 115.82 58.73 110.17 59.07 C 112.78 53.09 117.36 48.26 122.51 44.37 C 127.93 40.28 133.62 35.99 140.44 34.65 Z" />
<path fill="#ae794d" opacity="1.00" d=" M 393.31 43.16 C 400.89 40.98 408.71 38.92 416.67 39.91 C 419.47 48.09 425.65 54.37 431.27 60.69 C 436.30 65.69 441.06 71.03 446.69 75.39 C 446.61 75.67 446.45 76.25 446.38 76.54 C 443.91 82.36 438.34 86.33 432.15 87.24 C 425.65 88.73 419.05 90.00 412.35 89.85 C 413.53 85.92 412.15 81.61 408.91 79.10 C 400.86 71.56 391.07 65.94 380.56 62.66 C 382.35 58.23 382.39 53.16 385.13 49.12 C 387.00 46.17 390.15 44.40 393.31 43.16 Z" />
<path fill="#ae794d" opacity="1.00" d=" M 6.94 257.63 C 10.96 253.89 16.23 250.60 21.96 251.73 C 33.42 254.09 44.95 259.36 52.03 269.03 C 54.97 273.58 57.33 278.47 59.73 283.31 C 62.29 288.33 60.35 294.14 57.54 298.61 C 54.76 302.98 52.08 307.81 47.47 310.51 C 42.90 313.29 37.10 313.77 32.08 311.97 C 24.13 309.03 15.74 306.16 9.77 299.83 C 5.02 291.76 1.36 282.84 0.00 273.54 L 0.00 269.92 C 0.60 265.06 3.45 260.91 6.94 257.63 Z" />
<path fill="#ae794d" opacity="1.00" d=" M 455.33 284.31 C 464.14 279.98 474.15 283.14 482.88 286.03 C 483.07 286.16 483.44 286.43 483.63 286.57 C 482.38 287.66 481.07 288.76 480.33 290.29 C 475.88 298.75 472.16 307.65 469.97 316.98 C 468.22 324.69 466.46 332.55 467.10 340.51 C 466.90 340.63 466.49 340.89 466.29 341.01 C 460.77 343.33 454.60 345.14 448.64 343.40 C 442.99 341.78 436.54 341.12 432.16 336.82 C 428.10 332.64 428.72 326.35 428.53 320.99 C 428.29 313.07 430.32 304.79 435.81 298.85 C 441.36 292.90 448.07 287.98 455.33 284.31 Z" />
<path fill="#ae794d" opacity="1.00" d=" M 371.26 404.28 C 376.27 400.55 382.58 397.58 388.94 399.24 C 395.41 400.98 401.67 403.77 407.24 407.49 L 407.98 408.04 C 402.54 411.28 395.97 411.52 390.38 414.44 C 379.22 418.93 369.94 426.70 360.79 434.29 C 359.71 428.30 358.96 421.93 361.14 416.09 C 362.97 411.08 367.03 407.32 371.26 404.28 Z" />
<path fill="#ae794d" opacity="1.00" d=" M 143.99 409.09 C 148.97 405.56 155.11 404.26 161.09 403.77 C 167.77 403.36 173.71 406.87 179.72 409.23 C 183.10 410.55 186.52 412.37 188.38 415.65 C 192.51 422.58 193.18 430.83 194.43 438.64 C 195.92 448.46 194.27 459.21 187.73 467.00 L 187.33 467.39 C 170.31 451.76 148.41 441.83 125.73 437.94 C 125.76 437.18 125.82 435.66 125.85 434.90 C 126.20 430.29 127.01 425.58 129.50 421.61 C 132.92 416.03 138.73 412.67 143.99 409.09 Z" />
</g>
<g id="#feef9eff">
<path fill="#feef9e" opacity="1.00" d=" M 240.38 35.41 C 242.71 33.52 246.52 35.12 247.13 37.96 C 247.76 39.97 246.52 41.89 244.98 43.07 C 237.34 49.40 229.68 55.71 222.02 62.01 C 220.18 63.86 216.80 63.82 215.26 61.62 C 213.63 59.68 214.23 56.63 216.28 55.24 C 224.33 48.65 232.24 41.88 240.38 35.41 Z" />
<path fill="#feef9e" opacity="1.00" d=" M 466.43 223.48 C 468.72 221.57 472.61 222.89 473.34 225.76 C 474.11 227.91 472.55 229.84 471.51 231.57 C 466.21 239.63 461.16 247.86 455.80 255.87 C 453.26 259.97 446.33 256.51 448.01 252.02 C 451.52 245.68 455.81 239.77 459.61 233.60 C 461.94 230.27 463.71 226.52 466.43 223.48 Z" />
<path fill="#feef9e" opacity="1.00" d=" M 86.13 357.08 C 88.00 355.94 90.48 356.53 91.82 358.21 C 98.32 365.39 104.70 372.69 111.20 379.89 C 112.42 381.32 113.97 382.98 113.42 385.05 C 112.97 388.54 107.95 390.02 105.77 387.17 C 98.81 379.49 91.95 371.70 85.07 363.94 C 83.08 361.98 83.68 358.36 86.13 357.08 Z" />
<path fill="#feef9e" opacity="1.00" d=" M 421.29 363.40 C 424.21 363.11 427.79 361.23 430.29 363.64 C 432.89 365.89 431.46 370.74 428.02 371.15 C 418.62 373.09 409.14 374.69 399.73 376.56 C 397.79 376.84 395.53 377.56 393.86 376.14 C 390.99 374.22 391.83 369.13 395.25 368.39 C 403.89 366.57 412.62 365.12 421.29 363.40 Z" />
</g>
<g id="#986842ff">
<path fill="#986842" opacity="1.00" d=" M 416.67 39.91 C 423.05 39.83 428.86 42.77 434.34 45.71 C 438.26 47.85 443.04 49.42 445.26 53.62 C 448.07 58.32 447.16 63.98 448.33 69.08 C 447.75 71.17 447.19 73.28 446.69 75.39 C 441.06 71.03 436.30 65.69 431.27 60.69 C 425.65 54.37 419.47 48.09 416.67 39.91 Z" />
<path fill="#986842" opacity="1.00" d=" M 480.33 290.29 C 481.07 288.76 482.38 287.66 483.63 286.57 C 486.85 289.28 490.54 292.04 491.70 296.31 C 492.86 300.45 493.57 304.72 494.07 308.99 C 494.60 314.36 490.92 318.85 487.66 322.70 C 481.46 329.32 475.18 336.14 467.10 340.51 C 466.46 332.55 468.22 324.69 469.97 316.98 C 472.16 307.65 475.88 298.75 480.33 290.29 Z" />
<path fill="#986842" opacity="1.00" d=" M 407.98 408.04 C 411.66 410.99 415.18 414.30 417.56 418.42 C 420.83 424.89 422.91 431.94 424.68 438.95 C 424.16 446.34 418.74 451.84 414.10 457.07 C 410.12 461.74 404.70 465.38 398.56 466.36 C 393.06 467.60 387.59 465.39 382.83 462.81 C 377.37 459.97 371.32 457.60 367.40 452.61 C 363.19 447.67 362.25 441.04 360.91 434.92 L 360.79 434.29 C 369.94 426.70 379.22 418.93 390.38 414.44 C 395.97 411.52 402.54 411.28 407.98 408.04 Z" />
<path fill="#986842" opacity="1.00" d=" M 125.73 437.94 C 148.41 441.83 170.31 451.76 187.33 467.39 C 183.68 470.41 179.62 472.89 175.69 475.53 C 170.60 478.92 164.44 481.70 158.20 480.52 C 151.01 478.73 144.84 474.30 138.78 470.23 C 131.54 465.38 126.53 457.45 125.71 448.73 C 125.47 445.13 125.61 441.53 125.73 437.94 Z" />
</g>
<g id="#000000ff">
<path fill="#000000" opacity="1.00" d=" M 61.57 80.51 C 74.35 67.64 92.17 60.28 110.17 59.07 C 115.82 58.73 121.50 59.05 127.07 60.03 C 131.27 60.48 135.93 62.31 137.27 66.73 C 139.75 72.90 133.77 80.21 127.22 78.84 C 120.88 77.55 114.37 76.95 107.93 77.83 C 95.75 79.35 83.95 84.56 75.06 93.09 C 72.10 96.23 67.26 96.67 63.52 94.74 C 58.86 91.72 57.50 84.57 61.57 80.51 Z" />
<path fill="#000000" opacity="1.00" d=" M 341.47 60.80 C 354.33 57.73 368.01 58.59 380.56 62.66 C 391.07 65.94 400.86 71.56 408.91 79.10 C 412.15 81.61 413.53 85.92 412.35 89.85 C 410.27 95.80 402.04 98.04 397.46 93.59 C 383.87 80.42 363.53 74.60 345.06 78.84 C 340.07 80.02 334.77 76.13 334.21 71.08 C 333.44 66.42 336.85 61.66 341.47 60.80 Z" />
<path fill="#000000" opacity="1.00" d=" M 124.55 128.72 C 139.13 125.94 154.55 127.62 168.13 133.62 C 182.31 139.81 194.41 150.62 202.19 163.99 C 210.31 177.76 213.66 194.23 211.71 210.09 C 209.94 225.24 203.24 239.74 192.93 250.98 C 181.34 263.75 165.14 272.22 148.03 274.38 C 132.69 276.39 116.73 273.48 103.17 266.02 C 88.94 258.28 77.39 245.75 70.90 230.91 C 63.26 213.70 62.63 193.53 69.14 175.87 C 77.68 151.89 99.52 133.31 124.55 128.72 M 117.38 138.57 C 100.31 144.27 86.09 157.65 78.56 173.90 C 76.48 177.86 77.65 183.17 81.37 185.72 C 85.57 188.96 92.39 187.50 94.78 182.72 C 100.47 170.21 111.31 159.86 124.49 155.66 C 129.31 154.00 131.79 147.91 129.57 143.33 C 127.66 138.75 121.90 136.63 117.38 138.57 Z" />
<path fill="#000000" opacity="1.00" d=" M 319.51 128.73 C 334.41 125.88 350.19 127.69 363.99 134.00 C 379.80 141.11 392.85 154.05 400.22 169.72 C 412.31 194.71 408.51 226.36 390.75 247.71 C 379.90 261.17 364.16 270.59 347.15 273.72 C 330.60 276.87 312.98 274.15 298.20 266.03 C 283.99 258.31 272.43 245.80 265.93 230.98 C 259.01 215.41 257.80 197.42 262.46 181.05 C 269.65 154.71 292.66 133.62 319.51 128.73 M 312.46 138.55 C 295.37 144.23 281.13 157.61 273.58 173.85 C 271.34 178.05 272.82 183.74 276.98 186.13 C 281.17 188.83 287.41 187.28 289.72 182.83 C 295.43 170.29 306.26 159.86 319.49 155.66 C 324.33 153.99 326.81 147.86 324.56 143.28 C 322.63 138.76 316.94 136.65 312.46 138.55 Z" />
<path fill="#000000" opacity="1.00" d=" M 175.49 329.68 C 178.41 328.26 181.91 328.74 184.66 330.34 C 198.02 337.41 213.32 339.78 228.25 340.66 C 246.06 341.35 264.35 339.85 281.07 333.28 C 285.77 331.66 290.23 327.36 295.54 329.32 C 302.29 331.30 303.95 341.27 298.20 345.31 C 291.76 349.46 284.39 351.92 277.08 354.07 C 252.40 360.60 226.15 360.89 201.20 355.65 C 191.67 353.40 182.06 350.54 173.71 345.28 C 168.33 341.45 169.42 332.24 175.49 329.68 Z" />
</g>
<g id="#c48b56ff">
<path fill="#c48b56" opacity="1.00" d=" M 446.69 75.39 C 447.19 73.28 447.75 71.17 448.33 69.08 C 466.42 84.62 477.76 106.40 485.51 128.62 C 494.52 154.67 499.33 181.90 503.99 208.99 C 507.06 227.46 510.76 245.86 512.00 264.57 L 512.00 288.46 C 509.87 326.51 498.84 364.88 475.71 395.61 C 462.32 413.78 444.48 428.29 424.68 438.95 C 422.91 431.94 420.83 424.89 417.56 418.42 C 415.18 414.30 411.66 410.99 407.98 408.04 L 407.24 407.49 C 412.05 405.58 416.08 402.26 420.25 399.27 C 440.12 384.10 455.88 363.70 466.29 341.01 C 466.49 340.89 466.90 340.63 467.10 340.51 C 475.18 336.14 481.46 329.32 487.66 322.70 C 490.92 318.85 494.60 314.36 494.07 308.99 C 493.57 304.72 492.86 300.45 491.70 296.31 C 490.54 292.04 486.85 289.28 483.63 286.57 C 483.44 286.43 483.07 286.16 482.88 286.03 C 485.63 265.03 486.14 243.69 483.45 222.66 C 482.09 212.27 480.10 201.97 478.44 191.62 C 472.24 155.96 466.73 119.58 451.78 86.30 C 450.34 82.85 448.69 79.48 446.38 76.54 C 446.45 76.25 446.61 75.67 446.69 75.39 Z" />
<path fill="#c48b56" opacity="1.00" d=" M 55.36 396.26 C 56.91 396.71 58.54 397.11 59.86 398.11 C 75.15 409.62 91.61 419.47 108.45 428.52 C 113.90 431.31 118.92 434.98 124.73 437.02 C 125.01 436.49 125.57 435.43 125.85 434.90 C 125.82 435.66 125.76 437.18 125.73 437.94 C 125.61 441.53 125.47 445.13 125.71 448.73 C 100.24 434.25 75.54 417.68 55.36 396.26 Z" />
<path fill="#c48b56" opacity="1.00" d=" M 288.64 469.51 C 314.20 461.32 337.34 447.44 360.91 434.92 C 362.25 441.04 363.19 447.67 367.40 452.61 C 371.32 457.60 377.37 459.97 382.83 462.81 C 362.76 473.87 342.72 485.32 321.04 493.00 C 304.70 498.94 287.32 501.70 269.97 502.17 C 256.62 502.81 243.18 501.32 230.31 497.71 C 211.27 492.56 193.40 484.06 175.69 475.53 C 179.62 472.89 183.68 470.41 187.33 467.39 L 187.73 467.00 C 206.10 474.54 226.20 477.89 246.03 476.78 C 260.44 475.94 274.85 473.90 288.64 469.51 Z" />
</g>
<g id="#ffffffff">
<path fill="#ffffff" opacity="1.00" d=" M 118.17 103.29 C 137.63 101.16 157.71 104.89 174.99 114.11 C 197.49 125.93 215.02 146.81 222.71 171.03 C 230.39 194.74 228.62 221.36 217.76 243.80 C 207.17 265.99 187.96 283.92 165.06 292.87 C 143.15 301.52 118.09 302.00 95.92 293.99 C 73.52 286.11 54.28 269.77 42.80 249.01 C 31.46 228.80 27.77 204.51 32.34 181.82 C 36.66 159.81 48.88 139.50 66.20 125.28 C 80.87 113.07 99.20 105.33 118.17 103.29 M 124.55 128.72 C 99.52 133.31 77.68 151.89 69.14 175.87 C 62.63 193.53 63.26 213.70 70.90 230.91 C 77.39 245.75 88.94 258.28 103.17 266.02 C 116.73 273.48 132.69 276.39 148.03 274.38 C 165.14 272.22 181.34 263.75 192.93 250.98 C 203.24 239.74 209.94 225.24 211.71 210.09 C 213.66 194.23 210.31 177.76 202.19 163.99 C 194.41 150.62 182.31 139.81 168.13 133.62 C 154.55 127.62 139.13 125.94 124.55 128.72 Z" />
<path fill="#ffffff" opacity="1.00" d=" M 328.50 103.77 C 348.80 100.76 370.04 104.18 388.25 113.69 C 410.19 124.98 427.56 144.82 435.78 168.10 C 444.48 192.26 443.18 219.83 432.18 243.04 C 423.03 262.63 407.22 279.00 387.97 288.86 C 366.93 299.77 341.87 302.53 318.91 296.73 C 293.35 290.35 270.70 273.25 257.63 250.37 C 246.08 230.54 241.97 206.58 246.00 184.00 C 249.97 160.93 262.64 139.55 280.81 124.81 C 294.44 113.69 311.09 106.32 328.50 103.77 M 319.51 128.73 C 292.66 133.62 269.65 154.71 262.46 181.05 C 257.80 197.42 259.01 215.41 265.93 230.98 C 272.43 245.80 283.99 258.31 298.20 266.03 C 312.98 274.15 330.60 276.87 347.15 273.72 C 364.16 270.59 379.90 261.17 390.75 247.71 C 408.51 226.36 412.31 194.71 400.22 169.72 C 392.85 154.05 379.80 141.11 363.99 134.00 C 350.19 127.69 334.41 125.88 319.51 128.73 Z" />
<path fill="#ffffff" opacity="1.00" d=" M 117.38 138.57 C 121.90 136.63 127.66 138.75 129.57 143.33 C 131.79 147.91 129.31 154.00 124.49 155.66 C 111.31 159.86 100.47 170.21 94.78 182.72 C 92.39 187.50 85.57 188.96 81.37 185.72 C 77.65 183.17 76.48 177.86 78.56 173.90 C 86.09 157.65 100.31 144.27 117.38 138.57 Z" />
<path fill="#ffffff" opacity="1.00" d=" M 312.46 138.55 C 316.94 136.65 322.63 138.76 324.56 143.28 C 326.81 147.86 324.33 153.99 319.49 155.66 C 306.26 159.86 295.43 170.29 289.72 182.83 C 287.41 187.28 281.17 188.83 276.98 186.13 C 272.82 183.74 271.34 178.05 273.58 173.85 C 281.13 157.61 295.37 144.23 312.46 138.55 Z" />
</g>
</svg>
