<svg width="101" height="24" viewBox="0 0 101 24" fill="none" xmlns="http://www.w3.org/2000/svg">
<path d="M10.9118 0.0885557C13.1355 -0.230091 15.4144 0.334731 17.3663 1.40456C18.5812 2.06601 19.8824 2.84594 20.464 4.16424C20.7991 5.06497 21.0938 5.99445 21.1917 6.95499C21.361 8.88758 21.1284 10.8524 20.5066 12.6906C19.2974 16.4546 16.954 19.9183 13.6594 22.1592C12.0312 23.2532 10.0908 23.9284 8.11703 23.9077C6.6039 23.9112 5.10458 23.5085 3.76533 22.8137C2.80609 22.3375 1.89867 21.6553 1.39544 20.6879C0.265771 18.4332 0.0297057 15.8276 0.329109 13.3509C0.972825 9.29135 2.75658 5.28239 5.86806 2.51464C7.26374 1.2366 9.03022 0.351986 10.9118 0.0885557ZM13.1194 7.01021C12.2799 7.46575 11.5636 8.1272 10.8969 8.80706C9.72575 10.008 8.92082 11.5403 8.55002 13.1738C8.33583 14.1527 8.13661 15.1547 8.1988 16.1612C8.26789 16.6536 9.059 16.6858 9.17531 16.2004C9.70502 14.3115 10.1438 12.3294 11.2792 10.6902C11.9644 9.66522 12.8108 8.76449 13.6284 7.84652C13.9899 7.51521 13.5742 6.86066 13.1194 7.01021Z" fill="#FBFEFD"/>
<path d="M29.6639 1.13312C32.8157 0.268058 36.1172 0.0575442 39.3726 0.20939C41.6999 0.376191 44.0721 0.69829 46.2094 1.68759C47.2135 2.17764 48.2672 2.79538 48.7612 3.84565C49.7066 5.57923 48.7036 7.93514 46.9256 8.67827C45.6186 9.21893 44.1504 9.1154 42.7858 8.88188C41.8312 8.71853 40.9076 8.41829 39.9898 8.1146C39.6927 8.35962 39.9184 8.72428 39.9587 9.03143C40.6923 12.1914 40.7199 15.4665 40.4286 18.6829C40.2927 19.8654 39.9599 21.1423 39.0145 21.9441C38.2591 22.6136 37.1996 22.7919 36.222 22.7482C35.1614 22.6757 34.2079 22.0315 33.6206 21.1665C32.7754 19.9425 32.5117 18.424 32.4714 16.9642C32.4322 14.2724 32.5094 11.5564 33.0851 8.91524C33.183 8.71048 33.0437 8.54137 32.9055 8.40448C31.3912 9.36157 29.6063 9.9287 27.8053 9.86888C26.9002 9.82977 25.9571 9.63881 25.2247 9.07514C23.586 7.85692 23.2567 5.13059 24.7491 3.67079C26.0918 2.35824 27.8871 1.64618 29.6639 1.13312Z" fill="#FBFEFD"/>
<path d="M56.4213 1.49296C59.8633 0.313851 63.5552 0.0550232 67.1711 0.203418C69.2692 0.347212 71.3903 0.617542 73.3664 1.37332C74.351 1.76904 75.3355 2.25334 76.0875 3.01947C76.7278 3.73384 77.1446 4.71624 76.9949 5.68599C76.851 6.65228 76.3984 7.60822 75.605 8.20525C74.83 8.83104 73.8132 9.04615 72.8378 9.06571C71.2982 9.09332 69.7724 8.75742 68.3249 8.25242C68.1199 8.1949 67.8113 8.03385 67.7111 8.32719C67.9506 9.5109 68.2097 10.6946 68.3307 11.8979C68.5759 13.9236 68.5149 15.9701 68.379 18.0016C68.2996 19.16 68.1268 20.3783 67.4474 21.3549C66.897 22.1521 65.9711 22.6398 65.0119 22.7146C63.8834 22.9113 62.6869 22.5087 61.9142 21.6632C60.8122 20.4611 60.4287 18.7804 60.3781 17.1918C60.317 14.4252 60.3873 11.6333 60.9746 8.91847C61.054 8.72751 60.9423 8.56416 60.849 8.40656C59.8057 8.98749 58.7129 9.5063 57.528 9.72026C56.2279 9.95493 54.8092 9.97794 53.6012 9.37976C51.6056 8.38586 51.0114 5.35929 52.574 3.74074C53.6277 2.66402 55.0153 1.98646 56.4213 1.49296Z" fill="#FBFEFD"/>
<path d="M81.9856 0.461256C82.9011 0.302508 83.8488 0.564789 84.6215 1.06289C86.1185 2.03839 87.2597 3.46367 88.1648 4.98443C88.7302 5.95073 89.2254 6.97224 89.488 8.06622C89.5179 8.21692 89.5824 8.35841 89.7413 8.41593C89.8415 8.3216 89.9163 8.20886 89.9659 8.07772C90.6096 6.50634 91.6091 5.10177 92.7503 3.85134C93.6048 2.92301 94.5882 2.0936 95.7167 1.51728C96.6679 1.05023 97.892 0.866179 98.8282 1.46781C99.2945 1.80141 99.7678 2.15687 100.098 2.63427C100.353 2.98743 100.306 3.44641 100.315 3.85709C100.317 4.64508 99.9786 5.38935 99.5583 6.0393C98.8374 7.13904 97.8275 8.00065 96.8187 8.8243C95.3286 10.0299 93.6946 11.0387 92.0375 11.9947C91.7116 12.1511 91.8786 12.5388 91.897 12.8114C92.0306 14.3678 91.9166 15.9381 91.6817 17.4795C91.464 18.7311 91.1992 20.0023 90.5934 21.1319C90.2077 21.8532 89.6929 22.5652 88.926 22.9115C88.2869 23.2278 87.52 23.2186 86.8636 22.9621C86.3143 22.724 85.9861 22.1845 85.7719 21.6519C85.3332 20.5648 85.1743 19.3868 85.1052 18.2227C85.0372 15.9898 85.1443 13.7374 85.6452 11.5541C85.7143 11.3493 85.575 11.1722 85.408 11.0778C83.4262 9.68937 81.525 8.08348 80.2583 5.99329C79.7631 5.18804 79.4914 4.2298 79.6111 3.28422C79.6894 2.64002 79.8334 1.97167 80.2099 1.43215C80.6279 0.86733 81.3189 0.598148 81.9856 0.461256Z" fill="#FBFEFD"/>
</svg>
