<svg width="137" height="132" viewBox="0 0 137 132" fill="none" xmlns="http://www.w3.org/2000/svg">
<path d="M97.1004 49.3643C88.3015 49.5871 84.1805 66.2939 91.1974 78.8798C98.3256 91.4656 96.4322 102.381 82.287 100.71C68.1419 99.0394 70.4808 84.3373 71.1491 62.1729C71.5946 49.4757 67.585 42.1247 62.2388 37.5582C58.2291 34.1054 53.3284 32.212 48.9846 30.8754C38.9605 27.7568 43.3044 3.92164 32.612 0.580271C21.9196 -2.7611 19.8034 8.82231 19.2465 22.6333C18.801 33.8826 24.3699 47.0254 31.7209 55.156C33.3916 57.1609 35.1737 58.7201 37.0671 60.0567C46.6457 66.7394 72.1516 92.468 54.3309 104.051C36.3989 115.635 16.5733 75.9839 3.20785 92.5794C-10.1576 109.175 21.1399 126.105 43.7499 129.334C53.9968 130.782 62.907 135.238 69.5898 140.25C69.5898 140.25 89.1925 155.843 87.9673 174.332L136.417 153.17C136.417 153.17 126.282 139.359 117.26 119.422C113.028 110.4 106.122 92.468 109.018 74.6474C113.362 49.2529 105.899 49.0302 97.1004 49.3643Z" fill="#309884"/>
</svg>
