<svg width="144" height="72" viewBox="0 0 144 72" fill="none" xmlns="http://www.w3.org/2000/svg">
<path d="M11.4676 43.8835C12.1359 46.668 12.5814 48.8956 11.2448 50.2322C7.12381 54.7987 -4.23683 67.1618 1.66626 70.7259C7.56936 74.29 14.3634 62.4839 21.6031 62.9294C28.1745 63.2635 37.3076 65.8252 42.5424 58.8083C43.2107 58.0287 43.7676 57.1377 44.2131 56.0239C49.0024 45.6656 49.3365 39.0942 56.1306 38.5373C62.9247 37.9804 75.9561 42.9925 79.6317 36.7553C83.3072 30.518 87.9851 20.8281 85.8689 10.5812C83.7527 0.334305 106.474 -12.5857 108.702 -11.9174C110.929 -11.1377 95.7816 2.89602 101.796 11.1381C107.699 19.3801 113.045 26.5084 105.806 32.4115C98.5661 38.3146 93.3313 49.4525 100.348 57.249C107.365 65.0456 109.37 70.9487 114.493 70.6145C119.617 70.2804 144.566 51.0118 141.781 42.9925C138.997 35.0846 130.866 35.8642 132.203 30.4067C133.428 24.9491 146.348 14.2567 142.338 8.79912C138.997 4.23258 129.53 -1.89328 125.854 -8.6874C125.854 -8.6874 123.069 -15.1474 125.743 -22.0529C128.416 -28.847 123.961 -36.0867 123.961 -36.0867L101.239 -33.5249C101.239 -33.5249 95.3361 -32.8567 91.215 -27.1763C89.6557 -25.0601 88.6533 -21.8301 88.6533 -21.8301C78.852 -21.9415 64.9296 -22.1643 53.012 -3.11845C38.4213 20.0484 33.1865 7.46257 17.5935 19.8257C6.78969 28.4018 9.90831 37.5349 11.4676 43.8835Z" fill="#309884"/>
</svg>
