<svg width="182" height="117" viewBox="0 0 182 117" fill="none" xmlns="http://www.w3.org/2000/svg">
<path d="M70.2802 26.9947C68.7209 22.9851 19.1572 2.26859 18.8231 6.05548C18.6003 9.84237 37.7575 19.6437 44.5516 26.5492C51.3458 33.5661 57.9172 52.3892 68.2754 60.4085C78.6337 68.4278 89.326 86.8053 83.4229 88.1419C77.4085 89.4784 65.7137 70.0985 57.6944 67.4254C49.6751 64.8636 35.3072 56.9557 29.5155 38.4668C23.7238 19.9779 12.92 11.9586 9.35584 7.28065C8.01929 5.60996 5.23482 3.82789 2.22758 2.26859C1.44793 -0.404513 0.668275 -3.18899 0 -5.75071C1.55931 -5.86209 3.11862 -6.53036 4.45516 -7.86691C9.80136 -13.5472 22.4986 -17.3341 37.0893 -10.9855C51.6799 -4.63692 60.3675 -16.8886 72.7306 -17C85.0937 -17 103.805 -6.08485 102.58 -2.18658C101.355 1.60031 76.963 -6.19623 70.503 -0.738649C64.043 4.71893 47.1134 3.38238 36.0868 0.263762C25.0603 -2.85485 14.7021 1.37755 20.8279 1.60031C26.8424 1.71169 61.8154 16.4137 66.9389 19.3096C72.0623 22.2054 95.4519 11.6244 109.82 17.4161C124.188 23.2079 126.749 23.2079 141.897 23.542C157.045 23.8761 170.744 35.4596 168.517 40.583C166.289 45.7064 152.255 35.3482 142.008 39.4692C131.761 43.7016 118.173 30.002 112.159 32.4523C106.144 35.014 87.8781 26.3265 90.6626 31.0044C93.4471 35.7937 131.65 48.9364 147.577 55.9533C163.505 62.9702 183.553 82.2388 180.991 84.9119C178.429 87.585 144.904 73.5512 132.207 67.9823C119.621 62.4133 106.59 47.5999 101.466 41.5854C96.3429 35.5709 76.963 29.8906 82.6433 33.5661C88.3236 37.2416 107.481 54.7282 110.822 65.1978C114.275 75.6674 124.41 83.3526 132.653 87.6964C140.895 92.0401 145.127 112.645 144.459 115.43C143.679 118.214 129.868 114.873 116.725 103.289C103.36 91.706 92.556 59.0719 90.3285 51.9437C87.9895 44.8154 71.8395 30.893 70.2802 26.9947Z" fill="#F6C2D6"/>
</svg>
