<svg width="136" height="103" viewBox="0 0 136 103" fill="none" xmlns="http://www.w3.org/2000/svg">
<path d="M49.5637 98.0606C51.3458 105.969 38.5372 113.097 33.0796 118.889C32.8569 118.777 32.6341 118.554 32.4113 118.443C22.4986 111.092 11.5835 104.632 0.445544 100.511C0.334165 100.511 0.222765 100.4 0.111386 100.4C6.79638e-06 99.7313 0 99.0631 0 98.2834C0.668275 87.2569 16.5955 95.8331 17.7093 85.1407C18.9345 74.4483 2.45037 78.9034 2.11623 68.8793C1.78209 58.8552 22.0531 56.1821 18.2662 50.0563C14.4793 43.9304 4.23243 54.7342 0.891053 42.5938C-2.33894 30.4535 18.1548 27.8918 15.5931 20.7635C13.0314 13.6352 15.4817 -3.07158 25.84 0.492548C36.1982 4.05668 30.5179 15.0832 31.1862 21.4318C31.8544 27.7804 45.4427 22.4342 46.2223 30.1194C47.1134 37.8045 33.0796 40.8117 32.7455 48.0514C32.4113 55.291 45.5541 48.1628 49.6751 58.7438C53.7961 69.4362 31.4089 74.4482 31.1862 83.3586C31.0748 92.3803 47.2247 87.591 49.5637 98.0606Z" fill="#F9E76A"/>
<path d="M134.658 83.9157C131.985 91.2667 124.188 84.584 116.392 92.7146C116.169 92.9374 115.835 93.2715 115.612 93.6057C113.385 96.2788 113.051 98.3949 113.607 100.4C115.167 105.635 123.297 109.421 120.179 116.216C116.058 125.683 100.576 113.654 98.6827 125.683C96.7892 137.823 109.264 144.729 102.915 150.409C96.5665 156.089 83.6465 144.84 85.9854 164.22C86.4309 167.784 86.5423 170.569 86.3196 172.796H84.092C84.092 172.796 75.1816 158.54 62.373 145.174C64.3779 145.063 66.16 144.395 67.2738 141.944C70.1696 135.261 62.2617 130.027 63.2641 124.346C63.3755 123.567 63.5982 122.898 64.0437 122.23C66.0486 118.889 70.1696 117.998 74.1792 117.218C77.9661 116.55 81.753 115.881 83.8692 113.431C84.5375 112.651 84.7602 111.872 84.6489 110.981C84.4261 107.974 80.7506 104.521 78.1889 100.4C76.6296 97.9494 75.5158 95.2763 75.7385 92.4919C76.741 83.6929 86.8765 90.1529 96.3437 85.5863C105.7 81.0198 93.782 74.5598 93.0023 65.9836C92.2226 57.4075 106.034 59.3009 113.719 60.3033C121.404 61.3057 120.513 44.0419 127.975 47.7174C135.438 51.393 128.421 58.5212 124.857 68.0998C121.404 77.7898 137.554 76.2305 134.658 83.9157Z" fill="#F9E76A"/>
</svg>
