<svg width="40" height="21" viewBox="0 0 40 21" fill="none" xmlns="http://www.w3.org/2000/svg">
<path d="M33.711 0.791904C33.0556 0.511786 32.3642 0.296465 31.6469 0.161549C30.5214 -0.0501709 29.3749 0.196737 28.2963 0.581631L0.5 10.5L28.2963 20.4184C29.3749 20.8033 30.5214 21.0502 31.6469 20.8385C32.3642 20.7035 33.0556 20.4882 33.711 20.2081C34.9631 19.6508 36.073 18.8883 37.012 17.9204C37.9511 16.9525 38.7194 15.8087 39.2317 14.5182C39.7154 13.2863 40 11.9371 40 10.5C40 9.09217 39.7439 7.71369 39.2317 6.48185C38.7194 5.19134 37.9511 4.04749 37.012 3.07961C36.073 2.11173 34.9631 1.31984 33.711 0.791904Z" fill="#F9E76B"/>
</svg>
