<svg width="561" height="785" viewBox="0 0 561 785" fill="none" xmlns="http://www.w3.org/2000/svg">
<path d="M432.211 239.361C410.347 210.697 380.176 188.709 346.558 175.937C344.724 175.561 342.767 175.085 340.867 175.165C338.1 175.556 336.581 179.414 338.484 181.579C339.797 183.467 340.987 185.255 342.412 187.132C360.083 213.188 364.649 247.302 355.797 277.494C356.006 275.115 356.66 272.692 356.991 270.413C358.912 257.198 358.077 243.363 354.309 230.497C348.969 212.065 338.318 195.515 325.236 181.569C323.345 179.515 321.243 177.594 319.663 175.284C319.261 173.529 318.971 171.762 318.458 170.017C316.395 162.929 311.266 156.599 304.362 153.816C298.615 151.365 291.558 151.516 286.171 154.866C283.527 156.48 281.284 158.727 279.153 160.963C274.794 158.933 269.693 158.438 265.16 160.242C260.283 161.969 256.564 166.273 255.38 171.22C253.929 176.867 254.99 182.934 257.951 187.799C253.005 187.736 248.017 189.475 244.564 193.079C241.611 196.071 240.225 200.14 239.962 204.207C239.713 210.631 242.708 216.952 247.513 221.182C252.863 226.367 260.611 228.616 267.868 228.22C268.482 232.087 268.197 235.932 267.689 239.8C266.43 248.459 263.582 256.941 259.422 264.657C258.921 264.146 258.631 263.502 257.831 263.358C253.307 261.907 248.516 261.155 243.759 260.737C243.941 252.524 243.1 244.19 240.514 236.369C235.185 218.048 222.635 202.701 208.377 190.445C211.23 187.575 213.594 184.305 215.002 180.459C217.375 173.933 216.589 166.154 212.006 160.78C209.569 157.77 206.122 155.873 202.332 155.021C196.918 153.659 191.196 154.798 186.142 156.992C181.01 159.53 176.579 163.457 173.338 168.05C168.391 165.743 163.609 162.858 158.141 162.063C149.182 161.171 139.872 163.457 132.408 168.476C127.876 171.403 123.99 175.163 119.325 177.879C116.16 179.882 112.571 181.03 108.96 181.956C105.116 182.793 101.026 183.43 97.0362 182.823C92.5016 182.382 87.9996 181.153 83.3987 181.168C77.3195 180.996 71.1863 182.513 65.8881 185.63C58.5795 189.959 53.2069 196.788 48.757 203.86C46.0329 202.451 43.2313 201.387 40.1525 200.912C30.8161 199.609 20.3074 204.486 16.4925 213.403C14.1967 218.461 14.4914 224.718 17.4408 229.472C20.7022 235.092 26.7732 238.521 32.9533 239.693C29.6951 249.676 27.3708 260.013 26.8693 270.616C26.0395 286.864 29.0777 303.62 37.459 317.704C32.7388 320.987 27.518 323.759 23.5543 327.864C22.7214 328.509 22.3116 330.01 23.2791 330.698C24.4913 331.586 25.9685 330.651 27.146 330.083C31.4777 327.401 35.6872 324.619 40.1637 322.258C42.0222 325.102 44.103 327.923 46.3724 330.388C49.2871 333.686 52.4016 336.739 55.716 339.548C65.4031 347.663 76.7999 353.809 88.7839 357.988C81.7282 371.497 77.1519 386.215 74.2873 401.21C70.4828 421.351 70.4687 442.344 75.61 462.143C78.6319 473.176 83.554 484.129 91.8964 492.267C97.3915 497.775 104.83 501.402 112.632 501.961C118.783 508.413 125.446 514.363 132.485 519.602C159.198 539.582 191.415 551.822 224.426 556.348C265.073 562.012 307.131 556.083 344.512 539.401C372.007 527.085 397.14 509.169 417.212 486.713C434.776 467.204 448.735 444.242 457.814 419.64C468.158 391.992 471.964 361.86 468.892 332.535C465.839 298.942 452.773 266.247 432.211 239.361ZM275.177 237.248C275.363 233.525 274.648 229.781 274.612 226.08C274.622 225.069 274.199 224.213 273.887 223.347C272.953 222.992 272.063 221.959 270.974 222.294C268.585 223.096 266.051 222.454 263.75 221.9C258.681 220.616 253.9 217.731 250.884 213.432C247.902 209.468 247.43 203.678 250.038 199.486C252.18 196.239 256.569 195.235 260.314 195.643C264.259 195.806 267.429 198.292 271.231 199.255C273.321 199.943 275.819 198.007 275.028 195.729C273.68 192.385 269.779 191.544 267.21 189.446C264.417 186.248 262.558 182.282 262.021 178.071C261.65 174.404 262.48 170.391 265.49 167.954C267.555 166.174 270.444 165.883 273.068 166.292C276.713 166.822 279.86 169.086 282.774 171.261C285.61 173.782 286.903 177.692 287.718 181.315C288.097 182.848 287.732 184.793 289.189 185.881C290.668 187.191 293.168 186.377 293.655 184.532C294.042 182.809 293.741 180.931 293.45 179.164C292.411 173.32 288.351 168.678 284.757 164.214C287.532 160.566 292.008 158.206 296.62 158.302C300.788 158.442 304.525 160.984 307.095 164.204C311.1 169.413 313.218 175.935 313.201 182.447C313.36 185.125 312.729 187.771 313.209 190.304C313.366 191.86 315.256 192.792 316.611 191.757C318.81 190.188 319.074 187.243 320.083 185.008C334.745 201.264 346.288 221.091 349.942 242.837C353.102 259.693 350.285 277.377 343.331 293.008C337.443 306.961 328.096 318.905 318.861 330.838C308.776 337.693 297.1 342.127 285.099 343.338C265.13 345.69 244.753 338.43 229.427 325.608C226.513 323.432 223.899 320.89 221.285 318.347C226.669 311.63 231.319 304.313 235.146 296.63C240.501 295.192 245.878 292.853 250.109 289.171C264.733 276.132 274.484 257.075 275.177 237.248ZM258.801 266.291C253.585 274.676 247.592 283.138 238.627 287.747C241.177 280.755 242.915 273.507 243.631 266.139C248.721 266.523 253.845 267.241 258.801 266.291ZM34.0231 291.447C30.4599 271.713 34.2308 251.238 40.9816 232.484C44.774 223.345 49.1445 214.373 54.6047 206.189C56.8577 202.93 59.2219 199.661 62.3201 196.991C67.1942 191.896 73.7585 187.978 80.8816 187.372C85.4265 186.801 89.9061 187.808 94.3857 188.815C103.334 190.719 112.678 188.765 120.798 184.69C127.941 180.939 133.002 174.366 140.401 170.925C145.466 168.842 150.967 167.726 156.39 168.077C159.547 168.207 162.393 169.716 165.417 170.758C170.43 172.609 175.045 174.95 179.681 177.513C188.555 183.128 197.54 188.732 205.448 195.904C212.699 202.132 219.163 209.45 224.149 217.702C232.373 230.231 237.033 245.252 236.291 260.144C233.812 260.057 231.212 259.871 228.733 259.784C212.418 259.41 195.882 260.181 179.782 263.041C178.947 261.441 177.912 260.086 176.555 258.876C176.71 258.187 177.41 257.331 176.787 256.72C175.985 255.454 174.241 255.967 173.163 256.412C171.697 257.458 170.165 258.96 169.911 260.894C169.679 261.928 170.702 263.171 171.78 262.726C172.846 262.169 173.546 261.313 174.367 260.556C174.813 261.634 175.381 262.812 175.826 263.889C174.204 264.502 171.082 264.705 171.206 267.05C172.319 269.182 175.241 268.102 177.153 268.133C177.946 272.656 177.673 277.735 174.809 281.616C170.924 286.498 164.714 289.482 158.435 289.555C152.156 289.627 146.175 287.088 141.304 283.314C145.746 279.498 149.687 275.171 153.751 270.944C156.759 267.385 160.601 264.303 162.275 259.756C163.828 256.232 164.413 252.019 162.71 248.487C161.963 246.654 160.473 245.233 159.216 243.9C155.312 240.814 150.188 240.097 145.243 240.035C142.098 240.015 139.109 240.429 136.008 240.854C127.553 242.718 119.176 245.36 111.923 250.245C107.525 253.383 103.339 257.51 102.088 262.912C101.57 266.669 102.54 270.724 104.754 273.756C109.417 279.909 117.508 281.113 124.611 282.529L124.722 282.517C128.69 282.903 132.547 283.299 136.447 283.018C134.731 290.488 129.826 297.494 122.494 300.479C118.206 302.483 113.171 302.654 108.836 300.847C104.856 299.228 101.818 295.83 100.181 291.842C101.914 291.218 103.881 290.683 104.702 288.804C105.256 287.625 104.221 286.27 103.076 286.049C101.576 285.639 100.087 286.463 98.7987 287.042C98.5642 285.831 98.4409 284.609 98.4286 283.375C100.039 282.651 102.718 282.493 102.838 280.348C102.703 279.015 101.347 278.927 100.325 278.806C99.1463 278.251 97.8566 277.708 96.4895 277.509C94.578 277.477 92.6451 278.346 91.9468 280.325C83.6135 282.288 75.2467 283.919 66.9471 286.216C62.4808 287.564 57.9696 288.469 53.9376 290.784C52.4492 291.608 53.3627 293.985 55.0183 293.706C61.2188 292.855 67.1735 290.683 73.218 289.399C79.8955 287.715 86.7067 286.242 93.3955 284.669C93.4414 286.236 93.4872 287.803 93.7554 289.347C80.2025 295.205 66.9167 301.485 53.9204 308.41C49.9883 310.603 46.0562 312.796 42.1241 314.989C38.4722 307.724 35.6309 299.591 34.0231 291.447ZM142.432 301.161C150.119 298.364 158.823 300.068 165.562 304.551C165.185 306.385 164.687 308.119 164.066 309.754C160.915 315.235 155.151 319.297 148.862 320.381C142.717 321.787 136.159 320.203 130.688 317.163C129.465 316.164 128.253 315.276 127.34 314.021C130.202 307.895 136.032 303.378 142.432 301.161ZM130.431 254.551C129.719 254.174 128.629 253.386 129.095 252.441C130.038 250.662 131.938 249.46 133.637 248.502C138.025 246.376 143.003 245.649 147.904 245.267C149.293 245.688 150.528 246.798 151.64 247.808C152.752 248.818 152.61 250.741 151.355 251.654C149.045 253.234 146.334 254.181 143.578 254.683C139.167 255.465 134.445 256.503 130.431 254.551ZM122.309 256.381C122.222 258.859 118.589 259.563 117.176 257.797C116.53 256.964 116.84 255.586 117.673 254.941C119.105 253.561 122.407 254.014 122.309 256.381ZM453.47 408.853C444.838 435.655 430.146 460.262 411.25 481.028C391.421 502.562 367.266 520.154 340.627 532.048C329.985 536.714 319.175 540.836 307.898 543.658C274.822 552.945 239.415 553.6 206.057 545.629C189.495 541.688 173.508 535.668 158.553 527.636C144.911 520.369 132.233 511.545 120.355 501.743C130.6 499.811 139.785 494.057 146.891 486.605C153.409 479.997 158.569 472.18 163.029 464.097C168.189 467.393 174.425 469.12 180.67 468.715C179.044 477.073 178.842 486.187 182.438 494.018C183.062 495.751 184.941 496.572 186.507 495.404C186.951 494.236 187.05 492.992 186.926 491.769C186.477 486.202 186.138 480.623 187.267 475.121C189.775 459.938 199.898 445.67 214.351 439.834C223.727 435.969 234.874 436.303 243.814 441.463C244.781 442.151 246.182 442.683 246.428 444.005C247.141 446.627 248.188 449.216 249.335 451.682L249.435 451.559C253.222 460.158 259.763 467.131 266.781 473.27C272.664 478.177 278.359 483.439 285.33 486.889C287.932 488.198 290.711 489.04 293.302 490.238C296.392 490.824 299.504 491.633 302.583 492.108C312.398 493.699 322.632 492.778 331.808 489.158C341.085 485.416 348.857 477.896 352.527 468.657C360.256 449.58 357.901 427.366 348.35 409.471C344.843 402.529 339.725 396.31 333.419 391.67C327.87 387.853 320.934 385.858 314.2 386.987C313.1 387.21 312.256 387.745 311.301 388.29C305.495 383.039 297.723 379.445 289.678 379.808C282.965 380.037 276.49 383.721 272.794 389.37C269.576 394.185 268.703 399.998 268.942 405.699C263.462 404.793 257.528 406.065 253.298 409.747C247.29 414.732 244.619 422.747 244.592 430.271C244.816 431.371 244.361 432.427 244.584 433.527C243.862 433.039 242.828 432.806 242.005 432.44C232.699 428.103 221.719 428.313 212.187 431.745C198.012 436.992 187.109 449.094 182.255 463.279C178.887 463.282 175.498 463.063 172.252 462.043C169.939 461.379 167.705 460.369 165.47 459.36C169.263 451.344 172.334 442.839 174.382 434.214C177.728 435.111 181.15 434.541 184.462 433.982C190.751 432.898 197.016 430.47 201.613 425.965C207.742 419.958 208.722 409.644 204.081 402.591C206.846 399.955 208.621 396.408 208.684 392.585C208.879 386.728 205.828 380.974 201.102 377.522C201.388 373.677 199.128 370.2 196.626 367.646C192.265 363.372 186.04 361.755 180.194 361.671C172.893 361.623 165.671 363.474 158.872 366.181C148.974 370.435 140.49 377.578 134.197 386.407C130.013 392.779 127.041 400.039 126.015 407.664C125.816 409.031 125.628 410.509 126.33 411.898C126.685 412.086 127.164 412.375 127.519 412.563C128.731 412.329 129.419 411.361 129.751 410.205C131.379 404.091 133.229 397.955 136.625 392.673C141.209 385.812 147.249 380.039 154.102 375.643C163.199 370.122 174.02 366.111 184.757 367.946C188.636 368.565 192.028 371.029 194.053 374.417C186.772 372.345 178.659 372.042 171.717 375.549C169.251 376.696 166.34 377.887 164.909 380.389C164.065 382.046 165.512 384.145 167.39 383.843C170.901 383.04 174.055 380.925 177.722 380.555C183.645 379.172 190.124 379.977 195.672 382.673C198.396 384.081 200.866 386.302 201.724 389.246C202.816 392.279 201.819 395.747 199.943 398.294C193.437 392.777 183.678 391.741 176.236 395.86C174.859 396.672 174.783 399.262 176.617 399.638C180.563 399.801 184.486 399.742 188.442 400.016C193.122 400.779 197.392 404.164 198.764 408.853C199.979 413.108 198.783 417.943 195.607 420.958C190.3 426.208 182.79 428.538 175.478 429.5C175.988 427.877 177.153 426.076 176.418 424.354C175.672 422.521 173.459 421.734 171.637 422.592C170.795 425.371 169.842 428.161 168.767 430.851C163.037 448.605 155.285 466.337 142.54 480.196C135.745 487.393 127.205 493.98 116.982 495.012C114.115 495.525 111.236 494.806 108.391 494.419C100.665 492.393 94.4583 486.508 90.207 479.978C84.086 470.492 80.9419 459.36 79.2648 448.303C77.6875 437.125 77.6773 425.9 78.6783 414.686C80.3501 395.659 85.7674 377.039 94.3758 360.005C96.6767 360.559 98.8778 361.235 101.179 361.788C105.892 362.884 110.727 364.08 115.695 364.364L115.606 364.598C118.785 364.951 122.075 365.292 125.154 365.767C127.099 366.132 129.221 364.908 129.352 362.874C129.628 361.162 128.26 359.841 126.737 359.209C121.914 359.247 117.223 358.373 112.544 357.61C96.7715 354.824 81.1082 349.782 67.5419 341.048C64.5395 339.106 61.6259 336.931 58.8009 334.522C57.0882 333.123 55.4753 331.602 53.8513 329.97C50.7255 326.805 47.7996 323.396 45.4068 319.709C49.3389 317.516 53.2711 315.323 57.092 313.141C69.655 306.373 82.4964 300.137 95.4824 294.224C98.8682 302.19 107.075 307.872 115.832 307.886C119.986 316.784 128.294 323.467 137.753 325.992C143.511 327.431 149.901 327.348 155.356 324.665C165.12 320.199 171.1 309.38 171.157 298.823C171.222 296.122 170.841 293.466 170.906 290.766C174.216 289.085 177.47 286.848 179.501 283.612C182.408 279.053 182.714 273.185 181.52 268.029C188.176 267.245 194.789 267.139 201.367 266.7C210.18 266.147 219.037 266.039 227.805 266.164C230.395 266.24 233.084 266.193 235.674 266.268C233.434 284.118 224.759 300.485 213.702 314.398C208.319 321.115 202.468 327.655 195.983 333.474C193.152 336.566 189.831 339.258 187.234 342.439C186.323 343.429 186.158 345.129 187.148 346.04C188.283 347.272 190.027 346.759 191.305 346.069C195.981 343.464 200.001 339.916 204.021 336.367C208.551 332.317 212.715 327.968 216.756 323.519C227.893 337.101 243.782 346.61 260.889 350.384C279.019 354.279 298.375 351.428 314.671 342.711C332.666 333.037 347.01 317.221 355.828 298.931C363.493 283.677 367.267 266.57 367.563 249.477C367.562 236.119 365.649 222.729 361.348 210.142C358.785 202.543 355.144 195.389 351.304 188.48C350.013 186.814 348.822 185.026 347.631 183.238C355.802 186.342 363.63 190.491 371.258 194.885C400.935 211.984 425.73 237.433 441.694 267.702C449.342 282.309 455.191 297.996 458.507 314.163C465.581 345.329 463.311 378.449 453.47 408.853ZM253.473 419.271C255.792 415.557 259.924 413.12 264.38 412.782C269.27 412.289 273.984 414.507 277.965 417.249C281.334 419.49 283.782 422.611 286.341 425.72C287.576 426.831 289.145 429.03 291.055 427.939C293.254 426.37 291.607 423.393 290.749 421.571C287.744 416.262 283.272 411.998 278.235 408.802C277.635 408.414 276.934 408.148 276.223 407.771C274.951 402.96 275.635 397.502 278.588 393.388C280.53 390.385 283.695 388.382 287.106 387.701C292.718 386.573 298.532 388.568 303.025 391.932C310.331 397.593 315.419 406.846 314.805 416.337C314.728 417.804 314.552 419.393 315.365 420.771C316.177 422.148 318.122 422.513 319.377 421.6C321.043 420.31 321.497 418.131 321.751 416.197C322.27 412.44 321.766 408.562 321.062 404.929C319.969 400.773 317.999 396.819 315.617 393.243C320.584 392.405 325.309 394.734 329.179 397.487C332.694 400.051 335.719 403.337 338.101 406.914C345.691 418.72 349.827 433.008 348.884 447.023C348.369 454.147 346.964 461.361 343.68 467.754C340.774 473.436 335.843 477.974 330.189 480.902L330.089 481.025C321.491 484.811 311.846 486.009 302.498 484.595C288.738 482.841 276.351 474.662 267.539 464.101C262.122 458.249 256.904 452.153 253.708 444.954C252.382 441.833 250.935 438.611 250.598 435.277L250.709 435.266C249.949 429.955 250.588 424.053 253.473 419.271Z" fill="#262626"/>
<path d="M147.185 189.212C149.665 190.421 152.476 190.474 155.222 190.982C159.901 191.745 164.736 191.818 169.437 191.681C170.548 191.568 171.67 191.567 172.614 190.911C173.302 189.943 172.946 188.632 172.511 187.666C170.261 182.056 165.223 177.737 159.454 176.187C156.119 175.401 152.474 175.993 149.509 177.752C147.598 178.842 145.721 180.267 145.045 182.468C144.281 184.902 144.928 187.98 147.185 189.212Z" fill="#262626"/>
<path d="M66.3859 220.603C71.0735 218.109 75.6162 215.294 79.636 211.745C81.6016 210.087 83.8006 208.518 85.1432 206.25C86.6184 203.07 84.2144 199.271 81.1019 198.463C77.3003 197.5 73.0888 198.037 69.8234 200.163C63.7484 204.48 61.0999 212.717 62.9401 219.828C63.5528 221.45 65.3308 221.271 66.3859 220.603Z" fill="#262626"/>
<path d="M79.4988 255.987C85.7237 257.604 92.7458 255.997 97.6984 251.68C101.641 248.476 104.059 243.517 104.665 238.405C105.269 229.925 100.571 221.194 92.6772 217.5C87.852 215.293 82.0951 214.976 77.2852 217.37C75.5633 218.105 73.8414 218.84 72.2755 220.008C64.1125 225.884 61.4456 238.389 67.01 246.807C70.0369 251.217 74.4299 254.702 79.4988 255.987ZM84.5388 225.843C86.3494 224.874 89.0388 224.827 90.3519 226.715C92.2655 228.992 91.4132 232.782 88.7248 233.952C86.1588 235.221 83.2339 232.934 82.976 230.378C82.819 228.823 83.0616 226.778 84.5388 225.843Z" fill="#262626"/>
<path d="M150.925 230.705C158.243 236.478 169.511 235.789 176.407 229.593C181.048 225.532 183.343 219.351 183.293 213.294C183.154 207.471 180.038 202.173 175.634 198.576C171.341 194.968 165.46 193.429 159.949 194.434C157.271 194.592 154.782 195.517 152.55 196.753C149.895 198.255 147.752 200.38 146.098 202.904C140.361 211.678 142.451 224.601 150.925 230.705ZM154.126 206.809C155.258 205.796 156.892 205.295 158.259 205.494C161.06 206.558 162.586 210.557 160.588 213.004C158.935 215.528 154.577 214.621 153.419 212.044C152.584 210.444 152.682 208.077 154.126 206.809Z" fill="#262626"/>
<path d="M294.896 226.84C302.998 227.032 310.816 221.079 312.709 213.143C315.091 204.483 309.492 194.609 301.021 191.871C296.652 190.853 291.963 191.102 287.897 193.084C281.021 196.135 277.327 204.029 277.945 211.263C278.364 219.864 286.472 226.792 294.896 226.84ZM283.486 206.101C284.206 203.222 285.603 200.387 288.38 198.984C290.946 197.715 293.768 196.757 296.636 197.365C299.848 198.051 302.951 199.871 304.698 202.726C307.158 207.08 306.43 213.215 302.744 216.73C298.358 221.102 290.445 220.554 286.607 215.889C284.315 213.202 282.711 209.547 283.486 206.101Z" fill="#262626"/>
<path d="M178.521 257.219C177.633 258.431 179.29 259.274 180.268 258.951C185.99 257.812 191.622 255.784 197.334 254.535C203.7 253.106 210.067 251.678 216.578 250.572C218.111 250.192 220.223 249.979 220.588 248.034C220.576 246.801 219.275 246.146 218.163 246.258C214.252 246.428 210.418 247.377 206.518 247.658C199.828 248.109 193.384 249.882 187.107 252.199C183.985 253.524 180.742 254.75 178.521 257.219Z" fill="#262626"/>
<path d="M159.499 274.518C158.122 275.33 158.124 277.575 159.547 278.329C160.871 279.206 162.903 278.215 162.858 276.648C163.123 274.826 160.977 273.583 159.499 274.518Z" fill="#262626"/>
<path d="M119.673 290.324C121.329 290.044 121.794 287.977 121.104 286.699C120.37 286.1 119.413 285.523 118.436 285.846C117.125 286.203 116.815 287.581 116.927 288.693C117.472 289.648 118.473 290.669 119.673 290.324Z" fill="#262626"/>
<path d="M169.358 276.553C168.547 277.421 168.938 279.065 170.094 279.398C171.272 279.952 172.849 278.895 172.604 277.573C172.78 275.983 170.345 275.219 169.358 276.553Z" fill="#262626"/>
<path d="M310.38 474.82C320.083 476.422 330.023 469.245 332.326 459.808C335.892 446.202 327.553 430.317 313.88 426.084C309.145 424.766 303.632 424.649 299.189 427.343C298.034 428.133 296.99 428.912 295.835 429.702C292.393 432.294 290.096 436.23 288.821 440.288C286.661 447.803 288.28 456.058 292.631 462.467C296.738 468.675 303.077 473.648 310.38 474.82ZM294.112 441.55C294.765 438.004 296.573 434.791 299.261 432.499C301.671 430.796 304.671 430.494 307.449 430.213C312.617 430.253 317.398 433.138 320.825 437.058C326.009 442.821 328.306 451.121 326.357 458.502C325.437 461.625 323.851 464.816 321.241 466.764C318.309 468.856 314.531 469.237 311.107 468.684C305.283 467.701 300.278 463.715 297.307 458.739C294.212 453.663 292.906 447.397 294.112 441.55Z" fill="#262626"/>
<path d="M84.5393 225.843C86.3499 224.875 89.0393 224.828 90.3524 226.716C92.266 228.993 91.4137 232.783 88.7253 233.952C86.2704 235.21 83.2344 232.935 82.9765 230.379C82.7083 228.835 83.0621 226.778 84.5393 225.843Z" fill="white"/>
<path d="M154.126 206.809C155.259 205.797 156.781 205.306 158.259 205.494C161.06 206.558 162.587 210.558 160.589 213.004C158.824 215.54 154.589 214.732 153.42 212.044C152.585 210.445 152.682 208.077 154.126 206.809Z" fill="white"/>
<path d="M172.661 218.072C173.172 217.571 173.939 217.382 174.517 217.548C175.807 218.091 176.431 219.824 175.642 220.914C174.866 222.115 172.909 221.639 172.341 220.462C171.929 219.717 171.94 218.706 172.661 218.072Z" fill="white"/>
<path d="M173.175 210.947C173.375 210.703 173.808 210.547 174.153 210.624C174.853 210.89 175.165 211.757 174.666 212.369C174.277 212.969 173.244 212.737 172.954 212.092C172.809 211.77 172.864 211.203 173.175 210.947Z" fill="white"/>
<path d="M95.5677 240.558C96.0785 240.058 96.8451 239.868 97.4232 240.034C98.7128 240.578 99.3368 242.311 98.5487 243.401C97.7719 244.601 95.8155 244.125 95.2476 242.948C94.8357 242.204 94.8459 241.192 95.5677 240.558Z" fill="white"/>
<path d="M96.0825 233.434C96.2823 233.189 96.7156 233.033 97.0602 233.111C97.7605 233.377 98.0726 234.243 97.573 234.855C97.1846 235.455 96.1509 235.223 95.8613 234.579C95.7166 234.257 95.7716 233.69 96.0825 233.434Z" fill="white"/>
<path d="M133.527 248.514C137.915 246.387 142.893 245.66 147.794 245.278C149.195 245.81 150.418 246.809 151.519 247.708C152.631 248.719 152.489 250.641 151.245 251.665C148.935 253.245 146.224 254.192 143.468 254.695C139.179 255.577 134.557 256.492 130.432 254.551C129.721 254.174 128.631 253.386 129.097 252.441C130.04 250.662 131.828 249.471 133.527 248.514Z" fill="white"/>
<path d="M117.794 255.041C119.104 253.561 122.417 254.125 122.419 256.37C122.443 258.837 118.699 259.552 117.286 257.786C116.529 256.964 116.961 255.686 117.794 255.041Z" fill="white"/>
<path d="M319.849 184.92C318.84 187.154 318.576 190.1 316.377 191.669C315.133 192.692 313.232 191.649 312.975 190.216C312.484 187.571 313.003 184.937 312.968 182.359C312.984 175.846 310.867 169.325 306.861 164.116C304.291 160.896 300.554 158.354 296.387 158.213C291.775 158.118 287.298 160.478 284.523 164.125C288.117 168.59 292.177 173.231 293.216 179.076C293.396 180.854 293.698 182.732 293.421 184.444C292.934 186.289 290.323 187.114 288.955 185.792C287.609 184.693 287.974 182.748 287.484 181.226C286.669 177.604 285.388 173.804 282.54 171.173C279.627 168.998 276.602 166.833 272.834 166.203C270.211 165.795 267.321 166.086 265.256 167.866C262.235 170.192 261.417 174.315 261.787 177.982C262.324 182.194 264.184 186.16 266.976 189.358C269.534 191.345 273.447 192.297 274.794 195.641C275.586 197.918 272.976 199.865 270.997 199.167C267.306 198.193 264.026 195.717 260.08 195.554C256.335 195.146 252.046 196.028 249.804 199.398C247.196 203.59 247.779 209.368 250.65 213.344C253.666 217.642 258.447 220.527 263.516 221.812C265.817 222.365 268.352 223.008 270.74 222.205C271.84 221.982 272.719 222.904 273.653 223.258C275.732 223.834 277.655 225.1 278.535 227.144C280.128 230.687 280.854 234.543 281.468 238.41C282.707 244.01 283.19 249.911 282.651 255.69C282.426 264.581 279.922 273.14 276.929 281.3C273.17 290.772 267.433 299.546 260.071 306.688C253.398 312.862 246.124 318.647 237.859 322.4C234.971 323.814 231.748 324.139 228.849 325.442C244.063 338.275 264.441 345.536 284.52 343.173C296.622 341.839 308.298 337.405 318.282 330.672C327.529 318.85 336.864 306.795 342.753 292.842C349.706 277.211 352.524 259.527 349.364 242.671C345.943 221.014 334.512 201.176 319.849 184.92ZM312.718 213.254C310.825 221.191 303.007 227.143 294.905 226.951C286.481 226.903 278.484 219.964 277.854 211.497C277.347 204.251 280.93 196.369 287.806 193.317C291.872 191.335 296.561 191.087 300.93 192.105C309.489 194.609 314.989 204.606 312.718 213.254Z" fill="#986C59"/>
<path d="M351.505 188.235C352.572 188.801 353.64 189.367 354.619 190.166C359.945 194.007 365.161 197.858 370.299 202.054C377.506 207.838 384.002 214.366 390.698 220.65C404.559 235.641 416.477 252.511 425.196 271.051C427.279 276.117 429.806 281.138 431.355 286.482C432.291 289.082 433.461 291.77 434.186 294.503C435.669 300.303 437.708 306.047 438.425 312.036C441.101 321.869 441.121 332.082 442.142 342.194C442.229 351.952 442.105 361.843 440.835 371.513C438.167 394.008 431.174 415.93 421.091 436.144C418.45 441.125 416.154 446.183 412.925 450.887C402.583 468.545 389.362 484.36 374.75 498.632C370.319 502.559 366.033 506.808 361.347 510.424C353.562 516.711 345.399 522.586 336.847 527.939C330.838 531.801 324.539 535.019 318.375 538.447C314.976 540.362 311.154 541.421 307.777 543.558C274.69 552.734 239.295 553.5 205.936 545.529C189.374 541.588 173.387 535.568 158.322 527.547C144.679 520.28 132.002 511.457 120.123 501.655C130.368 499.723 139.554 493.969 146.659 486.516C153.177 479.909 158.337 472.091 162.798 464.008C168.068 467.293 174.193 469.032 180.439 468.626C178.813 476.985 178.61 486.098 182.207 493.93C182.831 495.663 184.709 496.483 186.275 495.315C188.575 494.746 189.44 492.189 190.127 490.099C191.91 483.296 194.049 476.682 196.766 470.234C198.617 465.22 202.125 461.049 205.9 457.301C208.987 454.519 212.196 451.838 215.962 450.223C218.773 449.154 221.629 448.529 224.473 447.793C228.962 446.666 233.652 447.54 237.943 448.903C241.289 449.8 244.103 452.098 247.726 452.406C248.037 452.15 248.67 451.749 248.981 451.493L249.081 451.371C252.868 459.969 259.409 466.942 266.427 473.082C272.31 477.988 278.005 483.251 284.976 486.701C287.578 488.01 290.357 488.852 292.948 490.05C296.038 490.636 299.039 491.455 302.229 491.919C312.043 493.511 322.278 492.59 331.454 488.97C340.731 485.227 348.503 477.707 352.162 468.358C359.89 449.28 357.536 427.067 347.984 409.172C354.269 402.476 359.83 395.292 364.902 387.708C370.684 379.378 375.021 370.073 378.557 360.623C385.852 340.579 389.254 318.683 386.323 297.425C384.196 280.802 378.192 264.682 369.121 250.443C368.721 249.81 368.12 249.421 367.631 249.022C367.741 235.652 365.717 222.274 361.304 209.697C358.986 202.298 355.457 195.133 351.505 188.235Z" fill="#986C59"/>
<path d="M94.3552 359.783C96.6562 360.337 98.8573 361.013 101.158 361.566C99.4486 363.535 98.5617 365.87 97.6747 368.204C95.014 375.208 93.076 382.7 92.9384 390.235C92.8304 393.614 92.2779 397.037 92.5144 400.493C93.0211 407.739 94.428 415.005 97.5681 421.648C100.196 427.669 104.957 432.577 110.661 435.706C116.576 438.701 124.145 439.172 130.11 435.988C132.687 434.83 134.741 432.939 136.796 431.048C142.78 424.719 146.34 416.614 150.756 409.208C153.986 404.504 156.982 399.712 160.579 395.308C163.343 391.549 166.963 388.489 170.472 385.441C172.748 383.527 175.414 382.136 177.824 380.433C183.857 379.039 190.226 379.855 195.774 382.551C198.498 383.959 200.968 386.18 201.826 389.124C202.918 392.157 201.921 395.625 200.045 398.172C193.539 392.655 183.791 391.73 176.338 395.738C174.85 396.561 174.774 399.151 176.608 399.527C180.554 399.69 184.476 399.631 188.433 399.905C193.101 400.557 197.383 404.053 198.754 408.742C199.97 412.997 198.774 417.833 195.609 420.958C190.302 426.209 182.792 428.538 175.591 429.49C176.089 427.755 177.266 426.065 176.52 424.232C175.773 422.399 173.561 421.612 171.739 422.469C171.008 425.237 169.944 428.039 168.98 430.718C163.25 448.471 155.498 466.204 142.753 480.063C135.958 487.26 127.418 493.847 117.306 494.867C114.428 495.27 111.56 494.661 108.715 494.275C100.989 492.248 94.7824 486.364 90.5311 479.833C84.4101 470.348 81.1548 459.226 79.4776 448.17C77.9116 437.103 77.8901 425.767 78.8912 414.553C80.3295 395.437 85.7469 376.817 94.3552 359.783Z" fill="#986C59"/>
<path d="M336.314 419.218C334.221 415.163 330.584 412.499 327.558 409.213C325.901 407.247 323.544 406.138 321.309 405.129C322.024 408.873 322.516 412.64 321.997 416.397C321.632 418.342 321.179 420.521 319.624 421.8C318.38 422.824 316.424 422.348 315.611 420.97C314.799 419.593 315.086 417.993 315.051 416.537C313.228 415.149 311.815 413.383 309.802 412.352C307.323 411.143 305.942 408.588 303.874 407.001C300.025 403.348 296.043 399.484 290.652 398.344C287.873 397.502 284.317 397.861 282.43 400.297C280.198 402.655 279.29 405.89 278.359 408.902C283.397 412.098 287.979 416.35 290.874 421.671C291.731 423.493 293.378 426.47 291.179 428.039C289.158 429.141 287.7 426.93 286.465 425.82C284.031 425.056 281.851 423.48 279.805 422.115C276.669 419.961 272.812 419.565 269.144 418.813C266.077 418.449 262.587 418.352 259.977 420.299C256.323 423.025 254.271 427.161 252.908 431.452C252.376 432.853 252.211 434.553 250.845 435.477L250.734 435.488C251.081 438.933 252.629 442.032 253.843 445.165C257.051 452.475 262.379 458.56 267.675 464.312C276.486 474.873 288.751 482.952 302.634 484.806C311.87 486.231 321.615 484.911 330.225 481.236L330.325 481.113C330.469 480.313 330.723 479.502 331.223 478.89C332.888 476.477 334.453 474.186 335.884 471.684C337.881 468.115 339.067 464.291 340.241 460.356C343.011 451.096 342.457 441.161 340.604 431.694C339.833 427.394 338.284 423.172 336.314 419.218ZM332.328 459.807C330.025 469.245 320.085 476.422 310.382 474.819C302.968 473.659 296.74 468.675 292.745 462.455C288.393 456.047 286.774 447.791 288.935 440.276C290.209 436.219 292.506 432.283 295.949 429.69C297.104 428.9 298.148 428.121 299.303 427.331C303.634 424.649 309.147 424.766 313.993 426.073C327.667 430.306 336.005 446.19 332.328 459.807Z" fill="#986C59"/>
<path d="M54.6048 206.189C56.8578 202.931 59.3331 199.65 62.3313 197.103C61.6891 199.637 59.8683 201.617 58.7366 203.752C54.2989 212.057 49.1608 220.097 46.1239 228.935C42.2774 239.763 41.4212 251.299 41.7761 262.601C42.3797 278.593 47.3172 294.147 54.3649 308.366C50.4328 310.558 46.5007 312.751 42.5686 314.944C38.35 307.624 35.6309 299.592 34.012 291.336C30.4375 271.491 34.1085 251.139 40.9817 232.485C44.7741 223.346 49.1445 214.374 54.6048 206.189Z" fill="white"/>
<path d="M224.262 217.691C232.486 230.22 237.134 245.13 236.403 260.133C233.925 260.047 231.324 259.86 228.846 259.773C229.823 247.214 229.1 234.49 225.411 222.402C224.932 220.991 224.541 219.347 224.262 217.691Z" fill="white"/>
<path d="M45.4963 319.475C49.4284 317.282 53.3605 315.089 57.2926 312.896C61.7886 319.627 67.1511 326.046 73.7125 330.996C77.8608 334.282 82.2089 337.323 86.6457 340.131C97.6765 347.1 109.118 353.691 121.713 357.246C123.447 357.745 125.359 357.776 126.827 358.975C122.115 359.002 117.313 358.139 112.633 357.377C96.861 354.591 81.1977 349.549 67.6314 340.815C58.9801 335.177 51.0719 328.005 45.4963 319.475Z" fill="white"/>
<path d="M227.993 265.809C230.571 265.773 233.272 265.837 235.861 265.913C233.733 283.752 224.946 300.13 213.89 314.042C208.395 320.771 202.655 327.3 196.17 333.118C196.858 331.028 198.634 329.726 199.922 328.025C214.765 310.474 224.569 288.605 227.993 265.809Z" fill="white"/>
<path d="M136.454 240.81C139.554 240.385 142.543 239.971 145.688 239.99C150.523 240.063 155.647 240.781 159.55 243.867C160.93 245.299 162.309 246.732 163.044 248.454C164.748 251.986 164.163 256.198 162.61 259.723C160.936 264.27 157.094 267.352 154.085 270.911C150.022 275.137 146.08 279.464 141.638 283.28C146.509 287.054 152.602 289.582 158.77 289.521C164.938 289.46 171.27 286.576 175.144 281.582C178.007 277.701 178.18 272.745 177.487 268.1C175.576 268.068 172.654 269.149 171.541 267.016C171.416 264.671 174.539 264.468 176.161 263.856C175.715 262.778 175.259 261.589 174.702 260.523C173.88 261.279 173.081 262.258 172.115 262.693C171.037 263.138 170.013 261.894 170.246 260.861C170.5 258.927 171.921 257.436 173.498 256.379C174.575 255.933 176.32 255.421 177.121 256.687C177.744 257.297 177.167 258.254 176.89 258.843C178.247 260.053 179.282 261.408 180.116 263.007C196.217 260.148 212.642 259.388 229.068 259.751C230.045 247.192 229.322 234.468 225.633 222.38C225.131 220.747 224.752 219.213 224.473 217.558C219.497 209.416 213.034 202.098 205.771 195.759C197.974 188.576 188.989 182.972 180.005 177.368C175.368 174.805 170.754 172.465 165.74 170.613C162.827 169.56 159.881 168.174 156.714 167.932C151.29 167.581 145.79 168.698 140.724 170.781C133.437 174.21 128.264 180.794 121.122 184.546C113.113 188.609 103.657 190.574 94.709 188.671C90.2294 187.664 85.7498 186.656 81.205 187.227C74.0819 187.834 67.4064 191.763 62.6434 196.846C62.0012 199.381 60.1804 201.361 59.06 203.606C54.6223 211.912 49.473 219.841 46.4472 228.79C42.6008 239.618 41.7445 251.154 42.0994 262.456C42.8142 278.436 47.6405 294.002 54.6882 308.22C67.6845 301.296 80.9703 295.016 94.5232 289.158C94.2551 287.613 94.2092 286.046 94.1633 284.479C87.4746 286.053 80.7745 287.514 73.9858 289.21C67.8414 290.616 61.9866 292.666 55.7861 293.516C54.1305 293.796 53.217 291.418 54.7055 290.595C58.7375 288.279 63.3598 287.364 67.715 286.026C76.0033 283.618 84.3814 282.099 92.7146 280.135C93.4129 278.157 95.3571 277.399 97.2574 277.32C98.6245 277.518 99.9141 278.062 101.093 278.616C102.115 278.738 103.471 278.825 103.606 280.159C103.374 282.315 100.696 282.473 99.1965 283.186C99.3198 284.408 99.4432 285.63 99.5666 286.853C100.855 286.274 102.344 285.45 103.844 285.86C105.1 286.07 106.013 287.325 105.469 288.614C104.749 290.371 102.682 291.028 100.949 291.652C102.586 295.641 105.623 299.038 109.603 300.657C113.928 302.354 118.962 302.182 123.261 300.289C130.482 297.315 135.499 290.298 137.215 282.829C133.326 283.221 129.358 282.836 125.49 282.328L125.379 282.339C118.287 281.034 110.296 279.708 105.522 273.567C103.297 270.424 102.337 266.479 102.856 262.723C104.107 257.32 108.293 253.194 112.691 250.056C119.633 245.426 127.998 242.673 136.454 240.81ZM118.436 285.846C119.403 285.412 120.359 285.989 121.104 286.7C121.905 287.966 121.329 290.045 119.674 290.324C118.474 290.67 117.484 289.759 116.927 288.693C116.815 287.582 117.125 286.203 118.436 285.846ZM111.51 295.077C110.544 296.634 108.12 294.858 109.208 293.401C110.284 291.833 112.598 293.62 111.51 295.077ZM108.711 285.144C108.945 285.233 109.312 285.532 109.445 285.743C109.479 286.077 109.546 286.744 109.58 287.077C109.036 287.244 108.38 287.423 107.813 287.367C107.657 286.934 107.501 286.501 107.356 286.179C107.656 285.812 108.189 285.533 108.711 285.144ZM162.97 276.637C163.016 278.204 160.994 279.306 159.66 278.318C158.236 277.564 158.234 275.319 159.612 274.506C160.978 273.583 163.124 274.825 162.97 276.637ZM167.919 268.953C169.297 268.141 170.244 270.851 168.833 271.331C167.444 272.032 166.397 269.444 167.919 268.953ZM172.728 277.673C172.863 279.006 171.286 280.063 170.218 279.498C169.062 279.165 168.561 277.532 169.482 276.653C170.348 275.219 172.782 275.983 172.728 277.673ZM206.408 247.669C210.308 247.388 214.141 246.44 218.053 246.269C219.164 246.157 220.454 246.701 220.478 248.045C220.212 249.868 218.001 250.204 216.457 250.472C210.056 251.567 203.69 252.995 197.212 254.435C191.501 255.684 185.991 257.812 180.146 258.851C179.057 259.185 177.512 258.331 178.4 257.119C180.62 254.65 183.975 253.413 186.986 252.099C193.285 250.004 199.84 248.22 206.408 247.669ZM145.058 182.579C145.734 180.378 147.611 178.954 149.521 177.863C152.487 176.104 156.131 175.512 159.466 176.298C165.335 177.726 170.385 182.156 172.524 187.777C173.069 188.732 173.426 190.043 172.627 191.022C171.794 191.667 170.572 191.791 169.56 191.781C164.737 191.818 160.025 191.845 155.234 191.094C152.6 190.574 149.777 190.41 147.198 189.323C144.93 187.98 144.282 184.902 145.058 182.579ZM145.988 202.916C147.641 200.391 149.896 198.255 152.439 196.764C154.672 195.528 157.149 194.493 159.838 194.446C165.35 193.44 171.23 194.98 175.523 198.588C179.927 202.184 183.055 207.594 183.183 213.306C183.233 219.363 180.938 225.544 176.296 229.604C169.389 235.69 158.132 236.489 150.814 230.717C142.452 224.601 140.361 211.678 145.988 202.916ZM69.8369 200.274C73.1022 198.148 77.3025 197.5 81.1041 198.463C84.3277 199.26 86.7429 203.17 85.2677 206.35C83.9251 208.618 81.6037 210.087 79.7605 211.845C75.7295 215.282 71.1868 218.098 66.4992 220.592C65.333 221.271 63.555 221.45 62.9535 219.94C61.1133 212.829 63.7618 204.591 69.8369 200.274ZM72.2889 220.12C73.8548 218.952 75.5879 218.328 77.2986 217.481C82.1197 215.199 87.8766 215.516 92.6906 217.612C100.462 221.205 105.171 230.047 104.679 238.516C104.072 243.629 101.643 248.476 97.7119 251.792C92.7481 255.997 85.837 257.593 79.5122 256.098C74.4433 254.814 70.0503 251.328 67.1346 246.908C61.559 238.378 64.126 225.995 72.2889 220.12Z" fill="#F1E4DC"/>
<path d="M386.567 297.625C384.44 281.002 378.435 264.882 369.365 250.643C368.964 250.01 368.363 249.621 367.874 249.222C367.579 266.314 363.805 283.421 356.139 298.676C347.321 316.965 332.977 332.782 314.971 342.344C298.676 351.061 279.319 353.913 261.189 350.017C244.094 346.355 228.193 336.734 217.056 323.153C213.026 327.713 208.863 332.062 204.321 336C200.301 339.549 196.281 343.098 191.605 345.703C190.45 346.493 188.583 346.906 187.448 345.673C186.447 344.652 186.735 343.051 187.534 342.072C190.12 338.78 193.441 336.088 196.283 333.107C196.97 331.017 198.747 329.715 200.035 328.014C214.866 310.352 224.559 288.494 228.094 265.686C219.215 265.572 210.48 265.78 201.656 266.222C195.078 266.661 188.354 266.779 181.809 267.551C183.003 272.707 182.686 278.464 179.79 283.134C177.87 286.359 174.605 288.484 171.306 290.277C171.241 292.977 171.622 295.633 171.557 298.334C171.512 309.003 165.52 319.71 155.756 324.176C150.302 326.859 143.911 326.942 138.142 325.392C128.682 322.867 120.375 316.184 116.221 307.286C107.464 307.272 99.257 301.589 95.8713 293.624C82.8852 299.537 70.0439 305.773 57.4809 312.541C61.9769 319.272 67.3394 325.69 73.9008 330.641C78.0491 333.926 82.3972 336.967 86.834 339.775C97.8648 346.744 109.306 353.335 121.901 356.891C123.635 357.389 125.547 357.421 127.015 358.62C128.427 359.263 129.895 360.462 129.63 362.285C129.498 364.319 127.377 365.543 125.432 365.178C122.23 364.603 119.063 364.362 115.873 363.898C114.974 364.999 114.786 366.477 114.465 367.744C112.228 376.726 112.293 386.261 114.113 395.395C116.343 404.15 118.596 413.127 123.527 420.824C123.401 417.357 126.388 414.698 126.607 411.309C125.806 410.042 126.105 408.553 126.181 407.086C127.208 399.461 130.18 392.202 134.363 385.83C140.557 377.122 149.03 369.869 159.05 365.714C165.849 363.007 173.071 361.156 180.372 361.205C186.329 361.277 192.554 362.894 196.803 367.18C199.429 369.834 201.577 373.321 201.28 377.056C206.006 380.507 209.045 386.15 208.862 392.118C208.799 395.941 206.913 399.499 204.148 402.136C208.8 409.3 207.809 419.503 201.68 425.509C197.083 430.014 190.817 432.443 184.528 433.527C181.217 434.085 177.795 434.655 174.449 433.758C172.412 442.495 169.33 450.889 165.537 458.905C167.76 459.803 169.995 460.812 172.307 461.477C175.553 462.496 178.932 462.604 182.31 462.712C187.054 448.538 198.067 436.426 212.254 431.29C221.775 427.747 232.866 427.526 242.061 431.874C242.705 431.584 243.36 431.406 244.116 431.105C244.293 430.638 244.459 430.06 244.637 429.593C244.652 421.958 247.334 414.054 253.231 409.081C257.462 405.399 263.395 404.126 268.875 405.033C268.758 399.432 269.62 393.507 272.85 388.803C276.545 383.155 283.021 379.47 289.733 379.242C297.779 378.879 305.439 382.483 311.356 387.724C312.311 387.178 313.156 386.644 314.256 386.421C320.989 385.292 327.926 387.286 333.475 391.104C339.88 395.621 344.998 401.84 348.394 408.794C354.678 402.098 360.239 394.914 365.311 387.33C371.094 379 375.43 369.695 378.967 360.245C386.084 340.668 389.387 318.894 386.567 297.625Z" fill="#F1E4DC"/>
<path d="M288.379 198.984C290.834 197.726 293.767 196.756 296.635 197.365C299.847 198.051 302.95 199.871 304.697 202.725C307.157 207.079 306.429 213.215 302.732 216.619C298.346 220.99 290.433 220.442 286.594 215.778C284.302 213.09 282.821 209.536 283.474 205.99C284.204 203.222 285.602 200.387 288.379 198.984Z" fill="#EF8CAD"/>
<path d="M299.261 432.499C301.671 430.796 304.671 430.493 307.449 430.213C312.617 430.253 317.409 433.249 320.825 437.058C326.009 442.821 328.306 451.12 326.257 458.624C325.337 461.747 323.751 464.938 321.03 466.897C318.098 468.989 314.32 469.37 310.896 468.818C305.072 467.834 300.067 463.849 297.095 458.873C294.212 453.663 292.806 447.519 294.001 441.561C294.654 438.015 296.573 434.79 299.261 432.499Z" fill="#EF8CAD"/>
<path d="M347.83 182.993C356.013 186.208 363.829 190.247 371.457 194.64C401.134 211.739 425.929 237.188 441.904 267.568C449.553 282.175 455.402 297.862 458.717 314.029C465.58 345.329 463.421 378.438 453.469 408.853C444.837 435.655 430.145 460.262 411.249 481.028C391.532 502.551 367.376 520.143 340.626 532.048C329.984 536.714 319.175 540.836 307.897 543.658C311.162 541.532 314.973 540.362 318.495 538.547C324.659 535.118 330.958 531.901 336.966 528.039C345.408 522.697 353.571 516.822 361.466 510.524C366.153 506.908 370.439 502.659 374.869 498.732C389.481 484.46 402.703 468.645 413.044 450.987C416.163 446.295 418.57 441.225 421.21 436.243C431.283 415.919 438.286 394.108 440.955 371.612C442.224 361.943 442.349 352.052 442.262 342.294C441.241 332.182 441.221 321.969 438.545 312.136C437.828 306.147 435.789 300.403 434.305 294.603C433.692 291.859 432.534 289.281 431.475 286.582C429.926 281.238 427.41 276.328 425.315 271.151C416.708 252.6 404.679 235.74 390.818 220.75C384.122 214.466 377.626 207.938 370.419 202.154C365.392 197.947 360.065 194.106 354.738 190.266C353.771 189.578 352.704 189.012 351.625 188.335C350.212 186.569 349.021 184.781 347.83 182.993Z" fill="#F1E4DC"/>
<path d="M273.886 223.347C275.965 223.923 277.888 225.188 278.757 227.121C280.349 230.665 281.075 234.52 281.69 238.387C282.94 244.098 283.412 249.888 282.873 255.667C282.636 264.447 280.144 273.118 277.151 281.278C273.392 290.75 267.654 299.523 260.293 306.665C253.619 312.839 246.345 318.625 238.08 322.377C235.181 323.68 231.97 324.117 229.07 325.42C226.157 323.244 223.543 320.701 220.929 318.159C226.313 311.441 230.962 304.125 234.789 296.442C240.145 295.003 245.533 292.776 249.752 288.982C264.599 275.922 274.35 256.864 275.165 237.137C275.351 233.414 274.636 229.67 274.6 225.969C274.632 225.18 274.198 224.213 273.886 223.347Z" fill="white"/>
<path d="M97.5627 368.215C98.5608 365.869 99.4477 363.534 101.046 361.577C105.87 362.662 110.595 363.869 115.563 364.153L115.463 364.275C114.564 365.377 114.376 366.855 114.055 368.122C111.818 377.104 111.882 386.639 113.702 395.772C115.933 404.528 118.186 413.505 123.116 421.202C122.991 417.735 125.978 415.076 126.197 411.686C126.553 411.875 127.031 412.163 127.387 412.352C128.598 412.117 129.286 411.15 129.507 410.005C131.135 403.891 132.986 397.755 136.482 392.351C140.954 385.501 147.105 379.716 153.958 375.32C163.055 369.8 173.876 365.789 184.613 367.624C188.492 368.243 191.884 370.707 193.91 374.094C186.629 372.023 178.516 371.719 171.573 375.226C169.118 376.484 166.196 377.565 164.876 380.056C164.033 381.712 165.479 383.811 167.246 383.521C170.757 382.717 173.912 380.603 177.579 380.233C175.18 382.047 172.503 383.327 170.226 385.241C166.717 388.289 163.208 391.337 160.333 395.107C156.737 399.511 153.74 404.304 150.511 409.008C145.983 416.425 142.534 424.518 136.55 430.847C134.607 432.727 132.442 434.63 129.864 435.788C123.911 439.083 116.453 438.601 110.416 435.506C104.712 432.377 99.9508 427.469 97.3226 421.448C94.1825 414.805 92.7755 407.538 92.2688 400.293C92.0323 396.837 92.5848 393.413 92.6928 390.035C93.0751 382.7 94.902 375.219 97.5627 368.215Z" fill="white"/>
<path d="M278.721 393.599C280.675 390.708 283.829 388.593 287.24 387.912C292.851 386.785 298.666 388.78 303.158 392.143C310.576 397.793 315.663 407.046 314.939 416.548C313.126 415.272 311.702 413.395 309.701 412.475C307.221 411.265 305.841 408.711 303.661 407.135C299.824 403.593 295.83 399.618 290.439 398.478C287.66 397.636 284.104 397.995 282.217 400.431C279.986 402.789 279.077 406.024 278.258 409.025C277.546 408.648 276.957 408.37 276.257 408.104C275.085 403.171 275.769 397.714 278.721 393.599Z" fill="white"/>
<path d="M315.751 393.454C320.718 392.616 325.443 394.945 329.313 397.698C332.827 400.262 335.853 403.548 338.135 407.247C345.836 419.042 349.861 433.342 348.918 447.356C348.402 454.481 346.997 461.694 343.714 468.088C340.807 473.769 335.877 478.308 330.223 481.236C330.367 480.436 330.633 479.735 331.121 479.012C332.786 476.599 334.462 474.297 335.882 471.684C337.879 468.115 339.065 464.291 340.239 460.356C343.12 451.085 342.455 441.161 340.602 431.694C339.931 427.272 338.394 423.161 336.301 419.107C334.208 415.052 330.56 412.277 327.545 409.102C325.888 407.136 323.531 406.027 321.285 404.907C320.092 400.873 318.132 397.03 315.751 393.454Z" fill="white"/>
<path d="M253.472 419.272C255.791 415.558 259.923 413.12 264.38 412.783C269.269 412.289 274.094 414.497 278.075 417.238C281.445 419.48 283.892 422.6 286.451 425.71C284.017 424.945 281.837 423.369 279.68 422.015C276.544 419.862 272.687 419.465 269.019 418.713C265.963 418.46 262.462 418.252 259.852 420.2C256.198 422.926 254.146 427.062 252.783 431.353C252.251 432.753 252.086 434.454 250.72 435.378C249.948 429.955 250.587 424.053 253.472 419.272Z" fill="white"/>
<path d="M187.154 475.133C189.663 459.949 199.785 445.682 214.238 439.845C223.615 435.98 234.761 436.314 243.701 441.474C244.669 442.162 246.07 442.694 246.315 444.017C247.029 446.639 248.076 449.227 249.223 451.693C248.912 451.949 248.279 452.35 247.968 452.606C244.456 452.287 241.531 450 238.185 449.103C233.794 447.862 229.203 446.866 224.715 447.993C221.87 448.729 218.915 449.476 216.204 450.423C212.316 451.938 209.118 454.731 206.142 457.5C202.478 461.238 198.859 465.42 197.007 470.434C194.291 476.882 192.052 483.619 190.369 490.299C189.682 492.389 188.917 494.824 186.517 495.515C186.961 494.348 187.06 493.103 186.925 491.769C186.253 486.224 185.903 480.535 187.154 475.133Z" fill="white"/>
<path d="M107.365 286.29C107.776 285.912 108.187 285.533 108.72 285.255C108.953 285.344 109.32 285.643 109.565 285.843C109.599 286.177 109.666 286.843 109.711 287.288C109.167 287.455 108.511 287.634 107.944 287.578C107.666 287.045 107.521 286.723 107.365 286.29Z" fill="#362E23"/>
<g opacity="0.97">
<path d="M167.918 268.954C169.296 268.141 170.354 270.841 168.821 271.22C167.443 272.032 166.396 269.444 167.918 268.954Z" fill="black"/>
</g>
<g opacity="0.98">
<path d="M109.207 293.401C110.284 291.833 112.597 293.62 111.509 295.077C110.544 296.634 108.108 294.746 109.207 293.401Z" fill="black"/>
</g>
<path d="M127.228 314.032C130.312 307.884 136.031 303.378 142.43 301.16C150.118 298.364 158.821 300.067 165.56 304.551C165.184 306.385 164.686 308.119 164.065 309.753C158.527 306.047 151.458 304.964 144.946 306.07C138.757 307.031 133.26 311.515 130.687 317.163C129.352 316.175 128.14 315.287 127.228 314.032Z" fill="#EC6999"/>
<path d="M130.577 317.175C133.261 311.516 138.658 307.155 144.836 306.082C151.347 304.976 158.416 306.059 163.954 309.765C160.692 315.258 155.039 319.309 148.739 320.282C142.606 321.799 136.047 320.215 130.577 317.175Z" fill="#EF8CAD"/>
<path d="M243.827 431.583C244.005 431.116 244.171 430.538 244.348 430.071C244.572 431.171 244.117 432.227 244.34 433.327C243.506 432.85 242.584 432.607 241.761 432.241C242.528 432.051 243.183 431.873 243.827 431.583Z" fill="#8E7351"/>
<path d="M87.4763 110.258C98.7248 110.964 104.061 123.444 103.485 134.679C102.91 145.914 90.3535 153.099 79.1049 152.393C67.8564 151.688 62.29 143.439 62.9957 132.191C63.7014 120.942 76.3579 109.539 87.4763 110.258Z" fill="#D0E8E7"/>
<path d="M86.6351 114.946C95.2408 115.524 99.5066 125.219 98.9287 133.824C98.3507 142.43 88.7873 147.998 80.0646 147.563C71.4589 146.985 67.0007 140.597 67.5786 131.991C68.1434 123.256 77.8992 114.381 86.6351 114.946Z" fill="#4BB7A6"/>
<path d="M73.6968 131.374C75.0105 130.058 77.1983 130.889 78.3842 132.216C79.7003 133.529 79.1426 135.821 77.6988 137.15C76.255 138.479 74.7705 138.103 73.4545 136.79C72.2686 135.463 72.37 132.56 73.6968 131.374Z" fill="#D0E8E7"/>
<path d="M33.7037 145.535C40.9814 145.984 44.569 154.17 44.1332 161.578C43.6842 168.855 35.487 173.627 28.2093 173.179C20.9316 172.73 17.2294 167.317 17.6652 159.909C18.1011 152.502 26.426 145.086 33.7037 145.535Z" fill="#D0E8E7"/>
<path d="M33.0047 149.025C38.4337 149.398 41.1602 155.566 40.7876 160.995C40.4151 166.424 34.3388 170.062 28.7796 169.702C23.2205 169.343 20.574 165.27 20.8164 159.855C21.0588 154.439 27.5757 148.653 33.0047 149.025Z" fill="#4BB7A6"/>
<path d="M29.5381 101.641C33.6391 101.884 35.6872 106.543 35.4436 110.644C35.2 114.745 30.607 117.444 26.506 117.201C22.405 116.957 20.2541 113.887 20.4977 109.786C20.7413 105.685 25.3069 101.41 29.5381 101.641Z" fill="#D0E8E7"/>
<path d="M28.9139 104.597C31.4266 104.738 32.7702 107.627 32.6293 110.139C32.4884 112.652 29.6389 114.386 26.996 114.258C24.4834 114.117 23.1016 112.153 23.2425 109.64C23.3834 107.128 26.4013 104.456 28.9139 104.597Z" fill="#4BB7A6"/>
<path d="M24.7209 159.46C25.5533 158.587 27.0508 159.094 27.8068 160.069C28.5628 161.045 28.3167 162.516 27.341 163.272C26.5086 164.145 25.441 163.99 24.5549 163.028C23.7989 162.052 23.7452 160.216 24.7209 159.46Z" fill="#D0E8E7"/>
<path d="M92.6821 137.084C90.7988 141.877 87.5147 138 89.933 134.6C92.3513 131.2 90.1336 126.164 88.8163 123.536C87.6292 120.894 98.6568 122.017 92.6821 137.084Z" fill="#D0E8E7"/>
<path d="M52.3213 541.887C54.4213 544.287 58.1213 543.387 60.5213 541.287C62.9213 539.187 62.4213 535.187 60.3213 532.787C58.2213 530.387 55.4213 530.487 53.0213 532.587C50.6213 534.687 50.3213 539.487 52.3213 541.887Z" fill="#D0E8E7"/>
<path d="M53.9217 540.087C55.2217 541.587 57.5217 540.987 59.0217 539.687C60.5217 538.387 60.2217 535.887 58.9217 534.387C57.6217 532.887 55.9217 532.987 54.4217 534.287C52.8217 535.687 52.6217 538.687 53.9217 540.087Z" fill="#4BB7A6"/>
<path d="M300.267 121.785C367.697 56.863 459.393 16.9022 560.37 16.9022V0C460.623 0 369.487 37.2744 300.267 98.7267C219.307 170.589 168.203 275.584 168.203 392.444C168.203 509.304 219.195 614.299 300.267 686.161C369.487 747.614 460.623 785 560.37 785V768.098C459.393 768.098 367.697 728.137 300.267 663.215C229.259 594.934 185.2 498.894 185.2 392.556C185.2 286.106 229.371 190.178 300.267 121.785Z" fill="#F9E76A"/>
<path d="M532.526 364.124C528.836 367.818 525.816 372.184 523.804 377.109L214.051 248.719C233.061 202.826 260.905 161.522 295.459 126.934L532.526 364.124Z" fill="#4BB7A6"/>
<path d="M560.819 432.628V768.098H560.371C509.603 768.098 461.295 757.911 417.236 739.554L545.499 429.606C550.083 431.509 555.115 432.628 560.371 432.628C560.483 432.628 560.707 432.628 560.819 432.628Z" fill="#426974"/>
<path d="M523.804 407.891L214.051 536.28C195.712 491.954 185.536 443.486 185.536 392.556H520.673C520.785 397.929 521.791 403.078 523.804 407.891Z" fill="#4BB7A6"/>
<path d="M545.497 429.494L417.235 739.554C371.387 720.525 330.124 692.653 295.57 658.065L532.526 420.875C536.216 424.569 540.577 427.479 545.497 429.494Z" fill="#4BB7A6"/>
<path d="M532.526 420.876L295.459 658.066C260.905 623.478 233.061 582.174 214.051 536.281L523.804 407.891C525.816 412.704 528.836 417.182 532.526 420.876Z" fill="#426974"/>
<path d="M523.804 377.109C521.791 381.81 520.784 387.071 520.784 392.444H185.647C185.647 341.514 195.823 292.934 214.163 248.719L523.804 377.109Z" fill="#426974"/>
<path d="M560.819 16.9021V352.371C560.707 352.371 560.483 352.371 560.371 352.371C555.115 352.371 550.083 353.491 545.499 355.393L417.236 45.4455C461.295 27.2001 509.715 17.014 560.371 16.9021H560.819Z" fill="#4BB7A6"/>
<path d="M545.498 355.505C540.578 357.52 536.216 360.542 532.526 364.236L295.459 126.934C330.013 92.3463 371.388 64.4745 417.235 45.4456L545.498 355.505Z" fill="#426974"/>
<path d="M560.817 352.371V432.517C560.705 432.517 560.482 432.517 560.37 432.517C555.114 432.517 550.082 431.397 545.497 429.494C540.577 427.479 536.216 424.457 532.526 420.763C528.836 417.07 525.816 412.704 523.803 407.779C521.791 403.078 520.784 397.817 520.784 392.444C520.784 386.959 521.902 381.81 523.803 377.109C525.816 372.184 528.836 367.818 532.526 364.124C536.216 360.43 540.577 357.52 545.497 355.393C550.082 353.49 555.114 352.371 560.37 352.371C560.482 352.371 560.705 352.371 560.817 352.371Z" fill="#F9E76A"/>
<path d="M78.4062 414.377C79.3186 403.396 81.5869 392.503 85.0112 381.942L79.5641 380.247C77.3366 387.095 75.6872 394.109 74.3711 401.089C70.5665 421.23 70.5524 442.223 75.705 462.134C78.7269 473.166 83.6602 484.231 91.9914 492.258C92.3697 492.669 92.859 493.068 93.2373 493.479L91.7712 482.29C91.1258 481.457 90.4805 480.624 89.935 479.668C83.814 470.183 80.6698 459.051 78.9815 447.883C77.3044 436.827 77.2829 425.491 78.4062 414.377ZM200.619 377.347C200.904 373.501 198.657 370.136 196.142 367.471C191.782 363.196 185.557 361.579 179.589 361.396C172.288 361.347 165.066 363.199 158.267 365.905C148.369 370.16 139.885 377.302 133.591 386.132C129.408 392.504 126.436 399.763 125.409 407.388C125.21 408.755 125.023 410.234 125.713 411.511C126.069 411.7 126.547 411.988 126.903 412.177C128.114 411.942 128.802 410.975 129.135 409.819C130.763 403.705 132.613 397.568 135.998 392.175C140.581 385.314 146.621 379.541 153.474 375.145C162.571 369.624 173.392 365.614 184.129 367.449C188.008 368.067 191.4 370.531 193.537 373.908C186.256 371.836 178.143 371.533 171.2 375.04C168.745 376.298 165.823 377.378 164.403 379.991C163.56 381.648 165.007 383.747 166.885 383.445C170.396 382.642 173.55 380.528 177.217 380.157C183.139 378.774 189.619 379.579 195.167 382.275C197.891 383.684 200.36 385.904 201.219 388.848C202.311 391.881 201.314 395.35 199.438 397.896C193.042 392.368 183.173 391.343 175.731 395.462C174.353 396.274 174.278 398.864 176.112 399.24C180.057 399.403 183.98 399.344 187.937 399.618C192.605 400.27 196.898 403.878 198.258 408.455C199.473 412.71 198.278 417.546 195.113 420.671C189.806 425.922 182.295 428.251 174.984 429.214C175.482 427.48 176.659 425.789 175.912 423.956C175.166 422.123 172.954 421.336 171.132 422.194C170.29 424.973 169.337 427.763 168.372 430.442C162.654 448.307 154.902 466.04 142.157 479.898C140.936 481.144 139.614 482.512 138.282 483.769L139.413 492.748C141.922 490.923 144.176 488.787 146.319 486.663C152.837 480.055 157.997 472.238 162.458 464.154L164.787 459.429C168.58 451.413 171.651 442.908 173.699 434.283C177.045 435.18 180.467 434.61 183.89 434.04C190.179 432.956 196.445 430.528 201.042 426.023C207.171 420.016 208.161 409.813 203.509 402.649C206.274 400.013 208.049 396.466 208.112 392.643C208.396 386.552 205.345 380.798 200.619 377.347Z" fill="#262626"/>
<path d="M94.0943 359.585C96.3952 360.139 98.5963 360.815 100.897 361.368C99.1876 363.337 98.3007 365.671 97.4138 368.006C94.753 375.01 92.815 382.502 92.6774 390.037C92.5694 393.415 92.0169 396.839 92.2534 400.295C92.7602 407.54 94.1671 414.807 97.3071 421.45C99.9354 427.471 104.696 432.379 110.4 435.508C116.315 438.503 123.884 438.974 129.849 435.79C132.426 434.632 134.481 432.74 136.535 430.849C142.519 424.52 146.079 416.415 150.606 408.999C153.836 404.295 156.832 399.502 160.429 395.098C163.193 391.339 166.813 388.28 170.322 385.231C172.598 383.318 175.264 381.926 177.674 380.224C183.708 378.829 190.076 379.646 195.624 382.341C198.348 383.75 200.818 385.97 201.676 388.915C202.768 391.948 201.771 395.416 199.895 397.963C193.389 392.445 183.63 391.409 176.188 395.528C174.7 396.352 174.624 398.941 176.458 399.318C180.404 399.481 184.327 399.422 188.283 399.696C192.951 400.347 197.233 403.844 198.605 408.532C199.82 412.788 198.624 417.623 195.46 420.749C190.152 425.999 182.642 428.329 175.33 429.291C175.828 427.557 177.005 425.867 176.259 424.034C175.512 422.201 173.189 421.425 171.478 422.271C170.747 425.039 169.683 427.841 168.719 430.52C163.001 448.384 155.237 466.006 142.503 479.976C135.708 487.173 127.168 493.759 116.945 494.791C114.067 495.194 111.199 494.585 108.354 494.199C100.628 492.172 94.4215 486.288 90.1702 479.757C84.0492 470.272 80.7939 459.151 79.1056 447.983C77.5284 436.805 77.5181 425.58 78.5191 414.366C80.0686 395.238 85.4747 376.507 94.0943 359.585Z" fill="#986C59"/>
<path d="M97.4011 367.895C98.3992 365.549 99.2861 363.214 100.885 361.257C105.709 362.342 110.433 363.549 115.401 363.833L115.301 363.955C114.402 365.056 114.214 366.535 113.893 367.802C111.668 376.895 111.721 386.319 113.541 395.452C115.771 404.208 118.025 413.185 122.955 420.882C122.829 417.415 125.816 414.756 126.036 411.366C126.391 411.555 126.87 411.843 127.225 412.032C128.436 411.797 129.125 410.83 129.346 409.685C130.974 403.571 132.824 397.435 136.32 392.031C140.792 385.181 146.944 379.396 153.786 374.889C162.882 369.369 173.703 365.358 184.44 367.193C188.319 367.812 191.711 370.276 193.737 373.663C186.456 371.592 178.343 371.288 171.4 374.795C168.945 376.053 166.023 377.134 164.592 379.636C163.749 381.292 165.196 383.391 166.962 383.101C170.473 382.297 173.628 380.183 177.295 379.813C174.896 381.627 172.219 382.907 169.942 384.821C166.433 387.869 162.924 390.917 160.049 394.687C156.453 399.091 153.456 403.884 150.227 408.588C145.699 416.005 142.25 424.098 136.155 430.439C134.212 432.318 132.047 434.221 129.469 435.379C123.516 438.674 115.947 438.203 110.021 435.097C104.317 431.968 99.5558 427.06 96.9275 421.039C93.7874 414.396 92.3805 407.13 91.8738 399.884C91.6373 396.428 92.1898 393.005 92.2978 389.626C92.8024 382.391 94.7516 375.01 97.4011 367.895Z" fill="white"/>
</svg>
